<?xml version="1.0" encoding="utf-8" standalone="no"?>
<!DOCTYPE svg PUBLIC "-//W3C//DTD SVG 1.1//EN"
  "http://www.w3.org/Graphics/SVG/1.1/DTD/svg11.dtd">
<svg xmlns:xlink="http://www.w3.org/1999/xlink" width="771.84pt" height="590.76pt" viewBox="0 0 771.84 590.76" xmlns="http://www.w3.org/2000/svg" version="1.1">
 <metadata>
  <rdf:RDF xmlns:dc="http://purl.org/dc/elements/1.1/" xmlns:cc="http://creativecommons.org/ns#" xmlns:rdf="http://www.w3.org/1999/02/22-rdf-syntax-ns#">
   <cc:Work>
    <dc:type rdf:resource="http://purl.org/dc/dcmitype/StillImage"/>
    <dc:date>2022-06-02T21:34:10.992512</dc:date>
    <dc:format>image/svg+xml</dc:format>
    <dc:creator>
     <cc:Agent>
      <dc:title>Matplotlib v3.5.2, https://matplotlib.org/</dc:title>
     </cc:Agent>
    </dc:creator>
   </cc:Work>
  </rdf:RDF>
 </metadata>
 <defs>
  <style type="text/css">*{stroke-linejoin: round; stroke-linecap: butt}</style>
 </defs>
 <g id="figure_1">
  <g id="patch_1">
   <path d="M 0 590.76 
L 771.84 590.76 
L 771.84 0 
L 0 0 
z
" style="fill: #ffffff"/>
  </g>
  <g id="axes_1">
   <g id="patch_2">
    <path d="M 110.51875 517.625625 
L 758.88 517.625625 
L 758.88 25.763437 
L 110.51875 25.763437 
z
" style="fill: #ffffff"/>
   </g>
   <g id="patch_3">
    <path d="M 117.175259 420.66537 
L 134.1191 420.66537 
L 134.1191 347.021304 
L 117.175259 347.021304 
L 117.175259 420.66537 
z
" clip-path="url(#pd68dfa1079)" style="fill: #2020df; stroke: #262626; stroke-linejoin: miter"/>
   </g>
   <g id="patch_4">
    <path d="M 134.464892 337.194858 
L 151.408733 337.194858 
L 151.408733 298.327639 
L 134.464892 298.327639 
L 134.464892 337.194858 
z
" clip-path="url(#pd68dfa1079)" style="fill: #107010; stroke: #262626; stroke-linejoin: miter"/>
   </g>
   <g id="patch_5">
    <path d="M 151.754526 373.065945 
L 168.698366 373.065945 
L 168.698366 322.305383 
L 151.754526 322.305383 
L 151.754526 373.065945 
z
" clip-path="url(#pd68dfa1079)" style="fill: #df2020; stroke: #262626; stroke-linejoin: miter"/>
   </g>
   <g id="patch_6">
    <path d="M 182.011384 213.811536 
L 198.955225 213.811536 
L 198.955225 207.671174 
L 182.011384 207.671174 
L 182.011384 213.811536 
z
" clip-path="url(#pd68dfa1079)" style="fill: #2020df; stroke: #262626; stroke-linejoin: miter"/>
   </g>
   <g id="patch_7">
    <path d="M 199.301017 168.898101 
L 216.244858 168.898101 
L 216.244858 132.085252 
L 199.301017 132.085252 
L 199.301017 168.898101 
z
" clip-path="url(#pd68dfa1079)" style="fill: #107010; stroke: #262626; stroke-linejoin: miter"/>
   </g>
   <g id="patch_8">
    <path d="M 216.590651 194.791494 
L 233.534491 194.791494 
L 233.534491 165.187077 
L 216.590651 165.187077 
L 216.590651 194.791494 
z
" clip-path="url(#pd68dfa1079)" style="fill: #df2020; stroke: #262626; stroke-linejoin: miter"/>
   </g>
   <g id="patch_9">
    <path d="M 246.847509 373.613756 
L 263.79135 373.613756 
L 263.79135 347.21459 
L 246.847509 347.21459 
L 246.847509 373.613756 
z
" clip-path="url(#pd68dfa1079)" style="fill: #2020df; stroke: #262626; stroke-linejoin: miter"/>
   </g>
   <g id="patch_10">
    <path d="M 264.137142 354.57331 
L 281.080983 354.57331 
L 281.080983 350.941984 
L 264.137142 350.941984 
L 264.137142 354.57331 
z
" clip-path="url(#pd68dfa1079)" style="fill: #107010; stroke: #262626; stroke-linejoin: miter"/>
   </g>
   <g id="patch_11">
    <path d="M 281.426776 368.552955 
L 298.370616 368.552955 
L 298.370616 349.247365 
L 281.426776 349.247365 
L 281.426776 368.552955 
z
" clip-path="url(#pd68dfa1079)" style="fill: #df2020; stroke: #262626; stroke-linejoin: miter"/>
   </g>
   <g id="patch_12">
    <path d="M 311.683634 425.400927 
L 328.627475 425.400927 
L 328.627475 388.663202 
L 311.683634 388.663202 
L 311.683634 425.400927 
z
" clip-path="url(#pd68dfa1079)" style="fill: #2020df; stroke: #262626; stroke-linejoin: miter"/>
   </g>
   <g id="patch_13">
    <path d="M 328.973267 259.029426 
L 345.917108 259.029426 
L 345.917108 220.805547 
L 328.973267 220.805547 
L 328.973267 259.029426 
z
" clip-path="url(#pd68dfa1079)" style="fill: #107010; stroke: #262626; stroke-linejoin: miter"/>
   </g>
   <g id="patch_14">
    <path d="M 346.262901 295.22299 
L 363.206741 295.22299 
L 363.206741 246.349103 
L 346.262901 246.349103 
L 346.262901 295.22299 
z
" clip-path="url(#pd68dfa1079)" style="fill: #df2020; stroke: #262626; stroke-linejoin: miter"/>
   </g>
   <g id="patch_15">
    <path d="M 376.519759 288.165574 
L 393.4636 288.165574 
L 393.4636 252.63979 
L 376.519759 252.63979 
L 376.519759 288.165574 
z
" clip-path="url(#pd68dfa1079)" style="fill: #2020df; stroke: #262626; stroke-linejoin: miter"/>
   </g>
   <g id="patch_16">
    <path d="M 393.809392 266.807611 
L 410.753233 266.807611 
L 410.753233 254.671219 
L 393.809392 254.671219 
L 393.809392 266.807611 
z
" clip-path="url(#pd68dfa1079)" style="fill: #107010; stroke: #262626; stroke-linejoin: miter"/>
   </g>
   <g id="patch_17">
    <path d="M 411.099026 279.290651 
L 428.042866 279.290651 
L 428.042866 259.483284 
L 411.099026 259.483284 
L 411.099026 279.290651 
z
" clip-path="url(#pd68dfa1079)" style="fill: #df2020; stroke: #262626; stroke-linejoin: miter"/>
   </g>
   <g id="patch_18">
    <path d="M 441.355884 280.065718 
L 458.299725 280.065718 
L 458.299725 251.001274 
L 441.355884 251.001274 
L 441.355884 280.065718 
z
" clip-path="url(#pd68dfa1079)" style="fill: #2020df; stroke: #262626; stroke-linejoin: miter"/>
   </g>
   <g id="patch_19">
    <path d="M 458.645517 251.606572 
L 475.589358 251.606572 
L 475.589358 242.036778 
L 458.645517 242.036778 
L 458.645517 251.606572 
z
" clip-path="url(#pd68dfa1079)" style="fill: #107010; stroke: #262626; stroke-linejoin: miter"/>
   </g>
   <g id="patch_20">
    <path d="M 475.935151 261.984557 
L 492.878991 261.984557 
L 492.878991 246.138602 
L 475.935151 246.138602 
L 475.935151 261.984557 
z
" clip-path="url(#pd68dfa1079)" style="fill: #df2020; stroke: #262626; stroke-linejoin: miter"/>
   </g>
   <g id="patch_21">
    <path d="M 506.192009 453.18015 
L 523.13585 453.18015 
L 523.13585 436.575959 
L 506.192009 436.575959 
L 506.192009 453.18015 
z
" clip-path="url(#pd68dfa1079)" style="fill: #2020df; stroke: #262626; stroke-linejoin: miter"/>
   </g>
   <g id="patch_22">
    <path d="M 523.481642 355.829864 
L 540.425483 355.829864 
L 540.425483 345.473859 
L 523.481642 345.473859 
L 523.481642 355.829864 
z
" clip-path="url(#pd68dfa1079)" style="fill: #107010; stroke: #262626; stroke-linejoin: miter"/>
   </g>
   <g id="patch_23">
    <path d="M 540.771276 355.749168 
L 557.715116 355.749168 
L 557.715116 342.699449 
L 540.771276 342.699449 
L 540.771276 355.749168 
z
" clip-path="url(#pd68dfa1079)" style="fill: #df2020; stroke: #262626; stroke-linejoin: miter"/>
   </g>
   <g id="patch_24">
    <path d="M 571.028134 460.599738 
L 587.971975 460.599738 
L 587.971975 303.114534 
L 571.028134 303.114534 
L 571.028134 460.599738 
z
" clip-path="url(#pd68dfa1079)" style="fill: #2020df; stroke: #262626; stroke-linejoin: miter"/>
   </g>
   <g id="patch_25">
    <path d="M 588.317767 288.741168 
L 605.261608 288.741168 
L 605.261608 181.151771 
L 588.317767 181.151771 
L 588.317767 288.741168 
z
" clip-path="url(#pd68dfa1079)" style="fill: #107010; stroke: #262626; stroke-linejoin: miter"/>
   </g>
   <g id="patch_26">
    <path d="M 605.607401 304.45824 
L 622.551241 304.45824 
L 622.551241 244.749091 
L 605.607401 244.749091 
L 605.607401 304.45824 
z
" clip-path="url(#pd68dfa1079)" style="fill: #df2020; stroke: #262626; stroke-linejoin: miter"/>
   </g>
   <g id="patch_27">
    <path d="M 635.864259 188.127914 
L 652.8081 188.127914 
L 652.8081 135.221988 
L 635.864259 135.221988 
L 635.864259 188.127914 
z
" clip-path="url(#pd68dfa1079)" style="fill: #2020df; stroke: #262626; stroke-linejoin: miter"/>
   </g>
   <g id="patch_28">
    <path d="M 653.153892 119.743699 
L 670.097733 119.743699 
L 670.097733 89.809274 
L 653.153892 89.809274 
L 653.153892 119.743699 
z
" clip-path="url(#pd68dfa1079)" style="fill: #107010; stroke: #262626; stroke-linejoin: miter"/>
   </g>
   <g id="patch_29">
    <path d="M 670.443526 136.916607 
L 687.387366 136.916607 
L 687.387366 112.999808 
L 670.443526 112.999808 
L 670.443526 136.916607 
z
" clip-path="url(#pd68dfa1079)" style="fill: #df2020; stroke: #262626; stroke-linejoin: miter"/>
   </g>
   <g id="patch_30">
    <path d="M 700.700384 296.341438 
L 717.644225 296.341438 
L 717.644225 239.189357 
L 700.700384 239.189357 
L 700.700384 296.341438 
z
" clip-path="url(#pd68dfa1079)" style="fill: #2020df; stroke: #262626; stroke-linejoin: miter"/>
   </g>
   <g id="patch_31">
    <path d="M 717.990017 180.584746 
L 734.933858 180.584746 
L 734.933858 140.382698 
L 717.990017 140.382698 
L 717.990017 180.584746 
z
" clip-path="url(#pd68dfa1079)" style="fill: #107010; stroke: #262626; stroke-linejoin: miter"/>
   </g>
   <g id="patch_32">
    <path d="M 735.279651 204.247929 
L 752.223491 204.247929 
L 752.223491 179.631763 
L 735.279651 179.631763 
L 735.279651 204.247929 
z
" clip-path="url(#pd68dfa1079)" style="fill: #df2020; stroke: #262626; stroke-linejoin: miter"/>
   </g>
   <g id="patch_33">
    <path d="M 142.936813 517.625625 
L 142.936813 517.625625 
L 142.936813 517.625625 
L 142.936813 517.625625 
z
" clip-path="url(#pd68dfa1079)" style="fill: #2020df; stroke: #262626; stroke-width: 0.5; stroke-linejoin: miter"/>
   </g>
   <g id="patch_34">
    <path d="M 142.936813 517.625625 
L 142.936813 517.625625 
L 142.936813 517.625625 
L 142.936813 517.625625 
z
" clip-path="url(#pd68dfa1079)" style="fill: #107010; stroke: #262626; stroke-width: 0.5; stroke-linejoin: miter"/>
   </g>
   <g id="patch_35">
    <path d="M 142.936813 517.625625 
L 142.936813 517.625625 
L 142.936813 517.625625 
L 142.936813 517.625625 
z
" clip-path="url(#pd68dfa1079)" style="fill: #df2020; stroke: #262626; stroke-width: 0.5; stroke-linejoin: miter"/>
   </g>
   <g id="line2d_1">
    <path d="M 125.647179 420.66537 
L 125.647179 426.006302 
" clip-path="url(#pd68dfa1079)" style="fill: none; stroke: #262626; stroke-linecap: square"/>
   </g>
   <g id="line2d_2">
    <path d="M 125.647179 347.021304 
L 125.647179 276.547059 
" clip-path="url(#pd68dfa1079)" style="fill: none; stroke: #262626; stroke-linecap: square"/>
   </g>
   <g id="line2d_3">
    <path d="M 121.411219 426.006302 
L 129.883139 426.006302 
" clip-path="url(#pd68dfa1079)" style="fill: none; stroke: #262626; stroke-linecap: square"/>
   </g>
   <g id="line2d_4">
    <path d="M 121.411219 276.547059 
L 129.883139 276.547059 
" clip-path="url(#pd68dfa1079)" style="fill: none; stroke: #262626; stroke-linecap: square"/>
   </g>
   <g id="line2d_5"/>
   <g id="line2d_6">
    <path d="M 142.936813 337.194858 
L 142.936813 357.381843 
" clip-path="url(#pd68dfa1079)" style="fill: none; stroke: #262626; stroke-linecap: square"/>
   </g>
   <g id="line2d_7">
    <path d="M 142.936813 298.327639 
L 142.936813 263.450921 
" clip-path="url(#pd68dfa1079)" style="fill: none; stroke: #262626; stroke-linecap: square"/>
   </g>
   <g id="line2d_8">
    <path d="M 138.700852 357.381843 
L 147.172773 357.381843 
" clip-path="url(#pd68dfa1079)" style="fill: none; stroke: #262626; stroke-linecap: square"/>
   </g>
   <g id="line2d_9">
    <path d="M 138.700852 263.450921 
L 147.172773 263.450921 
" clip-path="url(#pd68dfa1079)" style="fill: none; stroke: #262626; stroke-linecap: square"/>
   </g>
   <g id="line2d_10"/>
   <g id="line2d_11">
    <path d="M 160.226446 373.065945 
L 160.226446 390.122188 
" clip-path="url(#pd68dfa1079)" style="fill: none; stroke: #262626; stroke-linecap: square"/>
   </g>
   <g id="line2d_12">
    <path d="M 160.226446 322.305383 
L 160.226446 298.414483 
" clip-path="url(#pd68dfa1079)" style="fill: none; stroke: #262626; stroke-linecap: square"/>
   </g>
   <g id="line2d_13">
    <path d="M 155.990486 390.122188 
L 164.462406 390.122188 
" clip-path="url(#pd68dfa1079)" style="fill: none; stroke: #262626; stroke-linecap: square"/>
   </g>
   <g id="line2d_14">
    <path d="M 155.990486 298.414483 
L 164.462406 298.414483 
" clip-path="url(#pd68dfa1079)" style="fill: none; stroke: #262626; stroke-linecap: square"/>
   </g>
   <g id="line2d_15"/>
   <g id="line2d_16">
    <path d="M 190.483304 213.811536 
L 190.483304 215.49113 
" clip-path="url(#pd68dfa1079)" style="fill: none; stroke: #262626; stroke-linecap: square"/>
   </g>
   <g id="line2d_17">
    <path d="M 190.483304 207.671174 
L 190.483304 207.566461 
" clip-path="url(#pd68dfa1079)" style="fill: none; stroke: #262626; stroke-linecap: square"/>
   </g>
   <g id="line2d_18">
    <path d="M 186.247344 215.49113 
L 194.719264 215.49113 
" clip-path="url(#pd68dfa1079)" style="fill: none; stroke: #262626; stroke-linecap: square"/>
   </g>
   <g id="line2d_19">
    <path d="M 186.247344 207.566461 
L 194.719264 207.566461 
" clip-path="url(#pd68dfa1079)" style="fill: none; stroke: #262626; stroke-linecap: square"/>
   </g>
   <g id="line2d_20">
    <defs>
     <path id="m4e14d46fd6" d="M -0 3.535534 
L 2.12132 0 
L -0 -3.535534 
L -2.12132 -0 
z
" style="stroke: #262626; stroke-linejoin: miter"/>
    </defs>
    <g clip-path="url(#pd68dfa1079)">
     <use xlink:href="#m4e14d46fd6" x="190.483304" y="223.650355" style="fill: #262626; stroke: #262626; stroke-linejoin: miter"/>
     <use xlink:href="#m4e14d46fd6" x="190.483304" y="117.71446" style="fill: #262626; stroke: #262626; stroke-linejoin: miter"/>
     <use xlink:href="#m4e14d46fd6" x="190.483304" y="119.071539" style="fill: #262626; stroke: #262626; stroke-linejoin: miter"/>
    </g>
   </g>
   <g id="line2d_21">
    <path d="M 207.772938 168.898101 
L 207.772938 200.462742 
" clip-path="url(#pd68dfa1079)" style="fill: none; stroke: #262626; stroke-linecap: square"/>
   </g>
   <g id="line2d_22">
    <path d="M 207.772938 132.085252 
L 207.772938 120.428617 
" clip-path="url(#pd68dfa1079)" style="fill: none; stroke: #262626; stroke-linecap: square"/>
   </g>
   <g id="line2d_23">
    <path d="M 203.536977 200.462742 
L 212.008898 200.462742 
" clip-path="url(#pd68dfa1079)" style="fill: none; stroke: #262626; stroke-linecap: square"/>
   </g>
   <g id="line2d_24">
    <path d="M 203.536977 120.428617 
L 212.008898 120.428617 
" clip-path="url(#pd68dfa1079)" style="fill: none; stroke: #262626; stroke-linecap: square"/>
   </g>
   <g id="line2d_25"/>
   <g id="line2d_26">
    <path d="M 225.062571 194.791494 
L 225.062571 207.281643 
" clip-path="url(#pd68dfa1079)" style="fill: none; stroke: #262626; stroke-linecap: square"/>
   </g>
   <g id="line2d_27">
    <path d="M 225.062571 165.187077 
L 225.062571 137.383722 
" clip-path="url(#pd68dfa1079)" style="fill: none; stroke: #262626; stroke-linecap: square"/>
   </g>
   <g id="line2d_28">
    <path d="M 220.826611 207.281643 
L 229.298531 207.281643 
" clip-path="url(#pd68dfa1079)" style="fill: none; stroke: #262626; stroke-linecap: square"/>
   </g>
   <g id="line2d_29">
    <path d="M 220.826611 137.383722 
L 229.298531 137.383722 
" clip-path="url(#pd68dfa1079)" style="fill: none; stroke: #262626; stroke-linecap: square"/>
   </g>
   <g id="line2d_30"/>
   <g id="line2d_31">
    <path d="M 255.319429 373.613756 
L 255.319429 376.876186 
" clip-path="url(#pd68dfa1079)" style="fill: none; stroke: #262626; stroke-linecap: square"/>
   </g>
   <g id="line2d_32">
    <path d="M 255.319429 347.21459 
L 255.319429 344.213463 
" clip-path="url(#pd68dfa1079)" style="fill: none; stroke: #262626; stroke-linecap: square"/>
   </g>
   <g id="line2d_33">
    <path d="M 251.083469 376.876186 
L 259.555389 376.876186 
" clip-path="url(#pd68dfa1079)" style="fill: none; stroke: #262626; stroke-linecap: square"/>
   </g>
   <g id="line2d_34">
    <path d="M 251.083469 344.213463 
L 259.555389 344.213463 
" clip-path="url(#pd68dfa1079)" style="fill: none; stroke: #262626; stroke-linecap: square"/>
   </g>
   <g id="line2d_35"/>
   <g id="line2d_36">
    <path d="M 272.609063 354.57331 
L 272.609063 359.215259 
" clip-path="url(#pd68dfa1079)" style="fill: none; stroke: #262626; stroke-linecap: square"/>
   </g>
   <g id="line2d_37">
    <path d="M 272.609063 350.941984 
L 272.609063 348.793929 
" clip-path="url(#pd68dfa1079)" style="fill: none; stroke: #262626; stroke-linecap: square"/>
   </g>
   <g id="line2d_38">
    <path d="M 268.373102 359.215259 
L 276.845023 359.215259 
" clip-path="url(#pd68dfa1079)" style="fill: none; stroke: #262626; stroke-linecap: square"/>
   </g>
   <g id="line2d_39">
    <path d="M 268.373102 348.793929 
L 276.845023 348.793929 
" clip-path="url(#pd68dfa1079)" style="fill: none; stroke: #262626; stroke-linecap: square"/>
   </g>
   <g id="line2d_40">
    <g clip-path="url(#pd68dfa1079)">
     <use xlink:href="#m4e14d46fd6" x="272.609063" y="360.106759" style="fill: #262626; stroke: #262626; stroke-linejoin: miter"/>
     <use xlink:href="#m4e14d46fd6" x="272.609063" y="328.873511" style="fill: #262626; stroke: #262626; stroke-linejoin: miter"/>
     <use xlink:href="#m4e14d46fd6" x="272.609063" y="344.736066" style="fill: #262626; stroke: #262626; stroke-linejoin: miter"/>
    </g>
   </g>
   <g id="line2d_41">
    <path d="M 289.898696 368.552955 
L 289.898696 373.925013 
" clip-path="url(#pd68dfa1079)" style="fill: none; stroke: #262626; stroke-linecap: square"/>
   </g>
   <g id="line2d_42">
    <path d="M 289.898696 349.247365 
L 289.898696 325.845484 
" clip-path="url(#pd68dfa1079)" style="fill: none; stroke: #262626; stroke-linecap: square"/>
   </g>
   <g id="line2d_43">
    <path d="M 285.662736 373.925013 
L 294.134656 373.925013 
" clip-path="url(#pd68dfa1079)" style="fill: none; stroke: #262626; stroke-linecap: square"/>
   </g>
   <g id="line2d_44">
    <path d="M 285.662736 325.845484 
L 294.134656 325.845484 
" clip-path="url(#pd68dfa1079)" style="fill: none; stroke: #262626; stroke-linecap: square"/>
   </g>
   <g id="line2d_45"/>
   <g id="line2d_46">
    <path d="M 320.155554 425.400927 
L 320.155554 429.159753 
" clip-path="url(#pd68dfa1079)" style="fill: none; stroke: #262626; stroke-linecap: square"/>
   </g>
   <g id="line2d_47">
    <path d="M 320.155554 388.663202 
L 320.155554 387.766937 
" clip-path="url(#pd68dfa1079)" style="fill: none; stroke: #262626; stroke-linecap: square"/>
   </g>
   <g id="line2d_48">
    <path d="M 315.919594 429.159753 
L 324.391514 429.159753 
" clip-path="url(#pd68dfa1079)" style="fill: none; stroke: #262626; stroke-linecap: square"/>
   </g>
   <g id="line2d_49">
    <path d="M 315.919594 387.766937 
L 324.391514 387.766937 
" clip-path="url(#pd68dfa1079)" style="fill: none; stroke: #262626; stroke-linecap: square"/>
   </g>
   <g id="line2d_50">
    <g clip-path="url(#pd68dfa1079)">
     <use xlink:href="#m4e14d46fd6" x="320.155554" y="199.313475" style="fill: #262626; stroke: #262626; stroke-linejoin: miter"/>
     <use xlink:href="#m4e14d46fd6" x="320.155554" y="212.263592" style="fill: #262626; stroke: #262626; stroke-linejoin: miter"/>
    </g>
   </g>
   <g id="line2d_51">
    <path d="M 337.445188 259.029426 
L 337.445188 280.215121 
" clip-path="url(#pd68dfa1079)" style="fill: none; stroke: #262626; stroke-linecap: square"/>
   </g>
   <g id="line2d_52">
    <path d="M 337.445188 220.805547 
L 337.445188 187.021839 
" clip-path="url(#pd68dfa1079)" style="fill: none; stroke: #262626; stroke-linecap: square"/>
   </g>
   <g id="line2d_53">
    <path d="M 333.209227 280.215121 
L 341.681148 280.215121 
" clip-path="url(#pd68dfa1079)" style="fill: none; stroke: #262626; stroke-linecap: square"/>
   </g>
   <g id="line2d_54">
    <path d="M 333.209227 187.021839 
L 341.681148 187.021839 
" clip-path="url(#pd68dfa1079)" style="fill: none; stroke: #262626; stroke-linecap: square"/>
   </g>
   <g id="line2d_55"/>
   <g id="line2d_56">
    <path d="M 354.734821 295.22299 
L 354.734821 311.072249 
" clip-path="url(#pd68dfa1079)" style="fill: none; stroke: #262626; stroke-linecap: square"/>
   </g>
   <g id="line2d_57">
    <path d="M 354.734821 246.349103 
L 354.734821 225.341746 
" clip-path="url(#pd68dfa1079)" style="fill: none; stroke: #262626; stroke-linecap: square"/>
   </g>
   <g id="line2d_58">
    <path d="M 350.498861 311.072249 
L 358.970781 311.072249 
" clip-path="url(#pd68dfa1079)" style="fill: none; stroke: #262626; stroke-linecap: square"/>
   </g>
   <g id="line2d_59">
    <path d="M 350.498861 225.341746 
L 358.970781 225.341746 
" clip-path="url(#pd68dfa1079)" style="fill: none; stroke: #262626; stroke-linecap: square"/>
   </g>
   <g id="line2d_60"/>
   <g id="line2d_61">
    <path d="M 384.991679 288.165574 
L 384.991679 290.897753 
" clip-path="url(#pd68dfa1079)" style="fill: none; stroke: #262626; stroke-linecap: square"/>
   </g>
   <g id="line2d_62">
    <path d="M 384.991679 252.63979 
L 384.991679 241.174329 
" clip-path="url(#pd68dfa1079)" style="fill: none; stroke: #262626; stroke-linecap: square"/>
   </g>
   <g id="line2d_63">
    <path d="M 380.755719 290.897753 
L 389.227639 290.897753 
" clip-path="url(#pd68dfa1079)" style="fill: none; stroke: #262626; stroke-linecap: square"/>
   </g>
   <g id="line2d_64">
    <path d="M 380.755719 241.174329 
L 389.227639 241.174329 
" clip-path="url(#pd68dfa1079)" style="fill: none; stroke: #262626; stroke-linecap: square"/>
   </g>
   <g id="line2d_65"/>
   <g id="line2d_66">
    <path d="M 402.281313 266.807611 
L 402.281313 278.507898 
" clip-path="url(#pd68dfa1079)" style="fill: none; stroke: #262626; stroke-linecap: square"/>
   </g>
   <g id="line2d_67">
    <path d="M 402.281313 254.671219 
L 402.281313 250.448083 
" clip-path="url(#pd68dfa1079)" style="fill: none; stroke: #262626; stroke-linecap: square"/>
   </g>
   <g id="line2d_68">
    <path d="M 398.045352 278.507898 
L 406.517273 278.507898 
" clip-path="url(#pd68dfa1079)" style="fill: none; stroke: #262626; stroke-linecap: square"/>
   </g>
   <g id="line2d_69">
    <path d="M 398.045352 250.448083 
L 406.517273 250.448083 
" clip-path="url(#pd68dfa1079)" style="fill: none; stroke: #262626; stroke-linecap: square"/>
   </g>
   <g id="line2d_70">
    <g clip-path="url(#pd68dfa1079)">
     <use xlink:href="#m4e14d46fd6" x="402.281313" y="230.409617" style="fill: #262626; stroke: #262626; stroke-linejoin: miter"/>
    </g>
   </g>
   <g id="line2d_71">
    <path d="M 419.570946 279.290651 
L 419.570946 289.540982 
" clip-path="url(#pd68dfa1079)" style="fill: none; stroke: #262626; stroke-linecap: square"/>
   </g>
   <g id="line2d_72">
    <path d="M 419.570946 259.483284 
L 419.570946 246.72069 
" clip-path="url(#pd68dfa1079)" style="fill: none; stroke: #262626; stroke-linecap: square"/>
   </g>
   <g id="line2d_73">
    <path d="M 415.334986 289.540982 
L 423.806906 289.540982 
" clip-path="url(#pd68dfa1079)" style="fill: none; stroke: #262626; stroke-linecap: square"/>
   </g>
   <g id="line2d_74">
    <path d="M 415.334986 246.72069 
L 423.806906 246.72069 
" clip-path="url(#pd68dfa1079)" style="fill: none; stroke: #262626; stroke-linecap: square"/>
   </g>
   <g id="line2d_75"/>
   <g id="line2d_76">
    <path d="M 449.827804 280.065718 
L 449.827804 281.861323 
" clip-path="url(#pd68dfa1079)" style="fill: none; stroke: #262626; stroke-linecap: square"/>
   </g>
   <g id="line2d_77">
    <path d="M 449.827804 251.001274 
L 449.827804 231.354454 
" clip-path="url(#pd68dfa1079)" style="fill: none; stroke: #262626; stroke-linecap: square"/>
   </g>
   <g id="line2d_78">
    <path d="M 445.591844 281.861323 
L 454.063764 281.861323 
" clip-path="url(#pd68dfa1079)" style="fill: none; stroke: #262626; stroke-linecap: square"/>
   </g>
   <g id="line2d_79">
    <path d="M 445.591844 231.354454 
L 454.063764 231.354454 
" clip-path="url(#pd68dfa1079)" style="fill: none; stroke: #262626; stroke-linecap: square"/>
   </g>
   <g id="line2d_80"/>
   <g id="line2d_81">
    <path d="M 467.117438 251.606572 
L 467.117438 265.927447 
" clip-path="url(#pd68dfa1079)" style="fill: none; stroke: #262626; stroke-linecap: square"/>
   </g>
   <g id="line2d_82">
    <path d="M 467.117438 242.036778 
L 467.117438 238.996763 
" clip-path="url(#pd68dfa1079)" style="fill: none; stroke: #262626; stroke-linecap: square"/>
   </g>
   <g id="line2d_83">
    <path d="M 462.881477 265.927447 
L 471.353398 265.927447 
" clip-path="url(#pd68dfa1079)" style="fill: none; stroke: #262626; stroke-linecap: square"/>
   </g>
   <g id="line2d_84">
    <path d="M 462.881477 238.996763 
L 471.353398 238.996763 
" clip-path="url(#pd68dfa1079)" style="fill: none; stroke: #262626; stroke-linecap: square"/>
   </g>
   <g id="line2d_85">
    <g clip-path="url(#pd68dfa1079)">
     <use xlink:href="#m4e14d46fd6" x="467.117438" y="223.333411" style="fill: #262626; stroke: #262626; stroke-linejoin: miter"/>
    </g>
   </g>
   <g id="line2d_86">
    <path d="M 484.407071 261.984557 
L 484.407071 277.289464 
" clip-path="url(#pd68dfa1079)" style="fill: none; stroke: #262626; stroke-linecap: square"/>
   </g>
   <g id="line2d_87">
    <path d="M 484.407071 246.138602 
L 484.407071 236.521466 
" clip-path="url(#pd68dfa1079)" style="fill: none; stroke: #262626; stroke-linecap: square"/>
   </g>
   <g id="line2d_88">
    <path d="M 480.171111 277.289464 
L 488.643031 277.289464 
" clip-path="url(#pd68dfa1079)" style="fill: none; stroke: #262626; stroke-linecap: square"/>
   </g>
   <g id="line2d_89">
    <path d="M 480.171111 236.521466 
L 488.643031 236.521466 
" clip-path="url(#pd68dfa1079)" style="fill: none; stroke: #262626; stroke-linecap: square"/>
   </g>
   <g id="line2d_90"/>
   <g id="line2d_91">
    <path d="M 514.663929 453.18015 
L 514.663929 455.620248 
" clip-path="url(#pd68dfa1079)" style="fill: none; stroke: #262626; stroke-linecap: square"/>
   </g>
   <g id="line2d_92">
    <path d="M 514.663929 436.575959 
L 514.663929 436.437623 
" clip-path="url(#pd68dfa1079)" style="fill: none; stroke: #262626; stroke-linecap: square"/>
   </g>
   <g id="line2d_93">
    <path d="M 510.427969 455.620248 
L 518.899889 455.620248 
" clip-path="url(#pd68dfa1079)" style="fill: none; stroke: #262626; stroke-linecap: square"/>
   </g>
   <g id="line2d_94">
    <path d="M 510.427969 436.437623 
L 518.899889 436.437623 
" clip-path="url(#pd68dfa1079)" style="fill: none; stroke: #262626; stroke-linecap: square"/>
   </g>
   <g id="line2d_95">
    <g clip-path="url(#pd68dfa1079)">
     <use xlink:href="#m4e14d46fd6" x="514.663929" y="344.244204" style="fill: #262626; stroke: #262626; stroke-linejoin: miter"/>
     <use xlink:href="#m4e14d46fd6" x="514.663929" y="342.491945" style="fill: #262626; stroke: #262626; stroke-linejoin: miter"/>
    </g>
   </g>
   <g id="line2d_96">
    <path d="M 531.953563 355.829864 
L 531.953563 369.390658 
" clip-path="url(#pd68dfa1079)" style="fill: none; stroke: #262626; stroke-linecap: square"/>
   </g>
   <g id="line2d_97">
    <path d="M 531.953563 345.473859 
L 531.953563 333.838245 
" clip-path="url(#pd68dfa1079)" style="fill: none; stroke: #262626; stroke-linecap: square"/>
   </g>
   <g id="line2d_98">
    <path d="M 527.717602 369.390658 
L 536.189523 369.390658 
" clip-path="url(#pd68dfa1079)" style="fill: none; stroke: #262626; stroke-linecap: square"/>
   </g>
   <g id="line2d_99">
    <path d="M 527.717602 333.838245 
L 536.189523 333.838245 
" clip-path="url(#pd68dfa1079)" style="fill: none; stroke: #262626; stroke-linecap: square"/>
   </g>
   <g id="line2d_100"/>
   <g id="line2d_101">
    <path d="M 549.243196 355.749168 
L 549.243196 366.301149 
" clip-path="url(#pd68dfa1079)" style="fill: none; stroke: #262626; stroke-linecap: square"/>
   </g>
   <g id="line2d_102">
    <path d="M 549.243196 342.699449 
L 549.243196 325.076949 
" clip-path="url(#pd68dfa1079)" style="fill: none; stroke: #262626; stroke-linecap: square"/>
   </g>
   <g id="line2d_103">
    <path d="M 545.007236 366.301149 
L 553.479156 366.301149 
" clip-path="url(#pd68dfa1079)" style="fill: none; stroke: #262626; stroke-linecap: square"/>
   </g>
   <g id="line2d_104">
    <path d="M 545.007236 325.076949 
L 553.479156 325.076949 
" clip-path="url(#pd68dfa1079)" style="fill: none; stroke: #262626; stroke-linecap: square"/>
   </g>
   <g id="line2d_105">
    <g clip-path="url(#pd68dfa1079)">
     <use xlink:href="#m4e14d46fd6" x="549.243196" y="311.689075" style="fill: #262626; stroke: #262626; stroke-linejoin: miter"/>
     <use xlink:href="#m4e14d46fd6" x="549.243196" y="321.587802" style="fill: #262626; stroke: #262626; stroke-linejoin: miter"/>
     <use xlink:href="#m4e14d46fd6" x="549.243196" y="313.687266" style="fill: #262626; stroke: #262626; stroke-linejoin: miter"/>
     <use xlink:href="#m4e14d46fd6" x="549.243196" y="315.56249" style="fill: #262626; stroke: #262626; stroke-linejoin: miter"/>
     <use xlink:href="#m4e14d46fd6" x="549.243196" y="320.142957" style="fill: #262626; stroke: #262626; stroke-linejoin: miter"/>
     <use xlink:href="#m4e14d46fd6" x="549.243196" y="316.776775" style="fill: #262626; stroke: #262626; stroke-linejoin: miter"/>
    </g>
   </g>
   <g id="line2d_106">
    <path d="M 579.500054 460.599738 
L 579.500054 472.721681 
" clip-path="url(#pd68dfa1079)" style="fill: none; stroke: #262626; stroke-linecap: square"/>
   </g>
   <g id="line2d_107">
    <path d="M 579.500054 303.114534 
L 579.500054 156.579105 
" clip-path="url(#pd68dfa1079)" style="fill: none; stroke: #262626; stroke-linecap: square"/>
   </g>
   <g id="line2d_108">
    <path d="M 575.264094 472.721681 
L 583.736014 472.721681 
" clip-path="url(#pd68dfa1079)" style="fill: none; stroke: #262626; stroke-linecap: square"/>
   </g>
   <g id="line2d_109">
    <path d="M 575.264094 156.579105 
L 583.736014 156.579105 
" clip-path="url(#pd68dfa1079)" style="fill: none; stroke: #262626; stroke-linecap: square"/>
   </g>
   <g id="line2d_110"/>
   <g id="line2d_111">
    <path d="M 596.789688 288.741168 
L 596.789688 351.130582 
" clip-path="url(#pd68dfa1079)" style="fill: none; stroke: #262626; stroke-linecap: square"/>
   </g>
   <g id="line2d_112">
    <path d="M 596.789688 181.151771 
L 596.789688 168.329385 
" clip-path="url(#pd68dfa1079)" style="fill: none; stroke: #262626; stroke-linecap: square"/>
   </g>
   <g id="line2d_113">
    <path d="M 592.553727 351.130582 
L 601.025648 351.130582 
" clip-path="url(#pd68dfa1079)" style="fill: none; stroke: #262626; stroke-linecap: square"/>
   </g>
   <g id="line2d_114">
    <path d="M 592.553727 168.329385 
L 601.025648 168.329385 
" clip-path="url(#pd68dfa1079)" style="fill: none; stroke: #262626; stroke-linecap: square"/>
   </g>
   <g id="line2d_115"/>
   <g id="line2d_116">
    <path d="M 614.079321 304.45824 
L 614.079321 356.705532 
" clip-path="url(#pd68dfa1079)" style="fill: none; stroke: #262626; stroke-linecap: square"/>
   </g>
   <g id="line2d_117">
    <path d="M 614.079321 244.749091 
L 614.079321 196.775927 
" clip-path="url(#pd68dfa1079)" style="fill: none; stroke: #262626; stroke-linecap: square"/>
   </g>
   <g id="line2d_118">
    <path d="M 609.843361 356.705532 
L 618.315281 356.705532 
" clip-path="url(#pd68dfa1079)" style="fill: none; stroke: #262626; stroke-linecap: square"/>
   </g>
   <g id="line2d_119">
    <path d="M 609.843361 196.775927 
L 618.315281 196.775927 
" clip-path="url(#pd68dfa1079)" style="fill: none; stroke: #262626; stroke-linecap: square"/>
   </g>
   <g id="line2d_120"/>
   <g id="line2d_121">
    <path d="M 644.336179 188.127914 
L 644.336179 194.641245 
" clip-path="url(#pd68dfa1079)" style="fill: none; stroke: #262626; stroke-linecap: square"/>
   </g>
   <g id="line2d_122">
    <path d="M 644.336179 135.221988 
L 644.336179 80.021985 
" clip-path="url(#pd68dfa1079)" style="fill: none; stroke: #262626; stroke-linecap: square"/>
   </g>
   <g id="line2d_123">
    <path d="M 640.100219 194.641245 
L 648.572139 194.641245 
" clip-path="url(#pd68dfa1079)" style="fill: none; stroke: #262626; stroke-linecap: square"/>
   </g>
   <g id="line2d_124">
    <path d="M 640.100219 80.021985 
L 648.572139 80.021985 
" clip-path="url(#pd68dfa1079)" style="fill: none; stroke: #262626; stroke-linecap: square"/>
   </g>
   <g id="line2d_125"/>
   <g id="line2d_126">
    <path d="M 661.625813 119.743699 
L 661.625813 133.34292 
" clip-path="url(#pd68dfa1079)" style="fill: none; stroke: #262626; stroke-linecap: square"/>
   </g>
   <g id="line2d_127">
    <path d="M 661.625813 89.809274 
L 661.625813 82.235365 
" clip-path="url(#pd68dfa1079)" style="fill: none; stroke: #262626; stroke-linecap: square"/>
   </g>
   <g id="line2d_128">
    <path d="M 657.389852 133.34292 
L 665.861773 133.34292 
" clip-path="url(#pd68dfa1079)" style="fill: none; stroke: #262626; stroke-linecap: square"/>
   </g>
   <g id="line2d_129">
    <path d="M 657.389852 82.235365 
L 665.861773 82.235365 
" clip-path="url(#pd68dfa1079)" style="fill: none; stroke: #262626; stroke-linecap: square"/>
   </g>
   <g id="line2d_130"/>
   <g id="line2d_131">
    <path d="M 678.915446 136.916607 
L 678.915446 154.508365 
" clip-path="url(#pd68dfa1079)" style="fill: none; stroke: #262626; stroke-linecap: square"/>
   </g>
   <g id="line2d_132">
    <path d="M 678.915446 112.999808 
L 678.915446 96.791412 
" clip-path="url(#pd68dfa1079)" style="fill: none; stroke: #262626; stroke-linecap: square"/>
   </g>
   <g id="line2d_133">
    <path d="M 674.679486 154.508365 
L 683.151406 154.508365 
" clip-path="url(#pd68dfa1079)" style="fill: none; stroke: #262626; stroke-linecap: square"/>
   </g>
   <g id="line2d_134">
    <path d="M 674.679486 96.791412 
L 683.151406 96.791412 
" clip-path="url(#pd68dfa1079)" style="fill: none; stroke: #262626; stroke-linecap: square"/>
   </g>
   <g id="line2d_135"/>
   <g id="line2d_136">
    <path d="M 709.172304 296.341438 
L 709.172304 302.128504 
" clip-path="url(#pd68dfa1079)" style="fill: none; stroke: #262626; stroke-linecap: square"/>
   </g>
   <g id="line2d_137">
    <path d="M 709.172304 239.189357 
L 709.172304 239.093291 
" clip-path="url(#pd68dfa1079)" style="fill: none; stroke: #262626; stroke-linecap: square"/>
   </g>
   <g id="line2d_138">
    <path d="M 704.936344 302.128504 
L 713.408264 302.128504 
" clip-path="url(#pd68dfa1079)" style="fill: none; stroke: #262626; stroke-linecap: square"/>
   </g>
   <g id="line2d_139">
    <path d="M 704.936344 239.093291 
L 713.408264 239.093291 
" clip-path="url(#pd68dfa1079)" style="fill: none; stroke: #262626; stroke-linecap: square"/>
   </g>
   <g id="line2d_140">
    <g clip-path="url(#pd68dfa1079)">
     <use xlink:href="#m4e14d46fd6" x="709.172304" y="132.89717" style="fill: #262626; stroke: #262626; stroke-linejoin: miter"/>
     <use xlink:href="#m4e14d46fd6" x="709.172304" y="129.254316" style="fill: #262626; stroke: #262626; stroke-linejoin: miter"/>
    </g>
   </g>
   <g id="line2d_141">
    <path d="M 726.461938 180.584746 
L 726.461938 205.462214 
" clip-path="url(#pd68dfa1079)" style="fill: none; stroke: #262626; stroke-linecap: square"/>
   </g>
   <g id="line2d_142">
    <path d="M 726.461938 140.382698 
L 726.461938 132.313084 
" clip-path="url(#pd68dfa1079)" style="fill: none; stroke: #262626; stroke-linecap: square"/>
   </g>
   <g id="line2d_143">
    <path d="M 722.225977 205.462214 
L 730.697898 205.462214 
" clip-path="url(#pd68dfa1079)" style="fill: none; stroke: #262626; stroke-linecap: square"/>
   </g>
   <g id="line2d_144">
    <path d="M 722.225977 132.313084 
L 730.697898 132.313084 
" clip-path="url(#pd68dfa1079)" style="fill: none; stroke: #262626; stroke-linecap: square"/>
   </g>
   <g id="line2d_145"/>
   <g id="line2d_146">
    <path d="M 743.751571 204.247929 
L 743.751571 228.610478 
" clip-path="url(#pd68dfa1079)" style="fill: none; stroke: #262626; stroke-linecap: square"/>
   </g>
   <g id="line2d_147">
    <path d="M 743.751571 179.631763 
L 743.751571 149.005657 
" clip-path="url(#pd68dfa1079)" style="fill: none; stroke: #262626; stroke-linecap: square"/>
   </g>
   <g id="line2d_148">
    <path d="M 739.515611 228.610478 
L 747.987531 228.610478 
" clip-path="url(#pd68dfa1079)" style="fill: none; stroke: #262626; stroke-linecap: square"/>
   </g>
   <g id="line2d_149">
    <path d="M 739.515611 149.005657 
L 747.987531 149.005657 
" clip-path="url(#pd68dfa1079)" style="fill: none; stroke: #262626; stroke-linecap: square"/>
   </g>
   <g id="line2d_150">
    <g clip-path="url(#pd68dfa1079)">
     <use xlink:href="#m4e14d46fd6" x="743.751571" y="142.427" style="fill: #262626; stroke: #262626; stroke-linejoin: miter"/>
    </g>
   </g>
   <g id="line2d_151">
    <path d="M 117.175259 401.142745 
L 134.1191 401.142745 
" clip-path="url(#pd68dfa1079)" style="fill: none; stroke: #262626; stroke-linecap: square"/>
   </g>
   <g id="line2d_152">
    <path d="M 134.464892 309.270036 
L 151.408733 309.270036 
" clip-path="url(#pd68dfa1079)" style="fill: none; stroke: #262626; stroke-linecap: square"/>
   </g>
   <g id="line2d_153">
    <path d="M 151.754526 356.773932 
L 168.698366 356.773932 
" clip-path="url(#pd68dfa1079)" style="fill: none; stroke: #262626; stroke-linecap: square"/>
   </g>
   <g id="line2d_154">
    <path d="M 182.011384 210.255487 
L 198.955225 210.255487 
" clip-path="url(#pd68dfa1079)" style="fill: none; stroke: #262626; stroke-linecap: square"/>
   </g>
   <g id="line2d_155">
    <path d="M 199.301017 141.287417 
L 216.244858 141.287417 
" clip-path="url(#pd68dfa1079)" style="fill: none; stroke: #262626; stroke-linecap: square"/>
   </g>
   <g id="line2d_156">
    <path d="M 216.590651 180.341121 
L 233.534491 180.341121 
" clip-path="url(#pd68dfa1079)" style="fill: none; stroke: #262626; stroke-linecap: square"/>
   </g>
   <g id="line2d_157">
    <path d="M 246.847509 366.785326 
L 263.79135 366.785326 
" clip-path="url(#pd68dfa1079)" style="fill: none; stroke: #262626; stroke-linecap: square"/>
   </g>
   <g id="line2d_158">
    <path d="M 264.137142 353.097723 
L 281.080983 353.097723 
" clip-path="url(#pd68dfa1079)" style="fill: none; stroke: #262626; stroke-linecap: square"/>
   </g>
   <g id="line2d_159">
    <path d="M 281.426776 360.613992 
L 298.370616 360.613992 
" clip-path="url(#pd68dfa1079)" style="fill: none; stroke: #262626; stroke-linecap: square"/>
   </g>
   <g id="line2d_160">
    <path d="M 311.683634 416.237073 
L 328.627475 416.237073 
" clip-path="url(#pd68dfa1079)" style="fill: none; stroke: #262626; stroke-linecap: square"/>
   </g>
   <g id="line2d_161">
    <path d="M 328.973267 231.295507 
L 345.917108 231.295507 
" clip-path="url(#pd68dfa1079)" style="fill: none; stroke: #262626; stroke-linecap: square"/>
   </g>
   <g id="line2d_162">
    <path d="M 346.262901 277.873857 
L 363.206741 277.873857 
" clip-path="url(#pd68dfa1079)" style="fill: none; stroke: #262626; stroke-linecap: square"/>
   </g>
   <g id="line2d_163">
    <path d="M 376.519759 277.456774 
L 393.4636 277.456774 
" clip-path="url(#pd68dfa1079)" style="fill: none; stroke: #262626; stroke-linecap: square"/>
   </g>
   <g id="line2d_164">
    <path d="M 393.809392 258.409795 
L 410.753233 258.409795 
" clip-path="url(#pd68dfa1079)" style="fill: none; stroke: #262626; stroke-linecap: square"/>
   </g>
   <g id="line2d_165">
    <path d="M 411.099026 275.734718 
L 428.042866 275.734718 
" clip-path="url(#pd68dfa1079)" style="fill: none; stroke: #262626; stroke-linecap: square"/>
   </g>
   <g id="line2d_166">
    <path d="M 441.355884 268.774714 
L 458.299725 268.774714 
" clip-path="url(#pd68dfa1079)" style="fill: none; stroke: #262626; stroke-linecap: square"/>
   </g>
   <g id="line2d_167">
    <path d="M 458.645517 244.69806 
L 475.589358 244.69806 
" clip-path="url(#pd68dfa1079)" style="fill: none; stroke: #262626; stroke-linecap: square"/>
   </g>
   <g id="line2d_168">
    <path d="M 475.935151 258.947923 
L 492.878991 258.947923 
" clip-path="url(#pd68dfa1079)" style="fill: none; stroke: #262626; stroke-linecap: square"/>
   </g>
   <g id="line2d_169">
    <path d="M 506.192009 449.003164 
L 523.13585 449.003164 
" clip-path="url(#pd68dfa1079)" style="fill: none; stroke: #262626; stroke-linecap: square"/>
   </g>
   <g id="line2d_170">
    <path d="M 523.481642 348.209843 
L 540.425483 348.209843 
" clip-path="url(#pd68dfa1079)" style="fill: none; stroke: #262626; stroke-linecap: square"/>
   </g>
   <g id="line2d_171">
    <path d="M 540.771276 350.884343 
L 557.715116 350.884343 
" clip-path="url(#pd68dfa1079)" style="fill: none; stroke: #262626; stroke-linecap: square"/>
   </g>
   <g id="line2d_172">
    <path d="M 571.028134 406.079581 
L 587.971975 406.079581 
" clip-path="url(#pd68dfa1079)" style="fill: none; stroke: #262626; stroke-linecap: square"/>
   </g>
   <g id="line2d_173">
    <path d="M 588.317767 201.335951 
L 605.261608 201.335951 
" clip-path="url(#pd68dfa1079)" style="fill: none; stroke: #262626; stroke-linecap: square"/>
   </g>
   <g id="line2d_174">
    <path d="M 605.607401 285.460524 
L 622.551241 285.460524 
" clip-path="url(#pd68dfa1079)" style="fill: none; stroke: #262626; stroke-linecap: square"/>
   </g>
   <g id="line2d_175">
    <path d="M 635.864259 174.221279 
L 652.8081 174.221279 
" clip-path="url(#pd68dfa1079)" style="fill: none; stroke: #262626; stroke-linecap: square"/>
   </g>
   <g id="line2d_176">
    <path d="M 653.153892 96.952804 
L 670.097733 96.952804 
" clip-path="url(#pd68dfa1079)" style="fill: none; stroke: #262626; stroke-linecap: square"/>
   </g>
   <g id="line2d_177">
    <path d="M 670.443526 125.642203 
L 687.387366 125.642203 
" clip-path="url(#pd68dfa1079)" style="fill: none; stroke: #262626; stroke-linecap: square"/>
   </g>
   <g id="line2d_178">
    <path d="M 700.700384 280.194525 
L 717.644225 280.194525 
" clip-path="url(#pd68dfa1079)" style="fill: none; stroke: #262626; stroke-linecap: square"/>
   </g>
   <g id="line2d_179">
    <path d="M 717.990017 146.292729 
L 734.933858 146.292729 
" clip-path="url(#pd68dfa1079)" style="fill: none; stroke: #262626; stroke-linecap: square"/>
   </g>
   <g id="line2d_180">
    <path d="M 735.279651 193.918823 
L 752.223491 193.918823 
" clip-path="url(#pd68dfa1079)" style="fill: none; stroke: #262626; stroke-linecap: square"/>
   </g>
   <g id="patch_36">
    <path d="M 110.51875 517.625625 
L 110.51875 25.763437 
" style="fill: none; stroke: #000000; stroke-linejoin: miter; stroke-linecap: square"/>
   </g>
   <g id="patch_37">
    <path d="M 758.88 517.625625 
L 758.88 25.763437 
" style="fill: none; stroke: #000000; stroke-linejoin: miter; stroke-linecap: square"/>
   </g>
   <g id="patch_38">
    <path d="M 110.51875 517.625625 
L 758.88 517.625625 
" style="fill: none; stroke: #000000; stroke-linejoin: miter; stroke-linecap: square"/>
   </g>
   <g id="patch_39">
    <path d="M 110.51875 25.763437 
L 758.88 25.763437 
" style="fill: none; stroke: #000000; stroke-linejoin: miter; stroke-linecap: square"/>
   </g>
   <g id="matplotlib.axis_1">
    <g id="xtick_1">
     <g id="line2d_181">
      <defs>
       <path id="m7a94df3f76" d="M 0 0 
L 0 -4 
" style="stroke: #000000; stroke-width: 0.5"/>
      </defs>
      <g>
       <use xlink:href="#m7a94df3f76" x="142.936813" y="517.625625" style="stroke: #000000; stroke-width: 0.5"/>
      </g>
     </g>
     <g id="line2d_182">
      <defs>
       <path id="m2f7c7ad3be" d="M 0 0 
L 0 4 
" style="stroke: #000000; stroke-width: 0.5"/>
      </defs>
      <g>
       <use xlink:href="#m2f7c7ad3be" x="142.936813" y="25.763437" style="stroke: #000000; stroke-width: 0.5"/>
      </g>
     </g>
     <g id="text_1">
      <!-- S1 -->
      <g transform="translate(125.813063 541.6675)scale(0.28 -0.28)">
       <defs>
        <path id="ArialMT-53" d="M 288 1472 
L 859 1522 
Q 900 1178 1048 958 
Q 1197 738 1509 602 
Q 1822 466 2213 466 
Q 2559 466 2825 569 
Q 3091 672 3220 851 
Q 3350 1031 3350 1244 
Q 3350 1459 3225 1620 
Q 3100 1781 2813 1891 
Q 2628 1963 1997 2114 
Q 1366 2266 1113 2400 
Q 784 2572 623 2826 
Q 463 3081 463 3397 
Q 463 3744 659 4045 
Q 856 4347 1234 4503 
Q 1613 4659 2075 4659 
Q 2584 4659 2973 4495 
Q 3363 4331 3572 4012 
Q 3781 3694 3797 3291 
L 3216 3247 
Q 3169 3681 2898 3903 
Q 2628 4125 2100 4125 
Q 1550 4125 1298 3923 
Q 1047 3722 1047 3438 
Q 1047 3191 1225 3031 
Q 1400 2872 2139 2705 
Q 2878 2538 3153 2413 
Q 3553 2228 3743 1945 
Q 3934 1663 3934 1294 
Q 3934 928 3725 604 
Q 3516 281 3123 101 
Q 2731 -78 2241 -78 
Q 1619 -78 1198 103 
Q 778 284 539 648 
Q 300 1013 288 1472 
z
" transform="scale(0.015625)"/>
        <path id="ArialMT-31" d="M 2384 0 
L 1822 0 
L 1822 3584 
Q 1619 3391 1289 3197 
Q 959 3003 697 2906 
L 697 3450 
Q 1169 3672 1522 3987 
Q 1875 4303 2022 4600 
L 2384 4600 
L 2384 0 
z
" transform="scale(0.015625)"/>
       </defs>
       <use xlink:href="#ArialMT-53"/>
       <use xlink:href="#ArialMT-31" x="66.699219"/>
      </g>
     </g>
    </g>
    <g id="xtick_2">
     <g id="line2d_183">
      <g>
       <use xlink:href="#m7a94df3f76" x="207.772938" y="517.625625" style="stroke: #000000; stroke-width: 0.5"/>
      </g>
     </g>
     <g id="line2d_184">
      <g>
       <use xlink:href="#m2f7c7ad3be" x="207.772938" y="25.763437" style="stroke: #000000; stroke-width: 0.5"/>
      </g>
     </g>
     <g id="text_2">
      <!-- S2 -->
      <g transform="translate(190.649188 541.6675)scale(0.28 -0.28)">
       <defs>
        <path id="ArialMT-32" d="M 3222 541 
L 3222 0 
L 194 0 
Q 188 203 259 391 
Q 375 700 629 1000 
Q 884 1300 1366 1694 
Q 2113 2306 2375 2664 
Q 2638 3022 2638 3341 
Q 2638 3675 2398 3904 
Q 2159 4134 1775 4134 
Q 1369 4134 1125 3890 
Q 881 3647 878 3216 
L 300 3275 
Q 359 3922 746 4261 
Q 1134 4600 1788 4600 
Q 2447 4600 2831 4234 
Q 3216 3869 3216 3328 
Q 3216 3053 3103 2787 
Q 2991 2522 2730 2228 
Q 2469 1934 1863 1422 
Q 1356 997 1212 845 
Q 1069 694 975 541 
L 3222 541 
z
" transform="scale(0.015625)"/>
       </defs>
       <use xlink:href="#ArialMT-53"/>
       <use xlink:href="#ArialMT-32" x="66.699219"/>
      </g>
     </g>
    </g>
    <g id="xtick_3">
     <g id="line2d_185">
      <g>
       <use xlink:href="#m7a94df3f76" x="272.609063" y="517.625625" style="stroke: #000000; stroke-width: 0.5"/>
      </g>
     </g>
     <g id="line2d_186">
      <g>
       <use xlink:href="#m2f7c7ad3be" x="272.609063" y="25.763437" style="stroke: #000000; stroke-width: 0.5"/>
      </g>
     </g>
     <g id="text_3">
      <!-- S3 -->
      <g transform="translate(255.485313 541.6675)scale(0.28 -0.28)">
       <defs>
        <path id="ArialMT-33" d="M 269 1209 
L 831 1284 
Q 928 806 1161 595 
Q 1394 384 1728 384 
Q 2125 384 2398 659 
Q 2672 934 2672 1341 
Q 2672 1728 2419 1979 
Q 2166 2231 1775 2231 
Q 1616 2231 1378 2169 
L 1441 2663 
Q 1497 2656 1531 2656 
Q 1891 2656 2178 2843 
Q 2466 3031 2466 3422 
Q 2466 3731 2256 3934 
Q 2047 4138 1716 4138 
Q 1388 4138 1169 3931 
Q 950 3725 888 3313 
L 325 3413 
Q 428 3978 793 4289 
Q 1159 4600 1703 4600 
Q 2078 4600 2393 4439 
Q 2709 4278 2876 4000 
Q 3044 3722 3044 3409 
Q 3044 3113 2884 2869 
Q 2725 2625 2413 2481 
Q 2819 2388 3044 2092 
Q 3269 1797 3269 1353 
Q 3269 753 2831 336 
Q 2394 -81 1725 -81 
Q 1122 -81 723 278 
Q 325 638 269 1209 
z
" transform="scale(0.015625)"/>
       </defs>
       <use xlink:href="#ArialMT-53"/>
       <use xlink:href="#ArialMT-33" x="66.699219"/>
      </g>
     </g>
    </g>
    <g id="xtick_4">
     <g id="line2d_187">
      <g>
       <use xlink:href="#m7a94df3f76" x="337.445188" y="517.625625" style="stroke: #000000; stroke-width: 0.5"/>
      </g>
     </g>
     <g id="line2d_188">
      <g>
       <use xlink:href="#m2f7c7ad3be" x="337.445188" y="25.763437" style="stroke: #000000; stroke-width: 0.5"/>
      </g>
     </g>
     <g id="text_4">
      <!-- S4 -->
      <g transform="translate(320.321438 541.6675)scale(0.28 -0.28)">
       <defs>
        <path id="ArialMT-34" d="M 2069 0 
L 2069 1097 
L 81 1097 
L 81 1613 
L 2172 4581 
L 2631 4581 
L 2631 1613 
L 3250 1613 
L 3250 1097 
L 2631 1097 
L 2631 0 
L 2069 0 
z
M 2069 1613 
L 2069 3678 
L 634 1613 
L 2069 1613 
z
" transform="scale(0.015625)"/>
       </defs>
       <use xlink:href="#ArialMT-53"/>
       <use xlink:href="#ArialMT-34" x="66.699219"/>
      </g>
     </g>
    </g>
    <g id="xtick_5">
     <g id="line2d_189">
      <g>
       <use xlink:href="#m7a94df3f76" x="402.281313" y="517.625625" style="stroke: #000000; stroke-width: 0.5"/>
      </g>
     </g>
     <g id="line2d_190">
      <g>
       <use xlink:href="#m2f7c7ad3be" x="402.281313" y="25.763437" style="stroke: #000000; stroke-width: 0.5"/>
      </g>
     </g>
     <g id="text_5">
      <!-- S5 -->
      <g transform="translate(385.157563 541.6675)scale(0.28 -0.28)">
       <defs>
        <path id="ArialMT-35" d="M 266 1200 
L 856 1250 
Q 922 819 1161 601 
Q 1400 384 1738 384 
Q 2144 384 2425 690 
Q 2706 997 2706 1503 
Q 2706 1984 2436 2262 
Q 2166 2541 1728 2541 
Q 1456 2541 1237 2417 
Q 1019 2294 894 2097 
L 366 2166 
L 809 4519 
L 3088 4519 
L 3088 3981 
L 1259 3981 
L 1013 2750 
Q 1425 3038 1878 3038 
Q 2478 3038 2890 2622 
Q 3303 2206 3303 1553 
Q 3303 931 2941 478 
Q 2500 -78 1738 -78 
Q 1113 -78 717 272 
Q 322 622 266 1200 
z
" transform="scale(0.015625)"/>
       </defs>
       <use xlink:href="#ArialMT-53"/>
       <use xlink:href="#ArialMT-35" x="66.699219"/>
      </g>
     </g>
    </g>
    <g id="xtick_6">
     <g id="line2d_191">
      <g>
       <use xlink:href="#m7a94df3f76" x="467.117438" y="517.625625" style="stroke: #000000; stroke-width: 0.5"/>
      </g>
     </g>
     <g id="line2d_192">
      <g>
       <use xlink:href="#m2f7c7ad3be" x="467.117438" y="25.763437" style="stroke: #000000; stroke-width: 0.5"/>
      </g>
     </g>
     <g id="text_6">
      <!-- S6 -->
      <g transform="translate(449.993688 541.6675)scale(0.28 -0.28)">
       <defs>
        <path id="ArialMT-36" d="M 3184 3459 
L 2625 3416 
Q 2550 3747 2413 3897 
Q 2184 4138 1850 4138 
Q 1581 4138 1378 3988 
Q 1113 3794 959 3422 
Q 806 3050 800 2363 
Q 1003 2672 1297 2822 
Q 1591 2972 1913 2972 
Q 2475 2972 2870 2558 
Q 3266 2144 3266 1488 
Q 3266 1056 3080 686 
Q 2894 316 2569 119 
Q 2244 -78 1831 -78 
Q 1128 -78 684 439 
Q 241 956 241 2144 
Q 241 3472 731 4075 
Q 1159 4600 1884 4600 
Q 2425 4600 2770 4297 
Q 3116 3994 3184 3459 
z
M 888 1484 
Q 888 1194 1011 928 
Q 1134 663 1356 523 
Q 1578 384 1822 384 
Q 2178 384 2434 671 
Q 2691 959 2691 1453 
Q 2691 1928 2437 2201 
Q 2184 2475 1800 2475 
Q 1419 2475 1153 2201 
Q 888 1928 888 1484 
z
" transform="scale(0.015625)"/>
       </defs>
       <use xlink:href="#ArialMT-53"/>
       <use xlink:href="#ArialMT-36" x="66.699219"/>
      </g>
     </g>
    </g>
    <g id="xtick_7">
     <g id="line2d_193">
      <g>
       <use xlink:href="#m7a94df3f76" x="531.953563" y="517.625625" style="stroke: #000000; stroke-width: 0.5"/>
      </g>
     </g>
     <g id="line2d_194">
      <g>
       <use xlink:href="#m2f7c7ad3be" x="531.953563" y="25.763437" style="stroke: #000000; stroke-width: 0.5"/>
      </g>
     </g>
     <g id="text_7">
      <!-- S7 -->
      <g transform="translate(514.829813 541.6675)scale(0.28 -0.28)">
       <defs>
        <path id="ArialMT-37" d="M 303 3981 
L 303 4522 
L 3269 4522 
L 3269 4084 
Q 2831 3619 2401 2847 
Q 1972 2075 1738 1259 
Q 1569 684 1522 0 
L 944 0 
Q 953 541 1156 1306 
Q 1359 2072 1739 2783 
Q 2119 3494 2547 3981 
L 303 3981 
z
" transform="scale(0.015625)"/>
       </defs>
       <use xlink:href="#ArialMT-53"/>
       <use xlink:href="#ArialMT-37" x="66.699219"/>
      </g>
     </g>
    </g>
    <g id="xtick_8">
     <g id="line2d_195">
      <g>
       <use xlink:href="#m7a94df3f76" x="596.789688" y="517.625625" style="stroke: #000000; stroke-width: 0.5"/>
      </g>
     </g>
     <g id="line2d_196">
      <g>
       <use xlink:href="#m2f7c7ad3be" x="596.789688" y="25.763437" style="stroke: #000000; stroke-width: 0.5"/>
      </g>
     </g>
     <g id="text_8">
      <!-- S8 -->
      <g transform="translate(579.665938 541.6675)scale(0.28 -0.28)">
       <defs>
        <path id="ArialMT-38" d="M 1131 2484 
Q 781 2613 612 2850 
Q 444 3088 444 3419 
Q 444 3919 803 4259 
Q 1163 4600 1759 4600 
Q 2359 4600 2725 4251 
Q 3091 3903 3091 3403 
Q 3091 3084 2923 2848 
Q 2756 2613 2416 2484 
Q 2838 2347 3058 2040 
Q 3278 1734 3278 1309 
Q 3278 722 2862 322 
Q 2447 -78 1769 -78 
Q 1091 -78 675 323 
Q 259 725 259 1325 
Q 259 1772 486 2073 
Q 713 2375 1131 2484 
z
M 1019 3438 
Q 1019 3113 1228 2906 
Q 1438 2700 1772 2700 
Q 2097 2700 2305 2904 
Q 2513 3109 2513 3406 
Q 2513 3716 2298 3927 
Q 2084 4138 1766 4138 
Q 1444 4138 1231 3931 
Q 1019 3725 1019 3438 
z
M 838 1322 
Q 838 1081 952 856 
Q 1066 631 1291 507 
Q 1516 384 1775 384 
Q 2178 384 2440 643 
Q 2703 903 2703 1303 
Q 2703 1709 2433 1975 
Q 2163 2241 1756 2241 
Q 1359 2241 1098 1978 
Q 838 1716 838 1322 
z
" transform="scale(0.015625)"/>
       </defs>
       <use xlink:href="#ArialMT-53"/>
       <use xlink:href="#ArialMT-38" x="66.699219"/>
      </g>
     </g>
    </g>
    <g id="xtick_9">
     <g id="line2d_197">
      <g>
       <use xlink:href="#m7a94df3f76" x="661.625813" y="517.625625" style="stroke: #000000; stroke-width: 0.5"/>
      </g>
     </g>
     <g id="line2d_198">
      <g>
       <use xlink:href="#m2f7c7ad3be" x="661.625813" y="25.763437" style="stroke: #000000; stroke-width: 0.5"/>
      </g>
     </g>
     <g id="text_9">
      <!-- S9 -->
      <g transform="translate(644.502063 541.6675)scale(0.28 -0.28)">
       <defs>
        <path id="ArialMT-39" d="M 350 1059 
L 891 1109 
Q 959 728 1153 556 
Q 1347 384 1650 384 
Q 1909 384 2104 503 
Q 2300 622 2425 820 
Q 2550 1019 2634 1356 
Q 2719 1694 2719 2044 
Q 2719 2081 2716 2156 
Q 2547 1888 2255 1720 
Q 1963 1553 1622 1553 
Q 1053 1553 659 1965 
Q 266 2378 266 3053 
Q 266 3750 677 4175 
Q 1088 4600 1706 4600 
Q 2153 4600 2523 4359 
Q 2894 4119 3086 3673 
Q 3278 3228 3278 2384 
Q 3278 1506 3087 986 
Q 2897 466 2520 194 
Q 2144 -78 1638 -78 
Q 1100 -78 759 220 
Q 419 519 350 1059 
z
M 2653 3081 
Q 2653 3566 2395 3850 
Q 2138 4134 1775 4134 
Q 1400 4134 1122 3828 
Q 844 3522 844 3034 
Q 844 2597 1108 2323 
Q 1372 2050 1759 2050 
Q 2150 2050 2401 2323 
Q 2653 2597 2653 3081 
z
" transform="scale(0.015625)"/>
       </defs>
       <use xlink:href="#ArialMT-53"/>
       <use xlink:href="#ArialMT-39" x="66.699219"/>
      </g>
     </g>
    </g>
    <g id="xtick_10">
     <g id="line2d_199">
      <g>
       <use xlink:href="#m7a94df3f76" x="726.461938" y="517.625625" style="stroke: #000000; stroke-width: 0.5"/>
      </g>
     </g>
     <g id="line2d_200">
      <g>
       <use xlink:href="#m2f7c7ad3be" x="726.461938" y="25.763437" style="stroke: #000000; stroke-width: 0.5"/>
      </g>
     </g>
     <g id="text_10">
      <!-- S10 -->
      <g transform="translate(701.552875 541.6675)scale(0.28 -0.28)">
       <defs>
        <path id="ArialMT-30" d="M 266 2259 
Q 266 3072 433 3567 
Q 600 4063 929 4331 
Q 1259 4600 1759 4600 
Q 2128 4600 2406 4451 
Q 2684 4303 2865 4023 
Q 3047 3744 3150 3342 
Q 3253 2941 3253 2259 
Q 3253 1453 3087 958 
Q 2922 463 2592 192 
Q 2263 -78 1759 -78 
Q 1097 -78 719 397 
Q 266 969 266 2259 
z
M 844 2259 
Q 844 1131 1108 757 
Q 1372 384 1759 384 
Q 2147 384 2411 759 
Q 2675 1134 2675 2259 
Q 2675 3391 2411 3762 
Q 2147 4134 1753 4134 
Q 1366 4134 1134 3806 
Q 844 3388 844 2259 
z
" transform="scale(0.015625)"/>
       </defs>
       <use xlink:href="#ArialMT-53"/>
       <use xlink:href="#ArialMT-31" x="66.699219"/>
       <use xlink:href="#ArialMT-30" x="122.314453"/>
      </g>
     </g>
    </g>
    <g id="text_11">
     <!-- Sensor -->
     <g transform="translate(387.239375 572.274375)scale(0.28 -0.28)">
      <defs>
       <path id="Arial-BoldMT-53" d="M 231 1491 
L 1131 1578 
Q 1213 1125 1461 912 
Q 1709 700 2131 700 
Q 2578 700 2804 889 
Q 3031 1078 3031 1331 
Q 3031 1494 2936 1608 
Q 2841 1722 2603 1806 
Q 2441 1863 1863 2006 
Q 1119 2191 819 2459 
Q 397 2838 397 3381 
Q 397 3731 595 4036 
Q 794 4341 1167 4500 
Q 1541 4659 2069 4659 
Q 2931 4659 3367 4281 
Q 3803 3903 3825 3272 
L 2900 3231 
Q 2841 3584 2645 3739 
Q 2450 3894 2059 3894 
Q 1656 3894 1428 3728 
Q 1281 3622 1281 3444 
Q 1281 3281 1419 3166 
Q 1594 3019 2269 2859 
Q 2944 2700 3267 2529 
Q 3591 2359 3773 2064 
Q 3956 1769 3956 1334 
Q 3956 941 3737 597 
Q 3519 253 3119 86 
Q 2719 -81 2122 -81 
Q 1253 -81 787 320 
Q 322 722 231 1491 
z
" transform="scale(0.015625)"/>
       <path id="Arial-BoldMT-65" d="M 2381 1056 
L 3256 909 
Q 3088 428 2723 176 
Q 2359 -75 1813 -75 
Q 947 -75 531 491 
Q 203 944 203 1634 
Q 203 2459 634 2926 
Q 1066 3394 1725 3394 
Q 2466 3394 2894 2905 
Q 3322 2416 3303 1406 
L 1103 1406 
Q 1113 1016 1316 798 
Q 1519 581 1822 581 
Q 2028 581 2168 693 
Q 2309 806 2381 1056 
z
M 2431 1944 
Q 2422 2325 2234 2523 
Q 2047 2722 1778 2722 
Q 1491 2722 1303 2513 
Q 1116 2303 1119 1944 
L 2431 1944 
z
" transform="scale(0.015625)"/>
       <path id="Arial-BoldMT-6e" d="M 3478 0 
L 2600 0 
L 2600 1694 
Q 2600 2231 2544 2389 
Q 2488 2547 2361 2634 
Q 2234 2722 2056 2722 
Q 1828 2722 1647 2597 
Q 1466 2472 1398 2265 
Q 1331 2059 1331 1503 
L 1331 0 
L 453 0 
L 453 3319 
L 1269 3319 
L 1269 2831 
Q 1703 3394 2363 3394 
Q 2653 3394 2893 3289 
Q 3134 3184 3257 3021 
Q 3381 2859 3429 2653 
Q 3478 2447 3478 2063 
L 3478 0 
z
" transform="scale(0.015625)"/>
       <path id="Arial-BoldMT-73" d="M 150 947 
L 1031 1081 
Q 1088 825 1259 692 
Q 1431 559 1741 559 
Q 2081 559 2253 684 
Q 2369 772 2369 919 
Q 2369 1019 2306 1084 
Q 2241 1147 2013 1200 
Q 950 1434 666 1628 
Q 272 1897 272 2375 
Q 272 2806 612 3100 
Q 953 3394 1669 3394 
Q 2350 3394 2681 3172 
Q 3013 2950 3138 2516 
L 2309 2363 
Q 2256 2556 2107 2659 
Q 1959 2763 1684 2763 
Q 1338 2763 1188 2666 
Q 1088 2597 1088 2488 
Q 1088 2394 1175 2328 
Q 1294 2241 1995 2081 
Q 2697 1922 2975 1691 
Q 3250 1456 3250 1038 
Q 3250 581 2869 253 
Q 2488 -75 1741 -75 
Q 1063 -75 667 200 
Q 272 475 150 947 
z
" transform="scale(0.015625)"/>
       <path id="Arial-BoldMT-6f" d="M 256 1706 
Q 256 2144 472 2553 
Q 688 2963 1083 3178 
Q 1478 3394 1966 3394 
Q 2719 3394 3200 2905 
Q 3681 2416 3681 1669 
Q 3681 916 3195 420 
Q 2709 -75 1972 -75 
Q 1516 -75 1102 131 
Q 688 338 472 736 
Q 256 1134 256 1706 
z
M 1156 1659 
Q 1156 1166 1390 903 
Q 1625 641 1969 641 
Q 2313 641 2545 903 
Q 2778 1166 2778 1666 
Q 2778 2153 2545 2415 
Q 2313 2678 1969 2678 
Q 1625 2678 1390 2415 
Q 1156 2153 1156 1659 
z
" transform="scale(0.015625)"/>
       <path id="Arial-BoldMT-72" d="M 1300 0 
L 422 0 
L 422 3319 
L 1238 3319 
L 1238 2847 
Q 1447 3181 1614 3287 
Q 1781 3394 1994 3394 
Q 2294 3394 2572 3228 
L 2300 2463 
Q 2078 2606 1888 2606 
Q 1703 2606 1575 2504 
Q 1447 2403 1373 2137 
Q 1300 1872 1300 1025 
L 1300 0 
z
" transform="scale(0.015625)"/>
      </defs>
      <use xlink:href="#Arial-BoldMT-53"/>
      <use xlink:href="#Arial-BoldMT-65" x="66.699219"/>
      <use xlink:href="#Arial-BoldMT-6e" x="122.314453"/>
      <use xlink:href="#Arial-BoldMT-73" x="183.398438"/>
      <use xlink:href="#Arial-BoldMT-6f" x="239.013672"/>
      <use xlink:href="#Arial-BoldMT-72" x="300.097656"/>
     </g>
    </g>
   </g>
   <g id="matplotlib.axis_2">
    <g id="ytick_1">
     <g id="line2d_201">
      <defs>
       <path id="m0219cf7fb3" d="M 0 0 
L 4 0 
" style="stroke: #000000; stroke-width: 0.5"/>
      </defs>
      <g>
       <use xlink:href="#m0219cf7fb3" x="110.51875" y="517.625625" style="stroke: #000000; stroke-width: 0.5"/>
      </g>
     </g>
     <g id="line2d_202">
      <defs>
       <path id="m4ec85eeaa0" d="M 0 0 
L -4 0 
" style="stroke: #000000; stroke-width: 0.5"/>
      </defs>
      <g>
       <use xlink:href="#m4ec85eeaa0" x="758.88" y="517.625625" style="stroke: #000000; stroke-width: 0.5"/>
      </g>
     </g>
     <g id="text_12">
      <!-- 0 -->
      <g transform="translate(90.948125 524.864063)scale(0.28 -0.28)">
       <use xlink:href="#ArialMT-30"/>
      </g>
     </g>
    </g>
    <g id="ytick_2">
     <g id="line2d_203">
      <g>
       <use xlink:href="#m0219cf7fb3" x="110.51875" y="456.142852" style="stroke: #000000; stroke-width: 0.5"/>
      </g>
     </g>
     <g id="line2d_204">
      <g>
       <use xlink:href="#m4ec85eeaa0" x="758.88" y="456.142852" style="stroke: #000000; stroke-width: 0.5"/>
      </g>
     </g>
     <g id="text_13">
      <!-- 500 -->
      <g transform="translate(59.806875 463.381289)scale(0.28 -0.28)">
       <use xlink:href="#ArialMT-35"/>
       <use xlink:href="#ArialMT-30" x="55.615234"/>
       <use xlink:href="#ArialMT-30" x="111.230469"/>
      </g>
     </g>
    </g>
    <g id="ytick_3">
     <g id="line2d_205">
      <g>
       <use xlink:href="#m0219cf7fb3" x="110.51875" y="394.660078" style="stroke: #000000; stroke-width: 0.5"/>
      </g>
     </g>
     <g id="line2d_206">
      <g>
       <use xlink:href="#m4ec85eeaa0" x="758.88" y="394.660078" style="stroke: #000000; stroke-width: 0.5"/>
      </g>
     </g>
     <g id="text_14">
      <!-- 1000 -->
      <g transform="translate(44.23625 401.898516)scale(0.28 -0.28)">
       <use xlink:href="#ArialMT-31"/>
       <use xlink:href="#ArialMT-30" x="55.615234"/>
       <use xlink:href="#ArialMT-30" x="111.230469"/>
       <use xlink:href="#ArialMT-30" x="166.845703"/>
      </g>
     </g>
    </g>
    <g id="ytick_4">
     <g id="line2d_207">
      <g>
       <use xlink:href="#m0219cf7fb3" x="110.51875" y="333.177305" style="stroke: #000000; stroke-width: 0.5"/>
      </g>
     </g>
     <g id="line2d_208">
      <g>
       <use xlink:href="#m4ec85eeaa0" x="758.88" y="333.177305" style="stroke: #000000; stroke-width: 0.5"/>
      </g>
     </g>
     <g id="text_15">
      <!-- 1500 -->
      <g transform="translate(44.23625 340.415742)scale(0.28 -0.28)">
       <use xlink:href="#ArialMT-31"/>
       <use xlink:href="#ArialMT-35" x="55.615234"/>
       <use xlink:href="#ArialMT-30" x="111.230469"/>
       <use xlink:href="#ArialMT-30" x="166.845703"/>
      </g>
     </g>
    </g>
    <g id="ytick_5">
     <g id="line2d_209">
      <g>
       <use xlink:href="#m0219cf7fb3" x="110.51875" y="271.694531" style="stroke: #000000; stroke-width: 0.5"/>
      </g>
     </g>
     <g id="line2d_210">
      <g>
       <use xlink:href="#m4ec85eeaa0" x="758.88" y="271.694531" style="stroke: #000000; stroke-width: 0.5"/>
      </g>
     </g>
     <g id="text_16">
      <!-- 2000 -->
      <g transform="translate(44.23625 278.932969)scale(0.28 -0.28)">
       <use xlink:href="#ArialMT-32"/>
       <use xlink:href="#ArialMT-30" x="55.615234"/>
       <use xlink:href="#ArialMT-30" x="111.230469"/>
       <use xlink:href="#ArialMT-30" x="166.845703"/>
      </g>
     </g>
    </g>
    <g id="ytick_6">
     <g id="line2d_211">
      <g>
       <use xlink:href="#m0219cf7fb3" x="110.51875" y="210.211758" style="stroke: #000000; stroke-width: 0.5"/>
      </g>
     </g>
     <g id="line2d_212">
      <g>
       <use xlink:href="#m4ec85eeaa0" x="758.88" y="210.211758" style="stroke: #000000; stroke-width: 0.5"/>
      </g>
     </g>
     <g id="text_17">
      <!-- 2500 -->
      <g transform="translate(44.23625 217.450195)scale(0.28 -0.28)">
       <use xlink:href="#ArialMT-32"/>
       <use xlink:href="#ArialMT-35" x="55.615234"/>
       <use xlink:href="#ArialMT-30" x="111.230469"/>
       <use xlink:href="#ArialMT-30" x="166.845703"/>
      </g>
     </g>
    </g>
    <g id="ytick_7">
     <g id="line2d_213">
      <g>
       <use xlink:href="#m0219cf7fb3" x="110.51875" y="148.728984" style="stroke: #000000; stroke-width: 0.5"/>
      </g>
     </g>
     <g id="line2d_214">
      <g>
       <use xlink:href="#m4ec85eeaa0" x="758.88" y="148.728984" style="stroke: #000000; stroke-width: 0.5"/>
      </g>
     </g>
     <g id="text_18">
      <!-- 3000 -->
      <g transform="translate(44.23625 155.967422)scale(0.28 -0.28)">
       <use xlink:href="#ArialMT-33"/>
       <use xlink:href="#ArialMT-30" x="55.615234"/>
       <use xlink:href="#ArialMT-30" x="111.230469"/>
       <use xlink:href="#ArialMT-30" x="166.845703"/>
      </g>
     </g>
    </g>
    <g id="ytick_8">
     <g id="line2d_215">
      <g>
       <use xlink:href="#m0219cf7fb3" x="110.51875" y="87.246211" style="stroke: #000000; stroke-width: 0.5"/>
      </g>
     </g>
     <g id="line2d_216">
      <g>
       <use xlink:href="#m4ec85eeaa0" x="758.88" y="87.246211" style="stroke: #000000; stroke-width: 0.5"/>
      </g>
     </g>
     <g id="text_19">
      <!-- 3500 -->
      <g transform="translate(44.23625 94.484648)scale(0.28 -0.28)">
       <use xlink:href="#ArialMT-33"/>
       <use xlink:href="#ArialMT-35" x="55.615234"/>
       <use xlink:href="#ArialMT-30" x="111.230469"/>
       <use xlink:href="#ArialMT-30" x="166.845703"/>
      </g>
     </g>
    </g>
    <g id="ytick_9">
     <g id="line2d_217">
      <g>
       <use xlink:href="#m0219cf7fb3" x="110.51875" y="25.763437" style="stroke: #000000; stroke-width: 0.5"/>
      </g>
     </g>
     <g id="line2d_218">
      <g>
       <use xlink:href="#m4ec85eeaa0" x="758.88" y="25.763437" style="stroke: #000000; stroke-width: 0.5"/>
      </g>
     </g>
     <g id="text_20">
      <!-- 4000 -->
      <g transform="translate(44.23625 33.001875)scale(0.28 -0.28)">
       <use xlink:href="#ArialMT-34"/>
       <use xlink:href="#ArialMT-30" x="55.615234"/>
       <use xlink:href="#ArialMT-30" x="111.230469"/>
       <use xlink:href="#ArialMT-30" x="166.845703"/>
      </g>
     </g>
    </g>
    <g id="text_21">
     <!-- Baseline value (Rejected) in mV -->
     <g transform="translate(33.343125 482.534531)rotate(-90)scale(0.28 -0.28)">
      <defs>
       <path id="Arial-BoldMT-42" d="M 469 4581 
L 2300 4581 
Q 2844 4581 3111 4536 
Q 3378 4491 3589 4347 
Q 3800 4203 3940 3964 
Q 4081 3725 4081 3428 
Q 4081 3106 3907 2837 
Q 3734 2569 3438 2434 
Q 3856 2313 4081 2019 
Q 4306 1725 4306 1328 
Q 4306 1016 4161 720 
Q 4016 425 3764 248 
Q 3513 72 3144 31 
Q 2913 6 2028 0 
L 469 0 
L 469 4581 
z
M 1394 3819 
L 1394 2759 
L 2000 2759 
Q 2541 2759 2672 2775 
Q 2909 2803 3045 2939 
Q 3181 3075 3181 3297 
Q 3181 3509 3064 3642 
Q 2947 3775 2716 3803 
Q 2578 3819 1925 3819 
L 1394 3819 
z
M 1394 1997 
L 1394 772 
L 2250 772 
Q 2750 772 2884 800 
Q 3091 838 3220 983 
Q 3350 1128 3350 1372 
Q 3350 1578 3250 1722 
Q 3150 1866 2961 1931 
Q 2772 1997 2141 1997 
L 1394 1997 
z
" transform="scale(0.015625)"/>
       <path id="Arial-BoldMT-61" d="M 1116 2306 
L 319 2450 
Q 453 2931 781 3162 
Q 1109 3394 1756 3394 
Q 2344 3394 2631 3255 
Q 2919 3116 3036 2902 
Q 3153 2688 3153 2116 
L 3144 1091 
Q 3144 653 3186 445 
Q 3228 238 3344 0 
L 2475 0 
Q 2441 88 2391 259 
Q 2369 338 2359 363 
Q 2134 144 1878 34 
Q 1622 -75 1331 -75 
Q 819 -75 523 203 
Q 228 481 228 906 
Q 228 1188 362 1408 
Q 497 1628 739 1745 
Q 981 1863 1438 1950 
Q 2053 2066 2291 2166 
L 2291 2253 
Q 2291 2506 2166 2614 
Q 2041 2722 1694 2722 
Q 1459 2722 1328 2630 
Q 1197 2538 1116 2306 
z
M 2291 1594 
Q 2122 1538 1756 1459 
Q 1391 1381 1278 1306 
Q 1106 1184 1106 997 
Q 1106 813 1243 678 
Q 1381 544 1594 544 
Q 1831 544 2047 700 
Q 2206 819 2256 991 
Q 2291 1103 2291 1419 
L 2291 1594 
z
" transform="scale(0.015625)"/>
       <path id="Arial-BoldMT-6c" d="M 459 0 
L 459 4581 
L 1338 4581 
L 1338 0 
L 459 0 
z
" transform="scale(0.015625)"/>
       <path id="Arial-BoldMT-69" d="M 459 3769 
L 459 4581 
L 1338 4581 
L 1338 3769 
L 459 3769 
z
M 459 0 
L 459 3319 
L 1338 3319 
L 1338 0 
L 459 0 
z
" transform="scale(0.015625)"/>
       <path id="Arial-BoldMT-20" transform="scale(0.015625)"/>
       <path id="Arial-BoldMT-76" d="M 1372 0 
L 34 3319 
L 956 3319 
L 1581 1625 
L 1763 1059 
Q 1834 1275 1853 1344 
Q 1897 1484 1947 1625 
L 2578 3319 
L 3481 3319 
L 2163 0 
L 1372 0 
z
" transform="scale(0.015625)"/>
       <path id="Arial-BoldMT-75" d="M 2644 0 
L 2644 497 
Q 2463 231 2167 78 
Q 1872 -75 1544 -75 
Q 1209 -75 943 72 
Q 678 219 559 484 
Q 441 750 441 1219 
L 441 3319 
L 1319 3319 
L 1319 1794 
Q 1319 1094 1367 936 
Q 1416 778 1544 686 
Q 1672 594 1869 594 
Q 2094 594 2272 717 
Q 2450 841 2515 1023 
Q 2581 1206 2581 1919 
L 2581 3319 
L 3459 3319 
L 3459 0 
L 2644 0 
z
" transform="scale(0.015625)"/>
       <path id="Arial-BoldMT-28" d="M 1916 -1347 
L 1313 -1347 
Q 834 -625 584 153 
Q 334 931 334 1659 
Q 334 2563 644 3369 
Q 913 4069 1325 4659 
L 1925 4659 
Q 1497 3713 1336 3048 
Q 1175 2384 1175 1641 
Q 1175 1128 1270 590 
Q 1366 53 1531 -431 
Q 1641 -750 1916 -1347 
z
" transform="scale(0.015625)"/>
       <path id="Arial-BoldMT-52" d="M 469 0 
L 469 4581 
L 2416 4581 
Q 3150 4581 3483 4457 
Q 3816 4334 4016 4018 
Q 4216 3703 4216 3297 
Q 4216 2781 3912 2445 
Q 3609 2109 3006 2022 
Q 3306 1847 3501 1637 
Q 3697 1428 4028 894 
L 4588 0 
L 3481 0 
L 2813 997 
Q 2456 1531 2325 1670 
Q 2194 1809 2047 1861 
Q 1900 1913 1581 1913 
L 1394 1913 
L 1394 0 
L 469 0 
z
M 1394 2644 
L 2078 2644 
Q 2744 2644 2909 2700 
Q 3075 2756 3169 2893 
Q 3263 3031 3263 3238 
Q 3263 3469 3139 3611 
Q 3016 3753 2791 3791 
Q 2678 3806 2116 3806 
L 1394 3806 
L 1394 2644 
z
" transform="scale(0.015625)"/>
       <path id="Arial-BoldMT-6a" d="M 441 3769 
L 441 4581 
L 1319 4581 
L 1319 3769 
L 441 3769 
z
M 1319 3319 
L 1319 103 
Q 1319 -531 1236 -792 
Q 1153 -1053 917 -1200 
Q 681 -1347 316 -1347 
Q 184 -1347 32 -1323 
Q -119 -1300 -294 -1253 
L -141 -503 
Q -78 -516 -23 -523 
Q 31 -531 78 -531 
Q 213 -531 298 -473 
Q 384 -416 412 -334 
Q 441 -253 441 153 
L 441 3319 
L 1319 3319 
z
" transform="scale(0.015625)"/>
       <path id="Arial-BoldMT-63" d="M 3353 2338 
L 2488 2181 
Q 2444 2441 2289 2572 
Q 2134 2703 1888 2703 
Q 1559 2703 1364 2476 
Q 1169 2250 1169 1719 
Q 1169 1128 1367 884 
Q 1566 641 1900 641 
Q 2150 641 2309 783 
Q 2469 925 2534 1272 
L 3397 1125 
Q 3263 531 2881 228 
Q 2500 -75 1859 -75 
Q 1131 -75 698 384 
Q 266 844 266 1656 
Q 266 2478 700 2936 
Q 1134 3394 1875 3394 
Q 2481 3394 2839 3133 
Q 3197 2872 3353 2338 
z
" transform="scale(0.015625)"/>
       <path id="Arial-BoldMT-74" d="M 1981 3319 
L 1981 2619 
L 1381 2619 
L 1381 1281 
Q 1381 875 1398 808 
Q 1416 741 1477 697 
Q 1538 653 1625 653 
Q 1747 653 1978 738 
L 2053 56 
Q 1747 -75 1359 -75 
Q 1122 -75 931 4 
Q 741 84 652 211 
Q 563 338 528 553 
Q 500 706 500 1172 
L 500 2619 
L 97 2619 
L 97 3319 
L 500 3319 
L 500 3978 
L 1381 4491 
L 1381 3319 
L 1981 3319 
z
" transform="scale(0.015625)"/>
       <path id="Arial-BoldMT-64" d="M 3503 0 
L 2688 0 
L 2688 488 
Q 2484 203 2207 64 
Q 1931 -75 1650 -75 
Q 1078 -75 670 386 
Q 263 847 263 1672 
Q 263 2516 659 2955 
Q 1056 3394 1663 3394 
Q 2219 3394 2625 2931 
L 2625 4581 
L 3503 4581 
L 3503 0 
z
M 1159 1731 
Q 1159 1200 1306 963 
Q 1519 619 1900 619 
Q 2203 619 2415 876 
Q 2628 1134 2628 1647 
Q 2628 2219 2422 2470 
Q 2216 2722 1894 2722 
Q 1581 2722 1370 2473 
Q 1159 2225 1159 1731 
z
" transform="scale(0.015625)"/>
       <path id="Arial-BoldMT-29" d="M 216 -1347 
Q 475 -791 581 -494 
Q 688 -197 778 190 
Q 869 578 912 926 
Q 956 1275 956 1641 
Q 956 2384 797 3048 
Q 638 3713 209 4659 
L 806 4659 
Q 1278 3988 1539 3234 
Q 1800 2481 1800 1706 
Q 1800 1053 1594 306 
Q 1359 -531 822 -1347 
L 216 -1347 
z
" transform="scale(0.015625)"/>
       <path id="Arial-BoldMT-6d" d="M 394 3319 
L 1203 3319 
L 1203 2866 
Q 1638 3394 2238 3394 
Q 2556 3394 2790 3262 
Q 3025 3131 3175 2866 
Q 3394 3131 3647 3262 
Q 3900 3394 4188 3394 
Q 4553 3394 4806 3245 
Q 5059 3097 5184 2809 
Q 5275 2597 5275 2122 
L 5275 0 
L 4397 0 
L 4397 1897 
Q 4397 2391 4306 2534 
Q 4184 2722 3931 2722 
Q 3747 2722 3584 2609 
Q 3422 2497 3350 2280 
Q 3278 2063 3278 1594 
L 3278 0 
L 2400 0 
L 2400 1819 
Q 2400 2303 2353 2443 
Q 2306 2584 2207 2653 
Q 2109 2722 1941 2722 
Q 1738 2722 1575 2612 
Q 1413 2503 1342 2297 
Q 1272 2091 1272 1613 
L 1272 0 
L 394 0 
L 394 3319 
z
" transform="scale(0.015625)"/>
       <path id="Arial-BoldMT-56" d="M 1634 0 
L -3 4581 
L 1000 4581 
L 2159 1191 
L 3281 4581 
L 4263 4581 
L 2622 0 
L 1634 0 
z
" transform="scale(0.015625)"/>
      </defs>
      <use xlink:href="#Arial-BoldMT-42"/>
      <use xlink:href="#Arial-BoldMT-61" x="72.216797"/>
      <use xlink:href="#Arial-BoldMT-73" x="127.832031"/>
      <use xlink:href="#Arial-BoldMT-65" x="183.447266"/>
      <use xlink:href="#Arial-BoldMT-6c" x="239.0625"/>
      <use xlink:href="#Arial-BoldMT-69" x="266.845703"/>
      <use xlink:href="#Arial-BoldMT-6e" x="294.628906"/>
      <use xlink:href="#Arial-BoldMT-65" x="355.712891"/>
      <use xlink:href="#Arial-BoldMT-20" x="411.328125"/>
      <use xlink:href="#Arial-BoldMT-76" x="439.111328"/>
      <use xlink:href="#Arial-BoldMT-61" x="494.726562"/>
      <use xlink:href="#Arial-BoldMT-6c" x="550.341797"/>
      <use xlink:href="#Arial-BoldMT-75" x="578.125"/>
      <use xlink:href="#Arial-BoldMT-65" x="639.208984"/>
      <use xlink:href="#Arial-BoldMT-20" x="694.824219"/>
      <use xlink:href="#Arial-BoldMT-28" x="722.607422"/>
      <use xlink:href="#Arial-BoldMT-52" x="755.908203"/>
      <use xlink:href="#Arial-BoldMT-65" x="828.125"/>
      <use xlink:href="#Arial-BoldMT-6a" x="883.740234"/>
      <use xlink:href="#Arial-BoldMT-65" x="911.523438"/>
      <use xlink:href="#Arial-BoldMT-63" x="967.138672"/>
      <use xlink:href="#Arial-BoldMT-74" x="1022.753906"/>
      <use xlink:href="#Arial-BoldMT-65" x="1056.054688"/>
      <use xlink:href="#Arial-BoldMT-64" x="1111.669922"/>
      <use xlink:href="#Arial-BoldMT-29" x="1172.753906"/>
      <use xlink:href="#Arial-BoldMT-20" x="1206.054688"/>
      <use xlink:href="#Arial-BoldMT-69" x="1233.837891"/>
      <use xlink:href="#Arial-BoldMT-6e" x="1261.621094"/>
      <use xlink:href="#Arial-BoldMT-20" x="1322.705078"/>
      <use xlink:href="#Arial-BoldMT-6d" x="1350.488281"/>
      <use xlink:href="#Arial-BoldMT-56" x="1439.404297"/>
     </g>
    </g>
   </g>
   <g id="legend_1">
    <g id="patch_40">
     <path d="M 647.9475 505.625625 
L 742.08 505.625625 
Q 746.88 505.625625 746.88 500.825625 
L 746.88 378.264375 
Q 746.88 373.464375 742.08 373.464375 
L 647.9475 373.464375 
Q 643.1475 373.464375 643.1475 378.264375 
L 643.1475 500.825625 
Q 643.1475 505.625625 647.9475 505.625625 
z
" style="fill: #ffffff; stroke: #000000; stroke-linejoin: miter"/>
    </g>
    <g id="text_22">
     <!-- group -->
     <g transform="translate(679.669688 391.65375)scale(0.12 -0.12)">
      <defs>
       <path id="ArialMT-67" d="M 319 -275 
L 866 -356 
Q 900 -609 1056 -725 
Q 1266 -881 1628 -881 
Q 2019 -881 2231 -725 
Q 2444 -569 2519 -288 
Q 2563 -116 2559 434 
Q 2191 0 1641 0 
Q 956 0 581 494 
Q 206 988 206 1678 
Q 206 2153 378 2554 
Q 550 2956 876 3175 
Q 1203 3394 1644 3394 
Q 2231 3394 2613 2919 
L 2613 3319 
L 3131 3319 
L 3131 450 
Q 3131 -325 2973 -648 
Q 2816 -972 2473 -1159 
Q 2131 -1347 1631 -1347 
Q 1038 -1347 672 -1080 
Q 306 -813 319 -275 
z
M 784 1719 
Q 784 1066 1043 766 
Q 1303 466 1694 466 
Q 2081 466 2343 764 
Q 2606 1063 2606 1700 
Q 2606 2309 2336 2618 
Q 2066 2928 1684 2928 
Q 1309 2928 1046 2623 
Q 784 2319 784 1719 
z
" transform="scale(0.015625)"/>
       <path id="ArialMT-72" d="M 416 0 
L 416 3319 
L 922 3319 
L 922 2816 
Q 1116 3169 1280 3281 
Q 1444 3394 1641 3394 
Q 1925 3394 2219 3213 
L 2025 2691 
Q 1819 2813 1613 2813 
Q 1428 2813 1281 2702 
Q 1134 2591 1072 2394 
Q 978 2094 978 1738 
L 978 0 
L 416 0 
z
" transform="scale(0.015625)"/>
       <path id="ArialMT-6f" d="M 213 1659 
Q 213 2581 725 3025 
Q 1153 3394 1769 3394 
Q 2453 3394 2887 2945 
Q 3322 2497 3322 1706 
Q 3322 1066 3130 698 
Q 2938 331 2570 128 
Q 2203 -75 1769 -75 
Q 1072 -75 642 372 
Q 213 819 213 1659 
z
M 791 1659 
Q 791 1022 1069 705 
Q 1347 388 1769 388 
Q 2188 388 2466 706 
Q 2744 1025 2744 1678 
Q 2744 2294 2464 2611 
Q 2184 2928 1769 2928 
Q 1347 2928 1069 2612 
Q 791 2297 791 1659 
z
" transform="scale(0.015625)"/>
       <path id="ArialMT-75" d="M 2597 0 
L 2597 488 
Q 2209 -75 1544 -75 
Q 1250 -75 995 37 
Q 741 150 617 320 
Q 494 491 444 738 
Q 409 903 409 1263 
L 409 3319 
L 972 3319 
L 972 1478 
Q 972 1038 1006 884 
Q 1059 663 1231 536 
Q 1403 409 1656 409 
Q 1909 409 2131 539 
Q 2353 669 2445 892 
Q 2538 1116 2538 1541 
L 2538 3319 
L 3100 3319 
L 3100 0 
L 2597 0 
z
" transform="scale(0.015625)"/>
       <path id="ArialMT-70" d="M 422 -1272 
L 422 3319 
L 934 3319 
L 934 2888 
Q 1116 3141 1344 3267 
Q 1572 3394 1897 3394 
Q 2322 3394 2647 3175 
Q 2972 2956 3137 2557 
Q 3303 2159 3303 1684 
Q 3303 1175 3120 767 
Q 2938 359 2589 142 
Q 2241 -75 1856 -75 
Q 1575 -75 1351 44 
Q 1128 163 984 344 
L 984 -1272 
L 422 -1272 
z
M 931 1641 
Q 931 1000 1190 694 
Q 1450 388 1819 388 
Q 2194 388 2461 705 
Q 2728 1022 2728 1688 
Q 2728 2322 2467 2637 
Q 2206 2953 1844 2953 
Q 1484 2953 1207 2617 
Q 931 2281 931 1641 
z
" transform="scale(0.015625)"/>
      </defs>
      <use xlink:href="#ArialMT-67"/>
      <use xlink:href="#ArialMT-72" x="55.615234"/>
      <use xlink:href="#ArialMT-6f" x="88.916016"/>
      <use xlink:href="#ArialMT-75" x="144.53125"/>
      <use xlink:href="#ArialMT-70" x="200.146484"/>
     </g>
    </g>
    <g id="patch_41">
     <path d="M 652.7475 423.358125 
L 700.7475 423.358125 
L 700.7475 406.558125 
L 652.7475 406.558125 
z
" style="fill: #2020df; stroke: #262626; stroke-width: 0.5; stroke-linejoin: miter"/>
    </g>
    <g id="text_23">
     <!-- A -->
     <g transform="translate(719.9475 423.358125)scale(0.24 -0.24)">
      <defs>
       <path id="ArialMT-41" d="M -9 0 
L 1750 4581 
L 2403 4581 
L 4278 0 
L 3588 0 
L 3053 1388 
L 1138 1388 
L 634 0 
L -9 0 
z
M 1313 1881 
L 2866 1881 
L 2388 3150 
Q 2169 3728 2063 4100 
Q 1975 3659 1816 3225 
L 1313 1881 
z
" transform="scale(0.015625)"/>
      </defs>
      <use xlink:href="#ArialMT-41"/>
     </g>
    </g>
    <g id="patch_42">
     <path d="M 652.7475 457.306875 
L 700.7475 457.306875 
L 700.7475 440.506875 
L 652.7475 440.506875 
z
" style="fill: #107010; stroke: #262626; stroke-width: 0.5; stroke-linejoin: miter"/>
    </g>
    <g id="text_24">
     <!-- B -->
     <g transform="translate(719.9475 457.306875)scale(0.24 -0.24)">
      <defs>
       <path id="ArialMT-42" d="M 469 0 
L 469 4581 
L 2188 4581 
Q 2713 4581 3030 4442 
Q 3347 4303 3526 4014 
Q 3706 3725 3706 3409 
Q 3706 3116 3547 2856 
Q 3388 2597 3066 2438 
Q 3481 2316 3704 2022 
Q 3928 1728 3928 1328 
Q 3928 1006 3792 729 
Q 3656 453 3456 303 
Q 3256 153 2954 76 
Q 2653 0 2216 0 
L 469 0 
z
M 1075 2656 
L 2066 2656 
Q 2469 2656 2644 2709 
Q 2875 2778 2992 2937 
Q 3109 3097 3109 3338 
Q 3109 3566 3000 3739 
Q 2891 3913 2687 3977 
Q 2484 4041 1991 4041 
L 1075 4041 
L 1075 2656 
z
M 1075 541 
L 2216 541 
Q 2509 541 2628 563 
Q 2838 600 2978 687 
Q 3119 775 3209 942 
Q 3300 1109 3300 1328 
Q 3300 1584 3169 1773 
Q 3038 1963 2805 2039 
Q 2572 2116 2134 2116 
L 1075 2116 
L 1075 541 
z
" transform="scale(0.015625)"/>
      </defs>
      <use xlink:href="#ArialMT-42"/>
     </g>
    </g>
    <g id="patch_43">
     <path d="M 652.7475 491.255625 
L 700.7475 491.255625 
L 700.7475 474.455625 
L 652.7475 474.455625 
z
" style="fill: #df2020; stroke: #262626; stroke-width: 0.5; stroke-linejoin: miter"/>
    </g>
    <g id="text_25">
     <!-- C -->
     <g transform="translate(719.9475 491.255625)scale(0.24 -0.24)">
      <defs>
       <path id="ArialMT-43" d="M 3763 1606 
L 4369 1453 
Q 4178 706 3683 314 
Q 3188 -78 2472 -78 
Q 1731 -78 1267 223 
Q 803 525 561 1097 
Q 319 1669 319 2325 
Q 319 3041 592 3573 
Q 866 4106 1370 4382 
Q 1875 4659 2481 4659 
Q 3169 4659 3637 4309 
Q 4106 3959 4291 3325 
L 3694 3184 
Q 3534 3684 3231 3912 
Q 2928 4141 2469 4141 
Q 1941 4141 1586 3887 
Q 1231 3634 1087 3207 
Q 944 2781 944 2328 
Q 944 1744 1114 1308 
Q 1284 872 1643 656 
Q 2003 441 2422 441 
Q 2931 441 3284 734 
Q 3638 1028 3763 1606 
z
" transform="scale(0.015625)"/>
      </defs>
      <use xlink:href="#ArialMT-43"/>
     </g>
    </g>
   </g>
  </g>
 </g>
 <defs>
  <clipPath id="pd68dfa1079">
   <rect x="110.51875" y="25.763437" width="648.36125" height="491.862188"/>
  </clipPath>
 </defs>
</svg>
