<?xml version="1.0" encoding="utf-8" standalone="no"?>
<!DOCTYPE svg PUBLIC "-//W3C//DTD SVG 1.1//EN"
  "http://www.w3.org/Graphics/SVG/1.1/DTD/svg11.dtd">
<svg xmlns:xlink="http://www.w3.org/1999/xlink" width="771.84pt" height="590.76pt" viewBox="0 0 771.84 590.76" xmlns="http://www.w3.org/2000/svg" version="1.1">
 <metadata>
  <rdf:RDF xmlns:dc="http://purl.org/dc/elements/1.1/" xmlns:cc="http://creativecommons.org/ns#" xmlns:rdf="http://www.w3.org/1999/02/22-rdf-syntax-ns#">
   <cc:Work>
    <dc:type rdf:resource="http://purl.org/dc/dcmitype/StillImage"/>
    <dc:date>2022-06-02T17:11:44.773044</dc:date>
    <dc:format>image/svg+xml</dc:format>
    <dc:creator>
     <cc:Agent>
      <dc:title>Matplotlib v3.5.2, https://matplotlib.org/</dc:title>
     </cc:Agent>
    </dc:creator>
   </cc:Work>
  </rdf:RDF>
 </metadata>
 <defs>
  <style type="text/css">*{stroke-linejoin: round; stroke-linecap: butt}</style>
 </defs>
 <g id="figure_1">
  <g id="patch_1">
   <path d="M 0 590.76 
L 771.84 590.76 
L 771.84 0 
L 0 0 
z
" style="fill: #ffffff"/>
  </g>
  <g id="axes_1">
   <g id="patch_2">
    <path d="M 80.160625 516.916875 
L 743.309375 516.916875 
L 743.309375 25.763437 
L 80.160625 25.763437 
z
" style="fill: #ffffff"/>
   </g>
   <g id="PathCollection_1">
    <defs>
     <path id="ma5bb4d3db3" d="M 0 4.743416 
C 1.257969 4.743416 2.464584 4.24362 3.354102 3.354102 
C 4.24362 2.464584 4.743416 1.257969 4.743416 0 
C 4.743416 -1.257969 4.24362 -2.464584 3.354102 -3.354102 
C 2.464584 -4.24362 1.257969 -4.743416 0 -4.743416 
C -1.257969 -4.743416 -2.464584 -4.24362 -3.354102 -3.354102 
C -4.24362 -2.464584 -4.743416 -1.257969 -4.743416 0 
C -4.743416 1.257969 -4.24362 2.464584 -3.354102 3.354102 
C -2.464584 4.24362 -1.257969 4.743416 0 4.743416 
z
" style="stroke: #000000"/>
    </defs>
    <g clip-path="url(#p637cd0ea16)">
     <use xlink:href="#ma5bb4d3db3" x="510.704928" y="210.38041" style="fill: #ff0000; stroke: #000000"/>
     <use xlink:href="#ma5bb4d3db3" x="343.905997" y="271.752605" style="fill: #ff0000; stroke: #000000"/>
     <use xlink:href="#ma5bb4d3db3" x="529.598246" y="234.312537" style="fill: #ff0000; stroke: #000000"/>
     <use xlink:href="#ma5bb4d3db3" x="297.420708" y="235.653235" style="fill: #ff0000; stroke: #000000"/>
     <use xlink:href="#ma5bb4d3db3" x="327.699553" y="242.785344" style="fill: #ff0000; stroke: #000000"/>
     <use xlink:href="#ma5bb4d3db3" x="304.724859" y="239.895744" style="fill: #ff0000; stroke: #000000"/>
     <use xlink:href="#ma5bb4d3db3" x="407.298071" y="297.546378" style="fill: #ff0000; stroke: #000000"/>
     <use xlink:href="#ma5bb4d3db3" x="311.759632" y="242.855461" style="fill: #ff0000; stroke: #000000"/>
     <use xlink:href="#ma5bb4d3db3" x="301.991124" y="233.496893" style="fill: #ff0000; stroke: #000000"/>
     <use xlink:href="#ma5bb4d3db3" x="410.60011" y="297.037408" style="fill: #ff0000; stroke: #000000"/>
    </g>
   </g>
   <g id="patch_3">
    <path d="M 553.100384 309.583438 
C 603.588745 292.894871 633.204976 270.669719 635.426448 247.802812 
C 637.647919 224.935906 612.293257 203.294227 564.946531 187.644105 
C 517.599805 171.993983 452.126666 163.613181 382.946813 164.347472 
C 313.766961 165.081764 246.528622 174.871197 196.040261 191.559765 
C 145.551901 208.248332 115.935669 230.473484 113.714198 253.340391 
C 111.492727 276.207297 136.847389 297.848975 184.194115 313.499098 
C 231.54084 329.14922 297.013979 337.530022 366.193832 336.795731 
C 435.373685 336.061439 502.612024 326.272005 553.100384 309.583438 
L 553.100384 309.583438 
z
" clip-path="url(#p637cd0ea16)" style="fill: none; stroke: #ff0000; stroke-linejoin: miter"/>
   </g>
   <g id="PathCollection_2">
    <defs>
     <path id="m512ffc3e08" d="M -0 4.743416 
L 4.743416 -4.743416 
L -4.743416 -4.743416 
z
" style="stroke: #000000"/>
    </defs>
    <g clip-path="url(#p637cd0ea16)">
     <use xlink:href="#m512ffc3e08" x="413.898961" y="275.241037" style="fill: #0000ff; stroke: #000000"/>
     <use xlink:href="#m512ffc3e08" x="507.812685" y="208.396655" style="fill: #0000ff; stroke: #000000"/>
     <use xlink:href="#m512ffc3e08" x="540.966557" y="297.410888" style="fill: #0000ff; stroke: #000000"/>
     <use xlink:href="#m512ffc3e08" x="451.182986" y="223.208779" style="fill: #0000ff; stroke: #000000"/>
     <use xlink:href="#m512ffc3e08" x="446.928427" y="292.198698" style="fill: #0000ff; stroke: #000000"/>
     <use xlink:href="#m512ffc3e08" x="491.437011" y="229.361612" style="fill: #0000ff; stroke: #000000"/>
     <use xlink:href="#m512ffc3e08" x="508.739047" y="225.989953" style="fill: #0000ff; stroke: #000000"/>
     <use xlink:href="#m512ffc3e08" x="429.082803" y="229.588262" style="fill: #0000ff; stroke: #000000"/>
     <use xlink:href="#m512ffc3e08" x="423.681321" y="242.733964" style="fill: #0000ff; stroke: #000000"/>
     <use xlink:href="#m512ffc3e08" x="489.736592" y="217.519559" style="fill: #0000ff; stroke: #000000"/>
     <use xlink:href="#m512ffc3e08" x="492.850442" y="219.099214" style="fill: #0000ff; stroke: #000000"/>
     <use xlink:href="#m512ffc3e08" x="497.53901" y="214.14197" style="fill: #0000ff; stroke: #000000"/>
     <use xlink:href="#m512ffc3e08" x="507.581743" y="220.534385" style="fill: #0000ff; stroke: #000000"/>
     <use xlink:href="#m512ffc3e08" x="430.125969" y="293.926495" style="fill: #0000ff; stroke: #000000"/>
     <use xlink:href="#m512ffc3e08" x="483.624921" y="226.501869" style="fill: #0000ff; stroke: #000000"/>
     <use xlink:href="#m512ffc3e08" x="482.055439" y="221.681088" style="fill: #0000ff; stroke: #000000"/>
    </g>
   </g>
   <g id="patch_4">
    <path d="M 540.647457 294.436339 
C 564.682864 274.501531 580.801897 249.628525 585.454529 225.295311 
C 590.10716 200.962097 582.913522 179.155375 565.45793 164.677821 
C 548.002338 150.200268 521.709964 144.233912 492.371398 148.092774 
C 463.032832 151.951636 433.043438 165.320657 409.008032 185.255465 
C 384.972626 205.190272 368.853592 230.063279 364.200961 254.396493 
C 359.54833 278.729707 366.741968 300.536429 384.197559 315.013982 
C 401.653151 329.491535 427.945525 335.457891 457.284091 331.599029 
C 486.622657 327.740168 516.612051 314.371147 540.647457 294.436339 
L 540.647457 294.436339 
z
" clip-path="url(#p637cd0ea16)" style="fill: none; stroke: #0000ff; stroke-linejoin: miter"/>
   </g>
   <g id="PathCollection_3">
    <defs>
     <path id="meffb5717f0" d="M -4.743416 4.743416 
L 4.743416 4.743416 
L 4.743416 -4.743416 
L -4.743416 -4.743416 
z
" style="stroke: #000000"/>
    </defs>
    <g clip-path="url(#p637cd0ea16)">
     <use xlink:href="#meffb5717f0" x="477.968004" y="227.610107" style="fill: #008000; stroke: #000000"/>
     <use xlink:href="#meffb5717f0" x="401.592399" y="234.839464" style="fill: #008000; stroke: #000000"/>
     <use xlink:href="#meffb5717f0" x="456.191407" y="207.204871" style="fill: #008000; stroke: #000000"/>
     <use xlink:href="#meffb5717f0" x="381.910207" y="248.710396" style="fill: #008000; stroke: #000000"/>
     <use xlink:href="#meffb5717f0" x="410.232114" y="204.580022" style="fill: #008000; stroke: #000000"/>
     <use xlink:href="#meffb5717f0" x="403.202151" y="231.785777" style="fill: #008000; stroke: #000000"/>
     <use xlink:href="#meffb5717f0" x="453.927865" y="209.652992" style="fill: #008000; stroke: #000000"/>
     <use xlink:href="#meffb5717f0" x="407.622016" y="263.226888" style="fill: #008000; stroke: #000000"/>
     <use xlink:href="#meffb5717f0" x="376.131613" y="217.470642" style="fill: #008000; stroke: #000000"/>
     <use xlink:href="#meffb5717f0" x="390.690161" y="267.675566" style="fill: #008000; stroke: #000000"/>
     <use xlink:href="#meffb5717f0" x="409.66712" y="256.968317" style="fill: #008000; stroke: #000000"/>
     <use xlink:href="#meffb5717f0" x="486.844744" y="315.782319" style="fill: #008000; stroke: #000000"/>
     <use xlink:href="#meffb5717f0" x="483.138126" y="233.204366" style="fill: #008000; stroke: #000000"/>
     <use xlink:href="#meffb5717f0" x="414.189475" y="204.847714" style="fill: #008000; stroke: #000000"/>
     <use xlink:href="#meffb5717f0" x="408.765718" y="219.967819" style="fill: #008000; stroke: #000000"/>
     <use xlink:href="#meffb5717f0" x="392.293032" y="262.832865" style="fill: #008000; stroke: #000000"/>
     <use xlink:href="#meffb5717f0" x="480.809814" y="224.164323" style="fill: #008000; stroke: #000000"/>
     <use xlink:href="#meffb5717f0" x="444.814069" y="229.593608" style="fill: #008000; stroke: #000000"/>
     <use xlink:href="#meffb5717f0" x="400.003319" y="233.395701" style="fill: #008000; stroke: #000000"/>
     <use xlink:href="#meffb5717f0" x="452.582411" y="307.373573" style="fill: #008000; stroke: #000000"/>
     <use xlink:href="#meffb5717f0" x="420.536634" y="211.962481" style="fill: #008000; stroke: #000000"/>
     <use xlink:href="#meffb5717f0" x="468.267835" y="322.531318" style="fill: #008000; stroke: #000000"/>
     <use xlink:href="#meffb5717f0" x="413.429472" y="229.851872" style="fill: #008000; stroke: #000000"/>
     <use xlink:href="#meffb5717f0" x="464.08294" y="336.739894" style="fill: #008000; stroke: #000000"/>
     <use xlink:href="#meffb5717f0" x="433.900147" y="227.001186" style="fill: #008000; stroke: #000000"/>
     <use xlink:href="#meffb5717f0" x="480.259943" y="247.289978" style="fill: #008000; stroke: #000000"/>
     <use xlink:href="#meffb5717f0" x="457.762864" y="261.427232" style="fill: #008000; stroke: #000000"/>
     <use xlink:href="#meffb5717f0" x="404.068509" y="205.822031" style="fill: #008000; stroke: #000000"/>
     <use xlink:href="#meffb5717f0" x="454.459371" y="289.790807" style="fill: #008000; stroke: #000000"/>
     <use xlink:href="#meffb5717f0" x="405.074571" y="208.431073" style="fill: #008000; stroke: #000000"/>
     <use xlink:href="#meffb5717f0" x="407.222174" y="212.987883" style="fill: #008000; stroke: #000000"/>
     <use xlink:href="#meffb5717f0" x="426.587219" y="188.90584" style="fill: #008000; stroke: #000000"/>
     <use xlink:href="#meffb5717f0" x="476.596054" y="312.737949" style="fill: #008000; stroke: #000000"/>
     <use xlink:href="#meffb5717f0" x="463.792199" y="336.564304" style="fill: #008000; stroke: #000000"/>
     <use xlink:href="#meffb5717f0" x="395.993872" y="243.850091" style="fill: #008000; stroke: #000000"/>
     <use xlink:href="#meffb5717f0" x="392.369241" y="238.530242" style="fill: #008000; stroke: #000000"/>
     <use xlink:href="#meffb5717f0" x="462.63026" y="317.080119" style="fill: #008000; stroke: #000000"/>
     <use xlink:href="#meffb5717f0" x="421.364459" y="283.252479" style="fill: #008000; stroke: #000000"/>
     <use xlink:href="#meffb5717f0" x="487.375302" y="219.706382" style="fill: #008000; stroke: #000000"/>
     <use xlink:href="#meffb5717f0" x="420.144031" y="234.653687" style="fill: #008000; stroke: #000000"/>
     <use xlink:href="#meffb5717f0" x="468.123442" y="341.820596" style="fill: #008000; stroke: #000000"/>
     <use xlink:href="#meffb5717f0" x="403.10224" y="209.418533" style="fill: #008000; stroke: #000000"/>
     <use xlink:href="#meffb5717f0" x="422.515653" y="231.059078" style="fill: #008000; stroke: #000000"/>
    </g>
   </g>
   <g id="patch_5">
    <path d="M 516.80642 356.383816 
C 530.944635 338.471623 535.585225 309.989011 529.706155 277.208947 
C 523.827084 244.428883 507.908353 210.027712 485.455877 181.581894 
C 463.003401 153.136075 435.850326 132.968084 409.9768 125.519687 
C 384.103274 118.071289 361.621757 123.950613 347.483542 141.862807 
C 333.345328 159.775 328.704737 188.257611 334.583808 221.037676 
C 340.462878 253.81774 356.381609 288.218911 378.834085 316.664729 
C 401.286561 345.110547 428.439637 365.278538 454.313163 372.726936 
C 480.186688 380.175334 502.668205 374.296009 516.80642 356.383816 
L 516.80642 356.383816 
z
" clip-path="url(#p637cd0ea16)" style="fill: none; stroke: #008000; stroke-linejoin: miter"/>
   </g>
   <g id="PathCollection_4">
    <defs>
     <path id="m295e000510" d="M 0 -4.743416 
L -4.511257 -1.465796 
L -2.78811 3.837505 
L 2.78811 3.837505 
L 4.511257 -1.465796 
z
" style="stroke: #000000"/>
    </defs>
    <g clip-path="url(#p637cd0ea16)">
     <use xlink:href="#m295e000510" x="449.277756" y="164.974767" style="fill: #00bfbf; stroke: #000000"/>
     <use xlink:href="#m295e000510" x="367.360515" y="225.913987" style="fill: #00bfbf; stroke: #000000"/>
     <use xlink:href="#m295e000510" x="362.762719" y="225.943074" style="fill: #00bfbf; stroke: #000000"/>
     <use xlink:href="#m295e000510" x="414.351567" y="285.257417" style="fill: #00bfbf; stroke: #000000"/>
     <use xlink:href="#m295e000510" x="348.240743" y="192.999396" style="fill: #00bfbf; stroke: #000000"/>
     <use xlink:href="#m295e000510" x="524.171721" y="106.669014" style="fill: #00bfbf; stroke: #000000"/>
     <use xlink:href="#m295e000510" x="349.743272" y="196.56879" style="fill: #00bfbf; stroke: #000000"/>
     <use xlink:href="#m295e000510" x="354.239701" y="213.937194" style="fill: #00bfbf; stroke: #000000"/>
     <use xlink:href="#m295e000510" x="299.631448" y="226.91463" style="fill: #00bfbf; stroke: #000000"/>
     <use xlink:href="#m295e000510" x="292.827608" y="221.556296" style="fill: #00bfbf; stroke: #000000"/>
     <use xlink:href="#m295e000510" x="287.535163" y="221.994599" style="fill: #00bfbf; stroke: #000000"/>
     <use xlink:href="#m295e000510" x="438.482777" y="272.408618" style="fill: #00bfbf; stroke: #000000"/>
     <use xlink:href="#m295e000510" x="397.123858" y="198.502415" style="fill: #00bfbf; stroke: #000000"/>
     <use xlink:href="#m295e000510" x="308.199227" y="236.156973" style="fill: #00bfbf; stroke: #000000"/>
     <use xlink:href="#m295e000510" x="283.719379" y="219.558519" style="fill: #00bfbf; stroke: #000000"/>
     <use xlink:href="#m295e000510" x="414.317634" y="288.605419" style="fill: #00bfbf; stroke: #000000"/>
     <use xlink:href="#m295e000510" x="433.485573" y="270.476855" style="fill: #00bfbf; stroke: #000000"/>
     <use xlink:href="#m295e000510" x="408.604662" y="275.341789" style="fill: #00bfbf; stroke: #000000"/>
     <use xlink:href="#m295e000510" x="422.191259" y="173.510102" style="fill: #00bfbf; stroke: #000000"/>
     <use xlink:href="#m295e000510" x="406.074597" y="246.356143" style="fill: #00bfbf; stroke: #000000"/>
     <use xlink:href="#m295e000510" x="410.816808" y="282.473886" style="fill: #00bfbf; stroke: #000000"/>
     <use xlink:href="#m295e000510" x="291.080282" y="215.386257" style="fill: #00bfbf; stroke: #000000"/>
     <use xlink:href="#m295e000510" x="450.698236" y="178.644915" style="fill: #00bfbf; stroke: #000000"/>
    </g>
   </g>
   <g id="patch_6">
    <path d="M 503.619551 309.44515 
C 542.920894 282.355294 567.477692 247.314 571.881594 212.038705 
C 576.285497 176.763411 560.176945 144.134188 527.10366 121.337244 
C 494.030376 98.5403 446.692646 87.436905 395.516056 90.472452 
C 344.339466 93.508 293.502358 110.43465 254.201015 137.524506 
C 214.899672 164.614362 190.342874 199.655657 185.938971 234.930951 
C 181.535069 270.206246 197.64362 302.835469 230.716905 325.632413 
C 263.790189 348.429357 311.127919 359.532752 362.304509 356.497204 
C 413.481099 353.461657 464.318208 336.535006 503.619551 309.44515 
L 503.619551 309.44515 
z
" clip-path="url(#p637cd0ea16)" style="fill: none; stroke: #00bfbf; stroke-linejoin: miter"/>
   </g>
   <g id="PathCollection_5">
    <defs>
     <path id="m456b4f4c7a" d="M -1.581139 4.743416 
L 1.581139 4.743416 
L 1.581139 1.581139 
L 4.743416 1.581139 
L 4.743416 -1.581139 
L 1.581139 -1.581139 
L 1.581139 -4.743416 
L -1.581139 -4.743416 
L -1.581139 -1.581139 
L -4.743416 -1.581139 
L -4.743416 1.581139 
L -1.581139 1.581139 
z
" style="stroke: #000000"/>
    </defs>
    <g clip-path="url(#p637cd0ea16)">
     <use xlink:href="#m456b4f4c7a" x="418.693365" y="162.853407" style="fill: #bf00bf; stroke: #000000"/>
     <use xlink:href="#m456b4f4c7a" x="312.316527" y="269.598435" style="fill: #bf00bf; stroke: #000000"/>
     <use xlink:href="#m456b4f4c7a" x="295.270228" y="232.109834" style="fill: #bf00bf; stroke: #000000"/>
     <use xlink:href="#m456b4f4c7a" x="382.14887" y="336.579547" style="fill: #bf00bf; stroke: #000000"/>
     <use xlink:href="#m456b4f4c7a" x="458.248347" y="189.6435" style="fill: #bf00bf; stroke: #000000"/>
     <use xlink:href="#m456b4f4c7a" x="308.639125" y="244.803185" style="fill: #bf00bf; stroke: #000000"/>
    </g>
   </g>
   <g id="patch_7">
    <path d="M 472.142746 339.034267 
C 517.118975 298.088368 548.712056 248.30164 559.963978 200.639029 
C 571.2159 152.976419 561.207994 111.329369 532.144386 84.870157 
C 503.080778 58.410946 457.334381 49.299851 404.98031 59.543486 
C 352.626239 69.78712 297.938971 98.549137 252.962742 139.495036 
C 207.986512 180.440934 176.393432 230.227663 165.14151 277.890273 
C 153.889588 325.552883 163.897493 367.199934 192.961102 393.659145 
C 222.02471 420.118357 267.771106 429.229451 320.125177 418.985817 
C 372.479249 408.742182 427.166517 379.980165 472.142746 339.034267 
L 472.142746 339.034267 
z
" clip-path="url(#p637cd0ea16)" style="fill: none; stroke: #bf00bf; stroke-linejoin: miter"/>
   </g>
   <g id="PathCollection_6">
    <defs>
     <path id="mb70be9f525" d="M 0 -4.743416 
L -1.064963 -1.465796 
L -4.511257 -1.465796 
L -1.723147 0.559884 
L -2.78811 3.837505 
L -0 1.811824 
L 2.78811 3.837505 
L 1.723147 0.559884 
L 4.511257 -1.465796 
L 1.064963 -1.465796 
z
" style="stroke: #000000"/>
    </defs>
    <g clip-path="url(#p637cd0ea16)">
     <use xlink:href="#mb70be9f525" x="400.794089" y="177.618477" style="fill: #bfbf00; stroke: #000000"/>
     <use xlink:href="#mb70be9f525" x="391.885696" y="329.610738" style="fill: #bfbf00; stroke: #000000"/>
     <use xlink:href="#mb70be9f525" x="303.069483" y="274.037879" style="fill: #bfbf00; stroke: #000000"/>
     <use xlink:href="#mb70be9f525" x="411.198258" y="203.682958" style="fill: #bfbf00; stroke: #000000"/>
     <use xlink:href="#mb70be9f525" x="393.050142" y="231.182375" style="fill: #bfbf00; stroke: #000000"/>
     <use xlink:href="#mb70be9f525" x="323.42156" y="263.472884" style="fill: #bfbf00; stroke: #000000"/>
     <use xlink:href="#mb70be9f525" x="419.548008" y="195.614584" style="fill: #bfbf00; stroke: #000000"/>
     <use xlink:href="#mb70be9f525" x="401.202799" y="192.006314" style="fill: #bfbf00; stroke: #000000"/>
     <use xlink:href="#mb70be9f525" x="419.087933" y="170.110858" style="fill: #bfbf00; stroke: #000000"/>
     <use xlink:href="#mb70be9f525" x="403.986675" y="198.642562" style="fill: #bfbf00; stroke: #000000"/>
     <use xlink:href="#mb70be9f525" x="439.556668" y="282.710045" style="fill: #bfbf00; stroke: #000000"/>
     <use xlink:href="#mb70be9f525" x="420.37489" y="261.881441" style="fill: #bfbf00; stroke: #000000"/>
     <use xlink:href="#mb70be9f525" x="454.080275" y="284.125328" style="fill: #bfbf00; stroke: #000000"/>
     <use xlink:href="#mb70be9f525" x="427.279334" y="205.310141" style="fill: #bfbf00; stroke: #000000"/>
     <use xlink:href="#mb70be9f525" x="437.381294" y="166.910729" style="fill: #bfbf00; stroke: #000000"/>
     <use xlink:href="#mb70be9f525" x="412.239033" y="197.894763" style="fill: #bfbf00; stroke: #000000"/>
     <use xlink:href="#mb70be9f525" x="311.622343" y="289.691757" style="fill: #bfbf00; stroke: #000000"/>
     <use xlink:href="#mb70be9f525" x="376.220231" y="209.940131" style="fill: #bfbf00; stroke: #000000"/>
     <use xlink:href="#mb70be9f525" x="377.531651" y="240.016123" style="fill: #bfbf00; stroke: #000000"/>
     <use xlink:href="#mb70be9f525" x="415.739536" y="167.670213" style="fill: #bfbf00; stroke: #000000"/>
     <use xlink:href="#mb70be9f525" x="398.275827" y="205.897089" style="fill: #bfbf00; stroke: #000000"/>
     <use xlink:href="#mb70be9f525" x="400.252714" y="195.543688" style="fill: #bfbf00; stroke: #000000"/>
     <use xlink:href="#mb70be9f525" x="394.149954" y="206.856153" style="fill: #bfbf00; stroke: #000000"/>
     <use xlink:href="#mb70be9f525" x="400.308703" y="224.621506" style="fill: #bfbf00; stroke: #000000"/>
     <use xlink:href="#mb70be9f525" x="396.942964" y="216.380094" style="fill: #bfbf00; stroke: #000000"/>
     <use xlink:href="#mb70be9f525" x="419.325087" y="186.079128" style="fill: #bfbf00; stroke: #000000"/>
     <use xlink:href="#mb70be9f525" x="317.350926" y="270.469234" style="fill: #bfbf00; stroke: #000000"/>
     <use xlink:href="#mb70be9f525" x="420.624542" y="207.681448" style="fill: #bfbf00; stroke: #000000"/>
     <use xlink:href="#mb70be9f525" x="423.640167" y="211.746804" style="fill: #bfbf00; stroke: #000000"/>
     <use xlink:href="#mb70be9f525" x="404.117865" y="185.398789" style="fill: #bfbf00; stroke: #000000"/>
     <use xlink:href="#mb70be9f525" x="424.846915" y="257.858637" style="fill: #bfbf00; stroke: #000000"/>
     <use xlink:href="#mb70be9f525" x="404.382593" y="236.615904" style="fill: #bfbf00; stroke: #000000"/>
     <use xlink:href="#mb70be9f525" x="419.950401" y="204.512939" style="fill: #bfbf00; stroke: #000000"/>
     <use xlink:href="#mb70be9f525" x="385.195176" y="218.214461" style="fill: #bfbf00; stroke: #000000"/>
     <use xlink:href="#mb70be9f525" x="307.048025" y="278.734823" style="fill: #bfbf00; stroke: #000000"/>
     <use xlink:href="#mb70be9f525" x="503.515562" y="227.10751" style="fill: #bfbf00; stroke: #000000"/>
     <use xlink:href="#mb70be9f525" x="409.593374" y="187.658364" style="fill: #bfbf00; stroke: #000000"/>
    </g>
   </g>
   <g id="patch_8">
    <path d="M 466.910107 288.534416 
C 494.455926 262.028253 513.738301 229.734641 520.510513 198.765875 
C 527.282725 167.797109 520.991853 140.681651 503.023388 123.391365 
C 485.054922 106.10108 456.87591 100.047643 424.692451 106.564253 
C 392.508992 113.080862 358.948723 131.635467 331.402904 158.141631 
C 303.857085 184.647795 284.574709 216.941406 277.802497 247.910172 
C 271.030285 278.878938 277.321158 305.994396 295.289623 323.284682 
C 313.258088 340.574967 341.4371 346.628404 373.620559 340.111795 
C 405.804018 333.595185 439.364287 315.04058 466.910107 288.534416 
L 466.910107 288.534416 
z
" clip-path="url(#p637cd0ea16)" style="fill: none; stroke: #bfbf00; stroke-linejoin: miter"/>
   </g>
   <g id="patch_9">
    <path d="M 80.160625 516.916875 
L 80.160625 25.763437 
" style="fill: none; stroke: #000000; stroke-linejoin: miter; stroke-linecap: square"/>
   </g>
   <g id="patch_10">
    <path d="M 743.309375 516.916875 
L 743.309375 25.763437 
" style="fill: none; stroke: #000000; stroke-linejoin: miter; stroke-linecap: square"/>
   </g>
   <g id="patch_11">
    <path d="M 80.160625 516.916875 
L 743.309375 516.916875 
" style="fill: none; stroke: #000000; stroke-linejoin: miter; stroke-linecap: square"/>
   </g>
   <g id="patch_12">
    <path d="M 80.160625 25.763437 
L 743.309375 25.763437 
" style="fill: none; stroke: #000000; stroke-linejoin: miter; stroke-linecap: square"/>
   </g>
   <g id="matplotlib.axis_1">
    <g id="xtick_1">
     <g id="line2d_1">
      <defs>
       <path id="m10717b1dcf" d="M 0 0 
L 0 -4 
" style="stroke: #000000; stroke-width: 0.5"/>
      </defs>
      <g>
       <use xlink:href="#m10717b1dcf" x="80.160625" y="516.916875" style="stroke: #000000; stroke-width: 0.5"/>
      </g>
     </g>
     <g id="line2d_2">
      <defs>
       <path id="md7e0e289c8" d="M 0 0 
L 0 4 
" style="stroke: #000000; stroke-width: 0.5"/>
      </defs>
      <g>
       <use xlink:href="#md7e0e289c8" x="80.160625" y="25.763437" style="stroke: #000000; stroke-width: 0.5"/>
      </g>
     </g>
     <g id="text_1">
      <!-- −15 -->
      <g transform="translate(56.413125 540.95875)scale(0.28 -0.28)">
       <defs>
        <path id="ArialMT-2212" d="M 3381 1997 
L 356 1997 
L 356 2522 
L 3381 2522 
L 3381 1997 
z
" transform="scale(0.015625)"/>
        <path id="ArialMT-31" d="M 2384 0 
L 1822 0 
L 1822 3584 
Q 1619 3391 1289 3197 
Q 959 3003 697 2906 
L 697 3450 
Q 1169 3672 1522 3987 
Q 1875 4303 2022 4600 
L 2384 4600 
L 2384 0 
z
" transform="scale(0.015625)"/>
        <path id="ArialMT-35" d="M 266 1200 
L 856 1250 
Q 922 819 1161 601 
Q 1400 384 1738 384 
Q 2144 384 2425 690 
Q 2706 997 2706 1503 
Q 2706 1984 2436 2262 
Q 2166 2541 1728 2541 
Q 1456 2541 1237 2417 
Q 1019 2294 894 2097 
L 366 2166 
L 809 4519 
L 3088 4519 
L 3088 3981 
L 1259 3981 
L 1013 2750 
Q 1425 3038 1878 3038 
Q 2478 3038 2890 2622 
Q 3303 2206 3303 1553 
Q 3303 931 2941 478 
Q 2500 -78 1738 -78 
Q 1113 -78 717 272 
Q 322 622 266 1200 
z
" transform="scale(0.015625)"/>
       </defs>
       <use xlink:href="#ArialMT-2212"/>
       <use xlink:href="#ArialMT-31" x="58.398438"/>
       <use xlink:href="#ArialMT-35" x="114.013672"/>
      </g>
     </g>
    </g>
    <g id="xtick_2">
     <g id="line2d_3">
      <g>
       <use xlink:href="#m10717b1dcf" x="190.685417" y="516.916875" style="stroke: #000000; stroke-width: 0.5"/>
      </g>
     </g>
     <g id="line2d_4">
      <g>
       <use xlink:href="#md7e0e289c8" x="190.685417" y="25.763437" style="stroke: #000000; stroke-width: 0.5"/>
      </g>
     </g>
     <g id="text_2">
      <!-- −10 -->
      <g transform="translate(166.937917 540.95875)scale(0.28 -0.28)">
       <defs>
        <path id="ArialMT-30" d="M 266 2259 
Q 266 3072 433 3567 
Q 600 4063 929 4331 
Q 1259 4600 1759 4600 
Q 2128 4600 2406 4451 
Q 2684 4303 2865 4023 
Q 3047 3744 3150 3342 
Q 3253 2941 3253 2259 
Q 3253 1453 3087 958 
Q 2922 463 2592 192 
Q 2263 -78 1759 -78 
Q 1097 -78 719 397 
Q 266 969 266 2259 
z
M 844 2259 
Q 844 1131 1108 757 
Q 1372 384 1759 384 
Q 2147 384 2411 759 
Q 2675 1134 2675 2259 
Q 2675 3391 2411 3762 
Q 2147 4134 1753 4134 
Q 1366 4134 1134 3806 
Q 844 3388 844 2259 
z
" transform="scale(0.015625)"/>
       </defs>
       <use xlink:href="#ArialMT-2212"/>
       <use xlink:href="#ArialMT-31" x="58.398438"/>
       <use xlink:href="#ArialMT-30" x="114.013672"/>
      </g>
     </g>
    </g>
    <g id="xtick_3">
     <g id="line2d_5">
      <g>
       <use xlink:href="#m10717b1dcf" x="301.210208" y="516.916875" style="stroke: #000000; stroke-width: 0.5"/>
      </g>
     </g>
     <g id="line2d_6">
      <g>
       <use xlink:href="#md7e0e289c8" x="301.210208" y="25.763437" style="stroke: #000000; stroke-width: 0.5"/>
      </g>
     </g>
     <g id="text_3">
      <!-- −5 -->
      <g transform="translate(285.248021 540.95875)scale(0.28 -0.28)">
       <use xlink:href="#ArialMT-2212"/>
       <use xlink:href="#ArialMT-35" x="58.398438"/>
      </g>
     </g>
    </g>
    <g id="xtick_4">
     <g id="line2d_7">
      <g>
       <use xlink:href="#m10717b1dcf" x="411.735" y="516.916875" style="stroke: #000000; stroke-width: 0.5"/>
      </g>
     </g>
     <g id="line2d_8">
      <g>
       <use xlink:href="#md7e0e289c8" x="411.735" y="25.763437" style="stroke: #000000; stroke-width: 0.5"/>
      </g>
     </g>
     <g id="text_4">
      <!-- 0 -->
      <g transform="translate(403.949688 540.95875)scale(0.28 -0.28)">
       <use xlink:href="#ArialMT-30"/>
      </g>
     </g>
    </g>
    <g id="xtick_5">
     <g id="line2d_9">
      <g>
       <use xlink:href="#m10717b1dcf" x="522.259792" y="516.916875" style="stroke: #000000; stroke-width: 0.5"/>
      </g>
     </g>
     <g id="line2d_10">
      <g>
       <use xlink:href="#md7e0e289c8" x="522.259792" y="25.763437" style="stroke: #000000; stroke-width: 0.5"/>
      </g>
     </g>
     <g id="text_5">
      <!-- 5 -->
      <g transform="translate(514.474479 540.95875)scale(0.28 -0.28)">
       <use xlink:href="#ArialMT-35"/>
      </g>
     </g>
    </g>
    <g id="xtick_6">
     <g id="line2d_11">
      <g>
       <use xlink:href="#m10717b1dcf" x="632.784583" y="516.916875" style="stroke: #000000; stroke-width: 0.5"/>
      </g>
     </g>
     <g id="line2d_12">
      <g>
       <use xlink:href="#md7e0e289c8" x="632.784583" y="25.763437" style="stroke: #000000; stroke-width: 0.5"/>
      </g>
     </g>
     <g id="text_6">
      <!-- 10 -->
      <g transform="translate(617.213958 540.95875)scale(0.28 -0.28)">
       <use xlink:href="#ArialMT-31"/>
       <use xlink:href="#ArialMT-30" x="55.615234"/>
      </g>
     </g>
    </g>
    <g id="xtick_7">
     <g id="line2d_13">
      <g>
       <use xlink:href="#m10717b1dcf" x="743.309375" y="516.916875" style="stroke: #000000; stroke-width: 0.5"/>
      </g>
     </g>
     <g id="line2d_14">
      <g>
       <use xlink:href="#md7e0e289c8" x="743.309375" y="25.763437" style="stroke: #000000; stroke-width: 0.5"/>
      </g>
     </g>
     <g id="text_7">
      <!-- 15 -->
      <g transform="translate(727.73875 540.95875)scale(0.28 -0.28)">
       <use xlink:href="#ArialMT-31"/>
       <use xlink:href="#ArialMT-35" x="55.615234"/>
      </g>
     </g>
    </g>
    <g id="text_8">
     <!-- PC1 (68.5%) -->
     <g transform="translate(331.59375 571.906875)scale(0.28 -0.28)">
      <defs>
       <path id="Arial-BoldMT-50" d="M 466 0 
L 466 4581 
L 1950 4581 
Q 2794 4581 3050 4513 
Q 3444 4409 3709 4064 
Q 3975 3719 3975 3172 
Q 3975 2750 3822 2462 
Q 3669 2175 3433 2011 
Q 3197 1847 2953 1794 
Q 2622 1728 1994 1728 
L 1391 1728 
L 1391 0 
L 466 0 
z
M 1391 3806 
L 1391 2506 
L 1897 2506 
Q 2444 2506 2628 2578 
Q 2813 2650 2917 2803 
Q 3022 2956 3022 3159 
Q 3022 3409 2875 3571 
Q 2728 3734 2503 3775 
Q 2338 3806 1838 3806 
L 1391 3806 
z
" transform="scale(0.015625)"/>
       <path id="Arial-BoldMT-43" d="M 3397 1684 
L 4294 1400 
Q 4088 650 3608 286 
Q 3128 -78 2391 -78 
Q 1478 -78 890 545 
Q 303 1169 303 2250 
Q 303 3394 893 4026 
Q 1484 4659 2447 4659 
Q 3288 4659 3813 4163 
Q 4125 3869 4281 3319 
L 3366 3100 
Q 3284 3456 3026 3662 
Q 2769 3869 2400 3869 
Q 1891 3869 1573 3503 
Q 1256 3138 1256 2319 
Q 1256 1450 1568 1081 
Q 1881 713 2381 713 
Q 2750 713 3015 947 
Q 3281 1181 3397 1684 
z
" transform="scale(0.015625)"/>
       <path id="Arial-BoldMT-31" d="M 2519 0 
L 1641 0 
L 1641 3309 
Q 1159 2859 506 2644 
L 506 3441 
Q 850 3553 1253 3867 
Q 1656 4181 1806 4600 
L 2519 4600 
L 2519 0 
z
" transform="scale(0.015625)"/>
       <path id="Arial-BoldMT-20" transform="scale(0.015625)"/>
       <path id="Arial-BoldMT-28" d="M 1916 -1347 
L 1313 -1347 
Q 834 -625 584 153 
Q 334 931 334 1659 
Q 334 2563 644 3369 
Q 913 4069 1325 4659 
L 1925 4659 
Q 1497 3713 1336 3048 
Q 1175 2384 1175 1641 
Q 1175 1128 1270 590 
Q 1366 53 1531 -431 
Q 1641 -750 1916 -1347 
z
" transform="scale(0.015625)"/>
       <path id="Arial-BoldMT-36" d="M 3247 3459 
L 2397 3366 
Q 2366 3628 2234 3753 
Q 2103 3878 1894 3878 
Q 1616 3878 1423 3628 
Q 1231 3378 1181 2588 
Q 1509 2975 1997 2975 
Q 2547 2975 2939 2556 
Q 3331 2138 3331 1475 
Q 3331 772 2918 347 
Q 2506 -78 1859 -78 
Q 1166 -78 719 461 
Q 272 1000 272 2228 
Q 272 3488 737 4044 
Q 1203 4600 1947 4600 
Q 2469 4600 2811 4308 
Q 3153 4016 3247 3459 
z
M 1256 1544 
Q 1256 1116 1453 883 
Q 1650 650 1903 650 
Q 2147 650 2309 840 
Q 2472 1031 2472 1466 
Q 2472 1913 2297 2120 
Q 2122 2328 1859 2328 
Q 1606 2328 1431 2129 
Q 1256 1931 1256 1544 
z
" transform="scale(0.015625)"/>
       <path id="Arial-BoldMT-38" d="M 1025 2472 
Q 684 2616 529 2867 
Q 375 3119 375 3419 
Q 375 3931 733 4265 
Q 1091 4600 1750 4600 
Q 2403 4600 2764 4265 
Q 3125 3931 3125 3419 
Q 3125 3100 2959 2851 
Q 2794 2603 2494 2472 
Q 2875 2319 3073 2025 
Q 3272 1731 3272 1347 
Q 3272 713 2867 316 
Q 2463 -81 1791 -81 
Q 1166 -81 750 247 
Q 259 634 259 1309 
Q 259 1681 443 1992 
Q 628 2303 1025 2472 
z
M 1206 3356 
Q 1206 3094 1354 2947 
Q 1503 2800 1750 2800 
Q 2000 2800 2150 2948 
Q 2300 3097 2300 3359 
Q 2300 3606 2151 3754 
Q 2003 3903 1759 3903 
Q 1506 3903 1356 3753 
Q 1206 3603 1206 3356 
z
M 1125 1394 
Q 1125 1031 1311 828 
Q 1497 625 1775 625 
Q 2047 625 2225 820 
Q 2403 1016 2403 1384 
Q 2403 1706 2222 1901 
Q 2041 2097 1763 2097 
Q 1441 2097 1283 1875 
Q 1125 1653 1125 1394 
z
" transform="scale(0.015625)"/>
       <path id="Arial-BoldMT-2e" d="M 459 0 
L 459 878 
L 1338 878 
L 1338 0 
L 459 0 
z
" transform="scale(0.015625)"/>
       <path id="Arial-BoldMT-35" d="M 284 1178 
L 1159 1269 
Q 1197 972 1381 798 
Q 1566 625 1806 625 
Q 2081 625 2272 848 
Q 2463 1072 2463 1522 
Q 2463 1944 2273 2155 
Q 2084 2366 1781 2366 
Q 1403 2366 1103 2031 
L 391 2134 
L 841 4519 
L 3163 4519 
L 3163 3697 
L 1506 3697 
L 1369 2919 
Q 1663 3066 1969 3066 
Q 2553 3066 2959 2641 
Q 3366 2216 3366 1538 
Q 3366 972 3038 528 
Q 2591 -78 1797 -78 
Q 1163 -78 763 262 
Q 363 603 284 1178 
z
" transform="scale(0.015625)"/>
       <path id="Arial-BoldMT-25" d="M 278 3450 
Q 278 4066 548 4362 
Q 819 4659 1281 4659 
Q 1759 4659 2029 4364 
Q 2300 4069 2300 3450 
Q 2300 2834 2029 2537 
Q 1759 2241 1297 2241 
Q 819 2241 548 2536 
Q 278 2831 278 3450 
z
M 963 3456 
Q 963 3009 1066 2856 
Q 1144 2744 1281 2744 
Q 1422 2744 1500 2856 
Q 1600 3009 1600 3456 
Q 1600 3903 1500 4053 
Q 1422 4169 1281 4169 
Q 1144 4169 1066 4056 
Q 963 3903 963 3456 
z
M 1950 -175 
L 1300 -175 
L 3741 4659 
L 4372 4659 
L 1950 -175 
z
M 3369 1028 
Q 3369 1644 3639 1941 
Q 3909 2238 4378 2238 
Q 4850 2238 5120 1941 
Q 5391 1644 5391 1028 
Q 5391 409 5120 112 
Q 4850 -184 4388 -184 
Q 3909 -184 3639 112 
Q 3369 409 3369 1028 
z
M 4053 1031 
Q 4053 584 4156 434 
Q 4234 319 4372 319 
Q 4513 319 4588 431 
Q 4691 584 4691 1031 
Q 4691 1478 4591 1631 
Q 4513 1744 4372 1744 
Q 4231 1744 4156 1631 
Q 4053 1478 4053 1031 
z
" transform="scale(0.015625)"/>
       <path id="Arial-BoldMT-29" d="M 216 -1347 
Q 475 -791 581 -494 
Q 688 -197 778 190 
Q 869 578 912 926 
Q 956 1275 956 1641 
Q 956 2384 797 3048 
Q 638 3713 209 4659 
L 806 4659 
Q 1278 3988 1539 3234 
Q 1800 2481 1800 1706 
Q 1800 1053 1594 306 
Q 1359 -531 822 -1347 
L 216 -1347 
z
" transform="scale(0.015625)"/>
      </defs>
      <use xlink:href="#Arial-BoldMT-50"/>
      <use xlink:href="#Arial-BoldMT-43" x="66.699219"/>
      <use xlink:href="#Arial-BoldMT-31" x="138.916016"/>
      <use xlink:href="#Arial-BoldMT-20" x="194.53125"/>
      <use xlink:href="#Arial-BoldMT-28" x="222.314453"/>
      <use xlink:href="#Arial-BoldMT-36" x="255.615234"/>
      <use xlink:href="#Arial-BoldMT-38" x="311.230469"/>
      <use xlink:href="#Arial-BoldMT-2e" x="366.845703"/>
      <use xlink:href="#Arial-BoldMT-35" x="394.628906"/>
      <use xlink:href="#Arial-BoldMT-25" x="450.244141"/>
      <use xlink:href="#Arial-BoldMT-29" x="539.160156"/>
     </g>
    </g>
   </g>
   <g id="matplotlib.axis_2">
    <g id="ytick_1">
     <g id="line2d_15">
      <defs>
       <path id="m1e7fca8577" d="M 0 0 
L 4 0 
" style="stroke: #000000; stroke-width: 0.5"/>
      </defs>
      <g>
       <use xlink:href="#m1e7fca8577" x="80.160625" y="516.916875" style="stroke: #000000; stroke-width: 0.5"/>
      </g>
     </g>
     <g id="line2d_16">
      <defs>
       <path id="m479663ec3d" d="M 0 0 
L -4 0 
" style="stroke: #000000; stroke-width: 0.5"/>
      </defs>
      <g>
       <use xlink:href="#m479663ec3d" x="743.309375" y="516.916875" style="stroke: #000000; stroke-width: 0.5"/>
      </g>
     </g>
     <g id="text_9">
      <!-- −8 -->
      <g transform="translate(44.23625 524.155313)scale(0.28 -0.28)">
       <defs>
        <path id="ArialMT-38" d="M 1131 2484 
Q 781 2613 612 2850 
Q 444 3088 444 3419 
Q 444 3919 803 4259 
Q 1163 4600 1759 4600 
Q 2359 4600 2725 4251 
Q 3091 3903 3091 3403 
Q 3091 3084 2923 2848 
Q 2756 2613 2416 2484 
Q 2838 2347 3058 2040 
Q 3278 1734 3278 1309 
Q 3278 722 2862 322 
Q 2447 -78 1769 -78 
Q 1091 -78 675 323 
Q 259 725 259 1325 
Q 259 1772 486 2073 
Q 713 2375 1131 2484 
z
M 1019 3438 
Q 1019 3113 1228 2906 
Q 1438 2700 1772 2700 
Q 2097 2700 2305 2904 
Q 2513 3109 2513 3406 
Q 2513 3716 2298 3927 
Q 2084 4138 1766 4138 
Q 1444 4138 1231 3931 
Q 1019 3725 1019 3438 
z
M 838 1322 
Q 838 1081 952 856 
Q 1066 631 1291 507 
Q 1516 384 1775 384 
Q 2178 384 2440 643 
Q 2703 903 2703 1303 
Q 2703 1709 2433 1975 
Q 2163 2241 1756 2241 
Q 1359 2241 1098 1978 
Q 838 1716 838 1322 
z
" transform="scale(0.015625)"/>
       </defs>
       <use xlink:href="#ArialMT-2212"/>
       <use xlink:href="#ArialMT-38" x="58.398438"/>
      </g>
     </g>
    </g>
    <g id="ytick_2">
     <g id="line2d_17">
      <g>
       <use xlink:href="#m1e7fca8577" x="80.160625" y="446.752098" style="stroke: #000000; stroke-width: 0.5"/>
      </g>
     </g>
     <g id="line2d_18">
      <g>
       <use xlink:href="#m479663ec3d" x="743.309375" y="446.752098" style="stroke: #000000; stroke-width: 0.5"/>
      </g>
     </g>
     <g id="text_10">
      <!-- −6 -->
      <g transform="translate(44.23625 453.990536)scale(0.28 -0.28)">
       <defs>
        <path id="ArialMT-36" d="M 3184 3459 
L 2625 3416 
Q 2550 3747 2413 3897 
Q 2184 4138 1850 4138 
Q 1581 4138 1378 3988 
Q 1113 3794 959 3422 
Q 806 3050 800 2363 
Q 1003 2672 1297 2822 
Q 1591 2972 1913 2972 
Q 2475 2972 2870 2558 
Q 3266 2144 3266 1488 
Q 3266 1056 3080 686 
Q 2894 316 2569 119 
Q 2244 -78 1831 -78 
Q 1128 -78 684 439 
Q 241 956 241 2144 
Q 241 3472 731 4075 
Q 1159 4600 1884 4600 
Q 2425 4600 2770 4297 
Q 3116 3994 3184 3459 
z
M 888 1484 
Q 888 1194 1011 928 
Q 1134 663 1356 523 
Q 1578 384 1822 384 
Q 2178 384 2434 671 
Q 2691 959 2691 1453 
Q 2691 1928 2437 2201 
Q 2184 2475 1800 2475 
Q 1419 2475 1153 2201 
Q 888 1928 888 1484 
z
" transform="scale(0.015625)"/>
       </defs>
       <use xlink:href="#ArialMT-2212"/>
       <use xlink:href="#ArialMT-36" x="58.398438"/>
      </g>
     </g>
    </g>
    <g id="ytick_3">
     <g id="line2d_19">
      <g>
       <use xlink:href="#m1e7fca8577" x="80.160625" y="376.587321" style="stroke: #000000; stroke-width: 0.5"/>
      </g>
     </g>
     <g id="line2d_20">
      <g>
       <use xlink:href="#m479663ec3d" x="743.309375" y="376.587321" style="stroke: #000000; stroke-width: 0.5"/>
      </g>
     </g>
     <g id="text_11">
      <!-- −4 -->
      <g transform="translate(44.23625 383.825759)scale(0.28 -0.28)">
       <defs>
        <path id="ArialMT-34" d="M 2069 0 
L 2069 1097 
L 81 1097 
L 81 1613 
L 2172 4581 
L 2631 4581 
L 2631 1613 
L 3250 1613 
L 3250 1097 
L 2631 1097 
L 2631 0 
L 2069 0 
z
M 2069 1613 
L 2069 3678 
L 634 1613 
L 2069 1613 
z
" transform="scale(0.015625)"/>
       </defs>
       <use xlink:href="#ArialMT-2212"/>
       <use xlink:href="#ArialMT-34" x="58.398438"/>
      </g>
     </g>
    </g>
    <g id="ytick_4">
     <g id="line2d_21">
      <g>
       <use xlink:href="#m1e7fca8577" x="80.160625" y="306.422545" style="stroke: #000000; stroke-width: 0.5"/>
      </g>
     </g>
     <g id="line2d_22">
      <g>
       <use xlink:href="#m479663ec3d" x="743.309375" y="306.422545" style="stroke: #000000; stroke-width: 0.5"/>
      </g>
     </g>
     <g id="text_12">
      <!-- −2 -->
      <g transform="translate(44.23625 313.660982)scale(0.28 -0.28)">
       <defs>
        <path id="ArialMT-32" d="M 3222 541 
L 3222 0 
L 194 0 
Q 188 203 259 391 
Q 375 700 629 1000 
Q 884 1300 1366 1694 
Q 2113 2306 2375 2664 
Q 2638 3022 2638 3341 
Q 2638 3675 2398 3904 
Q 2159 4134 1775 4134 
Q 1369 4134 1125 3890 
Q 881 3647 878 3216 
L 300 3275 
Q 359 3922 746 4261 
Q 1134 4600 1788 4600 
Q 2447 4600 2831 4234 
Q 3216 3869 3216 3328 
Q 3216 3053 3103 2787 
Q 2991 2522 2730 2228 
Q 2469 1934 1863 1422 
Q 1356 997 1212 845 
Q 1069 694 975 541 
L 3222 541 
z
" transform="scale(0.015625)"/>
       </defs>
       <use xlink:href="#ArialMT-2212"/>
       <use xlink:href="#ArialMT-32" x="58.398438"/>
      </g>
     </g>
    </g>
    <g id="ytick_5">
     <g id="line2d_23">
      <g>
       <use xlink:href="#m1e7fca8577" x="80.160625" y="236.257768" style="stroke: #000000; stroke-width: 0.5"/>
      </g>
     </g>
     <g id="line2d_24">
      <g>
       <use xlink:href="#m479663ec3d" x="743.309375" y="236.257768" style="stroke: #000000; stroke-width: 0.5"/>
      </g>
     </g>
     <g id="text_13">
      <!-- 0 -->
      <g transform="translate(60.59 243.496205)scale(0.28 -0.28)">
       <use xlink:href="#ArialMT-30"/>
      </g>
     </g>
    </g>
    <g id="ytick_6">
     <g id="line2d_25">
      <g>
       <use xlink:href="#m1e7fca8577" x="80.160625" y="166.092991" style="stroke: #000000; stroke-width: 0.5"/>
      </g>
     </g>
     <g id="line2d_26">
      <g>
       <use xlink:href="#m479663ec3d" x="743.309375" y="166.092991" style="stroke: #000000; stroke-width: 0.5"/>
      </g>
     </g>
     <g id="text_14">
      <!-- 2 -->
      <g transform="translate(60.59 173.331429)scale(0.28 -0.28)">
       <use xlink:href="#ArialMT-32"/>
      </g>
     </g>
    </g>
    <g id="ytick_7">
     <g id="line2d_27">
      <g>
       <use xlink:href="#m1e7fca8577" x="80.160625" y="95.928214" style="stroke: #000000; stroke-width: 0.5"/>
      </g>
     </g>
     <g id="line2d_28">
      <g>
       <use xlink:href="#m479663ec3d" x="743.309375" y="95.928214" style="stroke: #000000; stroke-width: 0.5"/>
      </g>
     </g>
     <g id="text_15">
      <!-- 4 -->
      <g transform="translate(60.59 103.166652)scale(0.28 -0.28)">
       <use xlink:href="#ArialMT-34"/>
      </g>
     </g>
    </g>
    <g id="ytick_8">
     <g id="line2d_29">
      <g>
       <use xlink:href="#m1e7fca8577" x="80.160625" y="25.763437" style="stroke: #000000; stroke-width: 0.5"/>
      </g>
     </g>
     <g id="line2d_30">
      <g>
       <use xlink:href="#m479663ec3d" x="743.309375" y="25.763437" style="stroke: #000000; stroke-width: 0.5"/>
      </g>
     </g>
     <g id="text_16">
      <!-- 6 -->
      <g transform="translate(60.59 33.001875)scale(0.28 -0.28)">
       <use xlink:href="#ArialMT-36"/>
      </g>
     </g>
    </g>
    <g id="text_17">
     <!-- PC2 (14.2%) -->
     <g transform="translate(33.343125 351.481406)rotate(-90)scale(0.28 -0.28)">
      <defs>
       <path id="Arial-BoldMT-32" d="M 3238 816 
L 3238 0 
L 159 0 
Q 209 463 459 877 
Q 709 1291 1447 1975 
Q 2041 2528 2175 2725 
Q 2356 2997 2356 3263 
Q 2356 3556 2198 3714 
Q 2041 3872 1763 3872 
Q 1488 3872 1325 3706 
Q 1163 3541 1138 3156 
L 263 3244 
Q 341 3969 753 4284 
Q 1166 4600 1784 4600 
Q 2463 4600 2850 4234 
Q 3238 3869 3238 3325 
Q 3238 3016 3127 2736 
Q 3016 2456 2775 2150 
Q 2616 1947 2200 1565 
Q 1784 1184 1673 1059 
Q 1563 934 1494 816 
L 3238 816 
z
" transform="scale(0.015625)"/>
       <path id="Arial-BoldMT-34" d="M 1994 0 
L 1994 922 
L 119 922 
L 119 1691 
L 2106 4600 
L 2844 4600 
L 2844 1694 
L 3413 1694 
L 3413 922 
L 2844 922 
L 2844 0 
L 1994 0 
z
M 1994 1694 
L 1994 3259 
L 941 1694 
L 1994 1694 
z
" transform="scale(0.015625)"/>
      </defs>
      <use xlink:href="#Arial-BoldMT-50"/>
      <use xlink:href="#Arial-BoldMT-43" x="66.699219"/>
      <use xlink:href="#Arial-BoldMT-32" x="138.916016"/>
      <use xlink:href="#Arial-BoldMT-20" x="194.53125"/>
      <use xlink:href="#Arial-BoldMT-28" x="222.314453"/>
      <use xlink:href="#Arial-BoldMT-31" x="255.615234"/>
      <use xlink:href="#Arial-BoldMT-34" x="311.230469"/>
      <use xlink:href="#Arial-BoldMT-2e" x="366.845703"/>
      <use xlink:href="#Arial-BoldMT-32" x="394.628906"/>
      <use xlink:href="#Arial-BoldMT-25" x="450.244141"/>
      <use xlink:href="#Arial-BoldMT-29" x="539.160156"/>
     </g>
    </g>
   </g>
   <g id="legend_1">
    <g id="patch_13">
     <path d="M 611.039375 248.655937 
L 726.509375 248.655937 
Q 731.309375 248.655937 731.309375 243.855937 
L 731.309375 42.563437 
Q 731.309375 37.763438 726.509375 37.763438 
L 611.039375 37.763438 
Q 606.239375 37.763438 606.239375 42.563437 
L 606.239375 243.855937 
Q 606.239375 248.655937 611.039375 248.655937 
z
" style="fill: #ffffff; stroke: #000000; stroke-linejoin: miter"/>
    </g>
    <g id="PathCollection_7">
     <path d="M 623.039375 62.985604 
C 624.297344 62.985604 625.503959 62.485808 626.393477 61.596289 
C 627.282995 60.706771 627.782791 59.500156 627.782791 58.242188 
C 627.782791 56.984219 627.282995 55.777604 626.393477 54.888086 
C 625.503959 53.998567 624.297344 53.498771 623.039375 53.498771 
C 621.781406 53.498771 620.574791 53.998567 619.685273 54.888086 
C 618.795755 55.777604 618.295959 56.984219 618.295959 58.242188 
C 618.295959 59.500156 618.795755 60.706771 619.685273 61.596289 
C 620.574791 62.485808 621.781406 62.985604 623.039375 62.985604 
z
" style="fill: #ff0000; stroke: #000000"/>
     <path d="M 639.839375 60.885604 
C 641.097344 60.885604 642.303959 60.385808 643.193477 59.496289 
C 644.082995 58.606771 644.582791 57.400156 644.582791 56.142187 
C 644.582791 54.884219 644.082995 53.677604 643.193477 52.788086 
C 642.303959 51.898567 641.097344 51.398771 639.839375 51.398771 
C 638.581406 51.398771 637.374791 51.898567 636.485273 52.788086 
C 635.595755 53.677604 635.095959 54.884219 635.095959 56.142187 
C 635.095959 57.400156 635.595755 58.606771 636.485273 59.496289 
C 637.374791 60.385808 638.581406 60.885604 639.839375 60.885604 
z
" style="fill: #ff0000; stroke: #000000"/>
     <path d="M 656.639375 64.035604 
C 657.897344 64.035604 659.103959 63.535808 659.993477 62.646289 
C 660.882995 61.756771 661.382791 60.550156 661.382791 59.292187 
C 661.382791 58.034219 660.882995 56.827604 659.993477 55.938086 
C 659.103959 55.048567 657.897344 54.548771 656.639375 54.548771 
C 655.381406 54.548771 654.174791 55.048567 653.285273 55.938086 
C 652.395755 56.827604 651.895959 58.034219 651.895959 59.292187 
C 651.895959 60.550156 652.395755 61.756771 653.285273 62.646289 
C 654.174791 63.535808 655.381406 64.035604 656.639375 64.035604 
z
" style="fill: #ff0000; stroke: #000000"/>
    </g>
    <g id="text_18">
     <!-- 0-A -->
     <g transform="translate(683.039375 64.542187)scale(0.24 -0.24)">
      <defs>
       <path id="ArialMT-2d" d="M 203 1375 
L 203 1941 
L 1931 1941 
L 1931 1375 
L 203 1375 
z
" transform="scale(0.015625)"/>
       <path id="ArialMT-41" d="M -9 0 
L 1750 4581 
L 2403 4581 
L 4278 0 
L 3588 0 
L 3053 1388 
L 1138 1388 
L 634 0 
L -9 0 
z
M 1313 1881 
L 2866 1881 
L 2388 3150 
Q 2169 3728 2063 4100 
Q 1975 3659 1816 3225 
L 1313 1881 
z
" transform="scale(0.015625)"/>
      </defs>
      <use xlink:href="#ArialMT-30"/>
      <use xlink:href="#ArialMT-2d" x="55.615234"/>
      <use xlink:href="#ArialMT-41" x="88.916016"/>
     </g>
    </g>
    <g id="PathCollection_8">
     <path d="M 623.039375 96.934354 
L 627.782791 87.447521 
L 618.295959 87.447521 
z
" style="fill: #0000ff; stroke: #000000"/>
     <path d="M 639.839375 94.834354 
L 644.582791 85.347521 
L 635.095959 85.347521 
z
" style="fill: #0000ff; stroke: #000000"/>
     <path d="M 656.639375 97.984354 
L 661.382791 88.497521 
L 651.895959 88.497521 
z
" style="fill: #0000ff; stroke: #000000"/>
    </g>
    <g id="text_19">
     <!-- 0-B -->
     <g transform="translate(683.039375 98.490937)scale(0.24 -0.24)">
      <defs>
       <path id="ArialMT-42" d="M 469 0 
L 469 4581 
L 2188 4581 
Q 2713 4581 3030 4442 
Q 3347 4303 3526 4014 
Q 3706 3725 3706 3409 
Q 3706 3116 3547 2856 
Q 3388 2597 3066 2438 
Q 3481 2316 3704 2022 
Q 3928 1728 3928 1328 
Q 3928 1006 3792 729 
Q 3656 453 3456 303 
Q 3256 153 2954 76 
Q 2653 0 2216 0 
L 469 0 
z
M 1075 2656 
L 2066 2656 
Q 2469 2656 2644 2709 
Q 2875 2778 2992 2937 
Q 3109 3097 3109 3338 
Q 3109 3566 3000 3739 
Q 2891 3913 2687 3977 
Q 2484 4041 1991 4041 
L 1075 4041 
L 1075 2656 
z
M 1075 541 
L 2216 541 
Q 2509 541 2628 563 
Q 2838 600 2978 687 
Q 3119 775 3209 942 
Q 3300 1109 3300 1328 
Q 3300 1584 3169 1773 
Q 3038 1963 2805 2039 
Q 2572 2116 2134 2116 
L 1075 2116 
L 1075 541 
z
" transform="scale(0.015625)"/>
      </defs>
      <use xlink:href="#ArialMT-30"/>
      <use xlink:href="#ArialMT-2d" x="55.615234"/>
      <use xlink:href="#ArialMT-42" x="88.916016"/>
     </g>
    </g>
    <g id="PathCollection_9">
     <path d="M 618.295959 130.883104 
L 627.782791 130.883104 
L 627.782791 121.396271 
L 618.295959 121.396271 
z
" style="fill: #008000; stroke: #000000"/>
     <path d="M 635.095959 128.783104 
L 644.582791 128.783104 
L 644.582791 119.296271 
L 635.095959 119.296271 
z
" style="fill: #008000; stroke: #000000"/>
     <path d="M 651.895959 131.933104 
L 661.382791 131.933104 
L 661.382791 122.446271 
L 651.895959 122.446271 
z
" style="fill: #008000; stroke: #000000"/>
    </g>
    <g id="text_20">
     <!-- 0-C -->
     <g transform="translate(683.039375 132.439687)scale(0.24 -0.24)">
      <defs>
       <path id="ArialMT-43" d="M 3763 1606 
L 4369 1453 
Q 4178 706 3683 314 
Q 3188 -78 2472 -78 
Q 1731 -78 1267 223 
Q 803 525 561 1097 
Q 319 1669 319 2325 
Q 319 3041 592 3573 
Q 866 4106 1370 4382 
Q 1875 4659 2481 4659 
Q 3169 4659 3637 4309 
Q 4106 3959 4291 3325 
L 3694 3184 
Q 3534 3684 3231 3912 
Q 2928 4141 2469 4141 
Q 1941 4141 1586 3887 
Q 1231 3634 1087 3207 
Q 944 2781 944 2328 
Q 944 1744 1114 1308 
Q 1284 872 1643 656 
Q 2003 441 2422 441 
Q 2931 441 3284 734 
Q 3638 1028 3763 1606 
z
" transform="scale(0.015625)"/>
      </defs>
      <use xlink:href="#ArialMT-30"/>
      <use xlink:href="#ArialMT-2d" x="55.615234"/>
      <use xlink:href="#ArialMT-43" x="88.916016"/>
     </g>
    </g>
    <g id="PathCollection_10">
     <path d="M 623.039375 155.345021 
L 618.528118 158.622641 
L 620.251265 163.925942 
L 625.827485 163.925942 
L 627.550632 158.622641 
z
" style="fill: #00bfbf; stroke: #000000"/>
     <path d="M 639.839375 153.245021 
L 635.328118 156.522641 
L 637.051265 161.825942 
L 642.627485 161.825942 
L 644.350632 156.522641 
z
" style="fill: #00bfbf; stroke: #000000"/>
     <path d="M 656.639375 156.395021 
L 652.128118 159.672641 
L 653.851265 164.975942 
L 659.427485 164.975942 
L 661.150632 159.672641 
z
" style="fill: #00bfbf; stroke: #000000"/>
    </g>
    <g id="text_21">
     <!-- 1-A -->
     <g transform="translate(683.039375 166.388437)scale(0.24 -0.24)">
      <use xlink:href="#ArialMT-31"/>
      <use xlink:href="#ArialMT-2d" x="55.615234"/>
      <use xlink:href="#ArialMT-41" x="88.916016"/>
     </g>
    </g>
    <g id="PathCollection_11">
     <path d="M 621.458236 198.780604 
L 624.620514 198.780604 
L 624.620514 195.618326 
L 627.782791 195.618326 
L 627.782791 192.456049 
L 624.620514 192.456049 
L 624.620514 189.293771 
L 621.458236 189.293771 
L 621.458236 192.456049 
L 618.295959 192.456049 
L 618.295959 195.618326 
L 621.458236 195.618326 
z
" style="fill: #bf00bf; stroke: #000000"/>
     <path d="M 638.258236 196.680604 
L 641.420514 196.680604 
L 641.420514 193.518326 
L 644.582791 193.518326 
L 644.582791 190.356049 
L 641.420514 190.356049 
L 641.420514 187.193771 
L 638.258236 187.193771 
L 638.258236 190.356049 
L 635.095959 190.356049 
L 635.095959 193.518326 
L 638.258236 193.518326 
z
" style="fill: #bf00bf; stroke: #000000"/>
     <path d="M 655.058236 199.830604 
L 658.220514 199.830604 
L 658.220514 196.668326 
L 661.382791 196.668326 
L 661.382791 193.506049 
L 658.220514 193.506049 
L 658.220514 190.343771 
L 655.058236 190.343771 
L 655.058236 193.506049 
L 651.895959 193.506049 
L 651.895959 196.668326 
L 655.058236 196.668326 
z
" style="fill: #bf00bf; stroke: #000000"/>
    </g>
    <g id="text_22">
     <!-- 1-B -->
     <g transform="translate(683.039375 200.337187)scale(0.24 -0.24)">
      <use xlink:href="#ArialMT-31"/>
      <use xlink:href="#ArialMT-2d" x="55.615234"/>
      <use xlink:href="#ArialMT-42" x="88.916016"/>
     </g>
    </g>
    <g id="PathCollection_12">
     <path d="M 623.039375 223.242521 
L 621.974412 226.520141 
L 618.528118 226.520141 
L 621.316228 228.545822 
L 620.251265 231.823442 
L 623.039375 229.797761 
L 625.827485 231.823442 
L 624.762522 228.545822 
L 627.550632 226.520141 
L 624.104338 226.520141 
z
" style="fill: #bfbf00; stroke: #000000"/>
     <path d="M 639.839375 221.142521 
L 638.774412 224.420141 
L 635.328118 224.420141 
L 638.116228 226.445822 
L 637.051265 229.723442 
L 639.839375 227.697761 
L 642.627485 229.723442 
L 641.562522 226.445822 
L 644.350632 224.420141 
L 640.904338 224.420141 
z
" style="fill: #bfbf00; stroke: #000000"/>
     <path d="M 656.639375 224.292521 
L 655.574412 227.570141 
L 652.128118 227.570141 
L 654.916228 229.595822 
L 653.851265 232.873442 
L 656.639375 230.847761 
L 659.427485 232.873442 
L 658.362522 229.595822 
L 661.150632 227.570141 
L 657.704338 227.570141 
z
" style="fill: #bfbf00; stroke: #000000"/>
    </g>
    <g id="text_23">
     <!-- 1-C -->
     <g transform="translate(683.039375 234.285937)scale(0.24 -0.24)">
      <use xlink:href="#ArialMT-31"/>
      <use xlink:href="#ArialMT-2d" x="55.615234"/>
      <use xlink:href="#ArialMT-43" x="88.916016"/>
     </g>
    </g>
   </g>
  </g>
 </g>
 <defs>
  <clipPath id="p637cd0ea16">
   <rect x="80.160625" y="25.763437" width="663.14875" height="491.153438"/>
  </clipPath>
 </defs>
</svg>
