<?xml version="1.0" encoding="utf-8" standalone="no"?>
<!DOCTYPE svg PUBLIC "-//W3C//DTD SVG 1.1//EN"
  "http://www.w3.org/Graphics/SVG/1.1/DTD/svg11.dtd">
<svg xmlns:xlink="http://www.w3.org/1999/xlink" width="771.84pt" height="590.76pt" viewBox="0 0 771.84 590.76" xmlns="http://www.w3.org/2000/svg" version="1.1">
 <metadata>
  <rdf:RDF xmlns:dc="http://purl.org/dc/elements/1.1/" xmlns:cc="http://creativecommons.org/ns#" xmlns:rdf="http://www.w3.org/1999/02/22-rdf-syntax-ns#">
   <cc:Work>
    <dc:type rdf:resource="http://purl.org/dc/dcmitype/StillImage"/>
    <dc:date>2022-06-02T21:34:11.392907</dc:date>
    <dc:format>image/svg+xml</dc:format>
    <dc:creator>
     <cc:Agent>
      <dc:title>Matplotlib v3.5.2, https://matplotlib.org/</dc:title>
     </cc:Agent>
    </dc:creator>
   </cc:Work>
  </rdf:RDF>
 </metadata>
 <defs>
  <style type="text/css">*{stroke-linejoin: round; stroke-linecap: butt}</style>
 </defs>
 <g id="figure_1">
  <g id="patch_1">
   <path d="M 0 590.76 
L 771.84 590.76 
L 771.84 0 
L 0 0 
z
" style="fill: #ffffff"/>
  </g>
  <g id="axes_1">
   <g id="patch_2">
    <path d="M 110.51875 517.625625 
L 758.88 517.625625 
L 758.88 25.763437 
L 110.51875 25.763437 
z
" style="fill: #ffffff"/>
   </g>
   <g id="patch_3">
    <path d="M 117.175259 412.10251 
L 134.1191 412.10251 
L 134.1191 341.437208 
L 117.175259 341.437208 
L 117.175259 412.10251 
z
" clip-path="url(#p8279957765)" style="fill: #2020df; stroke: #262626; stroke-linejoin: miter"/>
   </g>
   <g id="patch_4">
    <path d="M 134.464892 422.610685 
L 151.408733 422.610685 
L 151.408733 341.771559 
L 134.464892 341.771559 
L 134.464892 422.610685 
z
" clip-path="url(#p8279957765)" style="fill: #107010; stroke: #262626; stroke-linejoin: miter"/>
   </g>
   <g id="patch_5">
    <path d="M 151.754526 361.341948 
L 168.698366 361.341948 
L 168.698366 335.879165 
L 151.754526 335.879165 
L 151.754526 361.341948 
z
" clip-path="url(#p8279957765)" style="fill: #df2020; stroke: #262626; stroke-linejoin: miter"/>
   </g>
   <g id="patch_6">
    <path d="M 182.011384 201.040757 
L 198.955225 201.040757 
L 198.955225 168.127414 
L 182.011384 168.127414 
L 182.011384 201.040757 
z
" clip-path="url(#p8279957765)" style="fill: #2020df; stroke: #262626; stroke-linejoin: miter"/>
   </g>
   <g id="patch_7">
    <path d="M 199.301017 225.455605 
L 216.244858 225.455605 
L 216.244858 158.405873 
L 199.301017 158.405873 
L 199.301017 225.455605 
z
" clip-path="url(#p8279957765)" style="fill: #107010; stroke: #262626; stroke-linejoin: miter"/>
   </g>
   <g id="patch_8">
    <path d="M 216.590651 175.164118 
L 233.534491 175.164118 
L 233.534491 145.593209 
L 216.590651 145.593209 
L 216.590651 175.164118 
z
" clip-path="url(#p8279957765)" style="fill: #df2020; stroke: #262626; stroke-linejoin: miter"/>
   </g>
   <g id="patch_9">
    <path d="M 246.847509 373.948069 
L 263.79135 373.948069 
L 263.79135 350.646098 
L 246.847509 350.646098 
L 246.847509 373.948069 
z
" clip-path="url(#p8279957765)" style="fill: #2020df; stroke: #262626; stroke-linejoin: miter"/>
   </g>
   <g id="patch_10">
    <path d="M 264.137142 372.768368 
L 281.080983 372.768368 
L 281.080983 359.276742 
L 264.137142 359.276742 
L 264.137142 372.768368 
z
" clip-path="url(#p8279957765)" style="fill: #107010; stroke: #262626; stroke-linejoin: miter"/>
   </g>
   <g id="patch_11">
    <path d="M 281.426776 365.025381 
L 298.370616 365.025381 
L 298.370616 358.170052 
L 281.426776 358.170052 
L 281.426776 365.025381 
z
" clip-path="url(#p8279957765)" style="fill: #df2020; stroke: #262626; stroke-linejoin: miter"/>
   </g>
   <g id="patch_12">
    <path d="M 311.683634 419.255109 
L 328.627475 419.255109 
L 328.627475 390.812409 
L 311.683634 390.812409 
L 311.683634 419.255109 
z
" clip-path="url(#p8279957765)" style="fill: #2020df; stroke: #262626; stroke-linejoin: miter"/>
   </g>
   <g id="patch_13">
    <path d="M 328.973267 419.922735 
L 345.917108 419.922735 
L 345.917108 393.373167 
L 328.973267 393.373167 
L 328.973267 419.922735 
z
" clip-path="url(#p8279957765)" style="fill: #107010; stroke: #262626; stroke-linejoin: miter"/>
   </g>
   <g id="patch_14">
    <path d="M 346.262901 399.473257 
L 363.206741 399.473257 
L 363.206741 379.535931 
L 346.262901 379.535931 
L 346.262901 399.473257 
z
" clip-path="url(#p8279957765)" style="fill: #df2020; stroke: #262626; stroke-linejoin: miter"/>
   </g>
   <g id="patch_15">
    <path d="M 376.519759 285.172477 
L 393.4636 285.172477 
L 393.4636 255.726072 
L 376.519759 255.726072 
L 376.519759 285.172477 
z
" clip-path="url(#p8279957765)" style="fill: #2020df; stroke: #262626; stroke-linejoin: miter"/>
   </g>
   <g id="patch_16">
    <path d="M 393.809392 287.845018 
L 410.753233 287.845018 
L 410.753233 259.185092 
L 393.809392 259.185092 
L 393.809392 287.845018 
z
" clip-path="url(#p8279957765)" style="fill: #107010; stroke: #262626; stroke-linejoin: miter"/>
   </g>
   <g id="patch_17">
    <path d="M 411.099026 274.6165 
L 428.042866 274.6165 
L 428.042866 267.444996 
L 411.099026 267.444996 
L 411.099026 274.6165 
z
" clip-path="url(#p8279957765)" style="fill: #df2020; stroke: #262626; stroke-linejoin: miter"/>
   </g>
   <g id="patch_18">
    <path d="M 441.355884 282.612027 
L 458.299725 282.612027 
L 458.299725 255.187636 
L 441.355884 255.187636 
L 441.355884 282.612027 
z
" clip-path="url(#p8279957765)" style="fill: #2020df; stroke: #262626; stroke-linejoin: miter"/>
   </g>
   <g id="patch_19">
    <path d="M 458.645517 289.06403 
L 475.589358 289.06403 
L 475.589358 260.763816 
L 458.645517 260.763816 
L 458.645517 289.06403 
z
" clip-path="url(#p8279957765)" style="fill: #107010; stroke: #262626; stroke-linejoin: miter"/>
   </g>
   <g id="patch_20">
    <path d="M 475.935151 261.166221 
L 492.878991 261.166221 
L 492.878991 250.291148 
L 475.935151 250.291148 
L 475.935151 261.166221 
z
" clip-path="url(#p8279957765)" style="fill: #df2020; stroke: #262626; stroke-linejoin: miter"/>
   </g>
   <g id="patch_21">
    <path d="M 506.192009 455.182183 
L 523.13585 455.182183 
L 523.13585 438.113028 
L 506.192009 438.113028 
L 506.192009 455.182183 
z
" clip-path="url(#p8279957765)" style="fill: #2020df; stroke: #262626; stroke-linejoin: miter"/>
   </g>
   <g id="patch_22">
    <path d="M 523.481642 452.980331 
L 540.425483 452.980331 
L 540.425483 439.630884 
L 523.481642 439.630884 
L 523.481642 452.980331 
z
" clip-path="url(#p8279957765)" style="fill: #107010; stroke: #262626; stroke-linejoin: miter"/>
   </g>
   <g id="patch_23">
    <path d="M 540.771276 449.471971 
L 557.715116 449.471971 
L 557.715116 442.278486 
L 540.771276 442.278486 
L 540.771276 449.471971 
z
" clip-path="url(#p8279957765)" style="fill: #df2020; stroke: #262626; stroke-linejoin: miter"/>
   </g>
   <g id="patch_24">
    <path d="M 571.028134 410.096404 
L 587.971975 410.096404 
L 587.971975 263.589565 
L 571.028134 263.589565 
L 571.028134 410.096404 
z
" clip-path="url(#p8279957765)" style="fill: #2020df; stroke: #262626; stroke-linejoin: miter"/>
   </g>
   <g id="patch_25">
    <path d="M 588.317767 462.593855 
L 605.261608 462.593855 
L 605.261608 286.454009 
L 588.317767 286.454009 
L 588.317767 462.593855 
z
" clip-path="url(#p8279957765)" style="fill: #107010; stroke: #262626; stroke-linejoin: miter"/>
   </g>
   <g id="patch_26">
    <path d="M 605.607401 361.051135 
L 622.551241 361.051135 
L 622.551241 284.57425 
L 605.607401 284.57425 
L 605.607401 361.051135 
z
" clip-path="url(#p8279957765)" style="fill: #df2020; stroke: #262626; stroke-linejoin: miter"/>
   </g>
   <g id="patch_27">
    <path d="M 635.864259 178.5635 
L 652.8081 178.5635 
L 652.8081 122.222224 
L 635.864259 122.222224 
L 635.864259 178.5635 
z
" clip-path="url(#p8279957765)" style="fill: #2020df; stroke: #262626; stroke-linejoin: miter"/>
   </g>
   <g id="patch_28">
    <path d="M 653.153892 184.300611 
L 670.097733 184.300611 
L 670.097733 122.529638 
L 653.153892 122.529638 
L 653.153892 184.300611 
z
" clip-path="url(#p8279957765)" style="fill: #107010; stroke: #262626; stroke-linejoin: miter"/>
   </g>
   <g id="patch_29">
    <path d="M 670.443526 142.611448 
L 687.387366 142.611448 
L 687.387366 121.907124 
L 670.443526 121.907124 
L 670.443526 142.611448 
z
" clip-path="url(#p8279957765)" style="fill: #df2020; stroke: #262626; stroke-linejoin: miter"/>
   </g>
   <g id="patch_30">
    <path d="M 700.700384 270.249686 
L 717.644225 270.249686 
L 717.644225 209.881288 
L 700.700384 209.881288 
L 700.700384 270.249686 
z
" clip-path="url(#p8279957765)" style="fill: #2020df; stroke: #262626; stroke-linejoin: miter"/>
   </g>
   <g id="patch_31">
    <path d="M 717.990017 278.88033 
L 734.933858 278.88033 
L 734.933858 194.103271 
L 717.990017 194.103271 
L 717.990017 278.88033 
z
" clip-path="url(#p8279957765)" style="fill: #107010; stroke: #262626; stroke-linejoin: miter"/>
   </g>
   <g id="patch_32">
    <path d="M 735.279651 229.99384 
L 752.223491 229.99384 
L 752.223491 196.055349 
L 735.279651 196.055349 
L 735.279651 229.99384 
z
" clip-path="url(#p8279957765)" style="fill: #df2020; stroke: #262626; stroke-linejoin: miter"/>
   </g>
   <g id="patch_33">
    <path d="M 142.936813 517.625625 
L 142.936813 517.625625 
L 142.936813 517.625625 
L 142.936813 517.625625 
z
" clip-path="url(#p8279957765)" style="fill: #2020df; stroke: #262626; stroke-width: 0.5; stroke-linejoin: miter"/>
   </g>
   <g id="patch_34">
    <path d="M 142.936813 517.625625 
L 142.936813 517.625625 
L 142.936813 517.625625 
L 142.936813 517.625625 
z
" clip-path="url(#p8279957765)" style="fill: #107010; stroke: #262626; stroke-width: 0.5; stroke-linejoin: miter"/>
   </g>
   <g id="patch_35">
    <path d="M 142.936813 517.625625 
L 142.936813 517.625625 
L 142.936813 517.625625 
L 142.936813 517.625625 
z
" clip-path="url(#p8279957765)" style="fill: #df2020; stroke: #262626; stroke-width: 0.5; stroke-linejoin: miter"/>
   </g>
   <g id="line2d_1">
    <path d="M 125.647179 412.10251 
L 125.647179 436.236574 
" clip-path="url(#p8279957765)" style="fill: none; stroke: #262626; stroke-linecap: square"/>
   </g>
   <g id="line2d_2">
    <path d="M 125.647179 341.437208 
L 125.647179 307.793681 
" clip-path="url(#p8279957765)" style="fill: none; stroke: #262626; stroke-linecap: square"/>
   </g>
   <g id="line2d_3">
    <path d="M 121.411219 436.236574 
L 129.883139 436.236574 
" clip-path="url(#p8279957765)" style="fill: none; stroke: #262626; stroke-linecap: square"/>
   </g>
   <g id="line2d_4">
    <path d="M 121.411219 307.793681 
L 129.883139 307.793681 
" clip-path="url(#p8279957765)" style="fill: none; stroke: #262626; stroke-linecap: square"/>
   </g>
   <g id="line2d_5">
    <defs>
     <path id="m223be0f012" d="M -0 3.535534 
L 2.12132 0 
L -0 -3.535534 
L -2.12132 -0 
z
" style="stroke: #262626; stroke-linejoin: miter"/>
    </defs>
    <g clip-path="url(#p8279957765)">
     <use xlink:href="#m223be0f012" x="125.647179" y="221.435592" style="fill: #262626; stroke: #262626; stroke-linejoin: miter"/>
    </g>
   </g>
   <g id="line2d_6">
    <path d="M 142.936813 422.610685 
L 142.936813 430.869589 
" clip-path="url(#p8279957765)" style="fill: none; stroke: #262626; stroke-linecap: square"/>
   </g>
   <g id="line2d_7">
    <path d="M 142.936813 341.771559 
L 142.936813 300.794021 
" clip-path="url(#p8279957765)" style="fill: none; stroke: #262626; stroke-linecap: square"/>
   </g>
   <g id="line2d_8">
    <path d="M 138.700852 430.869589 
L 147.172773 430.869589 
" clip-path="url(#p8279957765)" style="fill: none; stroke: #262626; stroke-linecap: square"/>
   </g>
   <g id="line2d_9">
    <path d="M 138.700852 300.794021 
L 147.172773 300.794021 
" clip-path="url(#p8279957765)" style="fill: none; stroke: #262626; stroke-linecap: square"/>
   </g>
   <g id="line2d_10"/>
   <g id="line2d_11">
    <path d="M 160.226446 361.341948 
L 160.226446 369.852701 
" clip-path="url(#p8279957765)" style="fill: none; stroke: #262626; stroke-linecap: square"/>
   </g>
   <g id="line2d_12">
    <path d="M 160.226446 335.879165 
L 160.226446 316.547598 
" clip-path="url(#p8279957765)" style="fill: none; stroke: #262626; stroke-linecap: square"/>
   </g>
   <g id="line2d_13">
    <path d="M 155.990486 369.852701 
L 164.462406 369.852701 
" clip-path="url(#p8279957765)" style="fill: none; stroke: #262626; stroke-linecap: square"/>
   </g>
   <g id="line2d_14">
    <path d="M 155.990486 316.547598 
L 164.462406 316.547598 
" clip-path="url(#p8279957765)" style="fill: none; stroke: #262626; stroke-linecap: square"/>
   </g>
   <g id="line2d_15">
    <g clip-path="url(#p8279957765)">
     <use xlink:href="#m223be0f012" x="160.226446" y="416.957113" style="fill: #262626; stroke: #262626; stroke-linejoin: miter"/>
     <use xlink:href="#m223be0f012" x="160.226446" y="415.202856" style="fill: #262626; stroke: #262626; stroke-linejoin: miter"/>
     <use xlink:href="#m223be0f012" x="160.226446" y="412.371728" style="fill: #262626; stroke: #262626; stroke-linejoin: miter"/>
     <use xlink:href="#m223be0f012" x="160.226446" y="408.880583" style="fill: #262626; stroke: #262626; stroke-linejoin: miter"/>
     <use xlink:href="#m223be0f012" x="160.226446" y="425.311546" style="fill: #262626; stroke: #262626; stroke-linejoin: miter"/>
     <use xlink:href="#m223be0f012" x="160.226446" y="234.68805" style="fill: #262626; stroke: #262626; stroke-linejoin: miter"/>
    </g>
   </g>
   <g id="line2d_16">
    <path d="M 190.483304 201.040757 
L 190.483304 206.226137 
" clip-path="url(#p8279957765)" style="fill: none; stroke: #262626; stroke-linecap: square"/>
   </g>
   <g id="line2d_17">
    <path d="M 190.483304 168.127414 
L 190.483304 129.576332 
" clip-path="url(#p8279957765)" style="fill: none; stroke: #262626; stroke-linecap: square"/>
   </g>
   <g id="line2d_18">
    <path d="M 186.247344 206.226137 
L 194.719264 206.226137 
" clip-path="url(#p8279957765)" style="fill: none; stroke: #262626; stroke-linecap: square"/>
   </g>
   <g id="line2d_19">
    <path d="M 186.247344 129.576332 
L 194.719264 129.576332 
" clip-path="url(#p8279957765)" style="fill: none; stroke: #262626; stroke-linecap: square"/>
   </g>
   <g id="line2d_20">
    <g clip-path="url(#p8279957765)">
     <use xlink:href="#m223be0f012" x="190.483304" y="67.519309" style="fill: #262626; stroke: #262626; stroke-linejoin: miter"/>
    </g>
   </g>
   <g id="line2d_21">
    <path d="M 207.772938 225.455605 
L 207.772938 226.766609 
" clip-path="url(#p8279957765)" style="fill: none; stroke: #262626; stroke-linecap: square"/>
   </g>
   <g id="line2d_22">
    <path d="M 207.772938 158.405873 
L 207.772938 137.249689 
" clip-path="url(#p8279957765)" style="fill: none; stroke: #262626; stroke-linecap: square"/>
   </g>
   <g id="line2d_23">
    <path d="M 203.536977 226.766609 
L 212.008898 226.766609 
" clip-path="url(#p8279957765)" style="fill: none; stroke: #262626; stroke-linecap: square"/>
   </g>
   <g id="line2d_24">
    <path d="M 203.536977 137.249689 
L 212.008898 137.249689 
" clip-path="url(#p8279957765)" style="fill: none; stroke: #262626; stroke-linecap: square"/>
   </g>
   <g id="line2d_25"/>
   <g id="line2d_26">
    <path d="M 225.062571 175.164118 
L 225.062571 210.716224 
" clip-path="url(#p8279957765)" style="fill: none; stroke: #262626; stroke-linecap: square"/>
   </g>
   <g id="line2d_27">
    <path d="M 225.062571 145.593209 
L 225.062571 130.078954 
" clip-path="url(#p8279957765)" style="fill: none; stroke: #262626; stroke-linecap: square"/>
   </g>
   <g id="line2d_28">
    <path d="M 220.826611 210.716224 
L 229.298531 210.716224 
" clip-path="url(#p8279957765)" style="fill: none; stroke: #262626; stroke-linecap: square"/>
   </g>
   <g id="line2d_29">
    <path d="M 220.826611 130.078954 
L 229.298531 130.078954 
" clip-path="url(#p8279957765)" style="fill: none; stroke: #262626; stroke-linecap: square"/>
   </g>
   <g id="line2d_30">
    <g clip-path="url(#p8279957765)">
     <use xlink:href="#m223be0f012" x="225.062571" y="239.382413" style="fill: #262626; stroke: #262626; stroke-linejoin: miter"/>
     <use xlink:href="#m223be0f012" x="225.062571" y="245.380365" style="fill: #262626; stroke: #262626; stroke-linejoin: miter"/>
     <use xlink:href="#m223be0f012" x="225.062571" y="228.157196" style="fill: #262626; stroke: #262626; stroke-linejoin: miter"/>
     <use xlink:href="#m223be0f012" x="225.062571" y="236.06511" style="fill: #262626; stroke: #262626; stroke-linejoin: miter"/>
    </g>
   </g>
   <g id="line2d_31">
    <path d="M 255.319429 373.948069 
L 255.319429 379.366238 
" clip-path="url(#p8279957765)" style="fill: none; stroke: #262626; stroke-linecap: square"/>
   </g>
   <g id="line2d_32">
    <path d="M 255.319429 350.646098 
L 255.319429 342.59954 
" clip-path="url(#p8279957765)" style="fill: none; stroke: #262626; stroke-linecap: square"/>
   </g>
   <g id="line2d_33">
    <path d="M 251.083469 379.366238 
L 259.555389 379.366238 
" clip-path="url(#p8279957765)" style="fill: none; stroke: #262626; stroke-linecap: square"/>
   </g>
   <g id="line2d_34">
    <path d="M 251.083469 342.59954 
L 259.555389 342.59954 
" clip-path="url(#p8279957765)" style="fill: none; stroke: #262626; stroke-linecap: square"/>
   </g>
   <g id="line2d_35"/>
   <g id="line2d_36">
    <path d="M 272.609063 372.768368 
L 272.609063 373.448521 
" clip-path="url(#p8279957765)" style="fill: none; stroke: #262626; stroke-linecap: square"/>
   </g>
   <g id="line2d_37">
    <path d="M 272.609063 359.276742 
L 272.609063 359.184518 
" clip-path="url(#p8279957765)" style="fill: none; stroke: #262626; stroke-linecap: square"/>
   </g>
   <g id="line2d_38">
    <path d="M 268.373102 373.448521 
L 276.845023 373.448521 
" clip-path="url(#p8279957765)" style="fill: none; stroke: #262626; stroke-linecap: square"/>
   </g>
   <g id="line2d_39">
    <path d="M 268.373102 359.184518 
L 276.845023 359.184518 
" clip-path="url(#p8279957765)" style="fill: none; stroke: #262626; stroke-linecap: square"/>
   </g>
   <g id="line2d_40">
    <g clip-path="url(#p8279957765)">
     <use xlink:href="#m223be0f012" x="272.609063" y="334.268624" style="fill: #262626; stroke: #262626; stroke-linejoin: miter"/>
    </g>
   </g>
   <g id="line2d_41">
    <path d="M 289.898696 365.025381 
L 289.898696 369.728813 
" clip-path="url(#p8279957765)" style="fill: none; stroke: #262626; stroke-linecap: square"/>
   </g>
   <g id="line2d_42">
    <path d="M 289.898696 358.170052 
L 289.898696 350.530817 
" clip-path="url(#p8279957765)" style="fill: none; stroke: #262626; stroke-linecap: square"/>
   </g>
   <g id="line2d_43">
    <path d="M 285.662736 369.728813 
L 294.134656 369.728813 
" clip-path="url(#p8279957765)" style="fill: none; stroke: #262626; stroke-linecap: square"/>
   </g>
   <g id="line2d_44">
    <path d="M 285.662736 350.530817 
L 294.134656 350.530817 
" clip-path="url(#p8279957765)" style="fill: none; stroke: #262626; stroke-linecap: square"/>
   </g>
   <g id="line2d_45">
    <g clip-path="url(#p8279957765)">
     <use xlink:href="#m223be0f012" x="289.898696" y="333.576943" style="fill: #262626; stroke: #262626; stroke-linejoin: miter"/>
     <use xlink:href="#m223be0f012" x="289.898696" y="342.261384" style="fill: #262626; stroke: #262626; stroke-linejoin: miter"/>
     <use xlink:href="#m223be0f012" x="289.898696" y="335.990142" style="fill: #262626; stroke: #262626; stroke-linejoin: miter"/>
    </g>
   </g>
   <g id="line2d_46">
    <path d="M 320.155554 419.255109 
L 320.155554 432.470447 
" clip-path="url(#p8279957765)" style="fill: none; stroke: #262626; stroke-linecap: square"/>
   </g>
   <g id="line2d_47">
    <path d="M 320.155554 390.812409 
L 320.155554 349.629941 
" clip-path="url(#p8279957765)" style="fill: none; stroke: #262626; stroke-linecap: square"/>
   </g>
   <g id="line2d_48">
    <path d="M 315.919594 432.470447 
L 324.391514 432.470447 
" clip-path="url(#p8279957765)" style="fill: none; stroke: #262626; stroke-linecap: square"/>
   </g>
   <g id="line2d_49">
    <path d="M 315.919594 349.629941 
L 324.391514 349.629941 
" clip-path="url(#p8279957765)" style="fill: none; stroke: #262626; stroke-linecap: square"/>
   </g>
   <g id="line2d_50"/>
   <g id="line2d_51">
    <path d="M 337.445188 419.922735 
L 337.445188 435.94576 
" clip-path="url(#p8279957765)" style="fill: none; stroke: #262626; stroke-linecap: square"/>
   </g>
   <g id="line2d_52">
    <path d="M 337.445188 393.373167 
L 337.445188 382.407637 
" clip-path="url(#p8279957765)" style="fill: none; stroke: #262626; stroke-linecap: square"/>
   </g>
   <g id="line2d_53">
    <path d="M 333.209227 435.94576 
L 341.681148 435.94576 
" clip-path="url(#p8279957765)" style="fill: none; stroke: #262626; stroke-linecap: square"/>
   </g>
   <g id="line2d_54">
    <path d="M 333.209227 382.407637 
L 341.681148 382.407637 
" clip-path="url(#p8279957765)" style="fill: none; stroke: #262626; stroke-linecap: square"/>
   </g>
   <g id="line2d_55"/>
   <g id="line2d_56">
    <path d="M 354.734821 399.473257 
L 354.734821 425.099123 
" clip-path="url(#p8279957765)" style="fill: none; stroke: #262626; stroke-linecap: square"/>
   </g>
   <g id="line2d_57">
    <path d="M 354.734821 379.535931 
L 354.734821 364.903031 
" clip-path="url(#p8279957765)" style="fill: none; stroke: #262626; stroke-linecap: square"/>
   </g>
   <g id="line2d_58">
    <path d="M 350.498861 425.099123 
L 358.970781 425.099123 
" clip-path="url(#p8279957765)" style="fill: none; stroke: #262626; stroke-linecap: square"/>
   </g>
   <g id="line2d_59">
    <path d="M 350.498861 364.903031 
L 358.970781 364.903031 
" clip-path="url(#p8279957765)" style="fill: none; stroke: #262626; stroke-linecap: square"/>
   </g>
   <g id="line2d_60">
    <g clip-path="url(#p8279957765)">
     <use xlink:href="#m223be0f012" x="354.734821" y="432.269244" style="fill: #262626; stroke: #262626; stroke-linejoin: miter"/>
     <use xlink:href="#m223be0f012" x="354.734821" y="160.481417" style="fill: #262626; stroke: #262626; stroke-linejoin: miter"/>
    </g>
   </g>
   <g id="line2d_61">
    <path d="M 384.991679 285.172477 
L 384.991679 294.535689 
" clip-path="url(#p8279957765)" style="fill: none; stroke: #262626; stroke-linecap: square"/>
   </g>
   <g id="line2d_62">
    <path d="M 384.991679 255.726072 
L 384.991679 230.081607 
" clip-path="url(#p8279957765)" style="fill: none; stroke: #262626; stroke-linecap: square"/>
   </g>
   <g id="line2d_63">
    <path d="M 380.755719 294.535689 
L 389.227639 294.535689 
" clip-path="url(#p8279957765)" style="fill: none; stroke: #262626; stroke-linecap: square"/>
   </g>
   <g id="line2d_64">
    <path d="M 380.755719 230.081607 
L 389.227639 230.081607 
" clip-path="url(#p8279957765)" style="fill: none; stroke: #262626; stroke-linecap: square"/>
   </g>
   <g id="line2d_65"/>
   <g id="line2d_66">
    <path d="M 402.281313 287.845018 
L 402.281313 293.372742 
" clip-path="url(#p8279957765)" style="fill: none; stroke: #262626; stroke-linecap: square"/>
   </g>
   <g id="line2d_67">
    <path d="M 402.281313 259.185092 
L 402.281313 253.265992 
" clip-path="url(#p8279957765)" style="fill: none; stroke: #262626; stroke-linecap: square"/>
   </g>
   <g id="line2d_68">
    <path d="M 398.045352 293.372742 
L 406.517273 293.372742 
" clip-path="url(#p8279957765)" style="fill: none; stroke: #262626; stroke-linecap: square"/>
   </g>
   <g id="line2d_69">
    <path d="M 398.045352 253.265992 
L 406.517273 253.265992 
" clip-path="url(#p8279957765)" style="fill: none; stroke: #262626; stroke-linecap: square"/>
   </g>
   <g id="line2d_70"/>
   <g id="line2d_71">
    <path d="M 419.570946 274.6165 
L 419.570946 281.385446 
" clip-path="url(#p8279957765)" style="fill: none; stroke: #262626; stroke-linecap: square"/>
   </g>
   <g id="line2d_72">
    <path d="M 419.570946 267.444996 
L 419.570946 257.127571 
" clip-path="url(#p8279957765)" style="fill: none; stroke: #262626; stroke-linecap: square"/>
   </g>
   <g id="line2d_73">
    <path d="M 415.334986 281.385446 
L 423.806906 281.385446 
" clip-path="url(#p8279957765)" style="fill: none; stroke: #262626; stroke-linecap: square"/>
   </g>
   <g id="line2d_74">
    <path d="M 415.334986 257.127571 
L 423.806906 257.127571 
" clip-path="url(#p8279957765)" style="fill: none; stroke: #262626; stroke-linecap: square"/>
   </g>
   <g id="line2d_75">
    <g clip-path="url(#p8279957765)">
     <use xlink:href="#m223be0f012" x="419.570946" y="287.394004" style="fill: #262626; stroke: #262626; stroke-linejoin: miter"/>
     <use xlink:href="#m223be0f012" x="419.570946" y="253.415088" style="fill: #262626; stroke: #262626; stroke-linejoin: miter"/>
     <use xlink:href="#m223be0f012" x="419.570946" y="252.773976" style="fill: #262626; stroke: #262626; stroke-linejoin: miter"/>
     <use xlink:href="#m223be0f012" x="419.570946" y="255.800619" style="fill: #262626; stroke: #262626; stroke-linejoin: miter"/>
     <use xlink:href="#m223be0f012" x="419.570946" y="248.688753" style="fill: #262626; stroke: #262626; stroke-linejoin: miter"/>
     <use xlink:href="#m223be0f012" x="419.570946" y="250.388445" style="fill: #262626; stroke: #262626; stroke-linejoin: miter"/>
    </g>
   </g>
   <g id="line2d_76">
    <path d="M 449.827804 282.612027 
L 449.827804 294.346015 
" clip-path="url(#p8279957765)" style="fill: none; stroke: #262626; stroke-linecap: square"/>
   </g>
   <g id="line2d_77">
    <path d="M 449.827804 255.187636 
L 449.827804 251.008037 
" clip-path="url(#p8279957765)" style="fill: none; stroke: #262626; stroke-linecap: square"/>
   </g>
   <g id="line2d_78">
    <path d="M 445.591844 294.346015 
L 454.063764 294.346015 
" clip-path="url(#p8279957765)" style="fill: none; stroke: #262626; stroke-linecap: square"/>
   </g>
   <g id="line2d_79">
    <path d="M 445.591844 251.008037 
L 454.063764 251.008037 
" clip-path="url(#p8279957765)" style="fill: none; stroke: #262626; stroke-linecap: square"/>
   </g>
   <g id="line2d_80"/>
   <g id="line2d_81">
    <path d="M 467.117438 289.06403 
L 467.117438 302.164164 
" clip-path="url(#p8279957765)" style="fill: none; stroke: #262626; stroke-linecap: square"/>
   </g>
   <g id="line2d_82">
    <path d="M 467.117438 260.763816 
L 467.117438 250.182938 
" clip-path="url(#p8279957765)" style="fill: none; stroke: #262626; stroke-linecap: square"/>
   </g>
   <g id="line2d_83">
    <path d="M 462.881477 302.164164 
L 471.353398 302.164164 
" clip-path="url(#p8279957765)" style="fill: none; stroke: #262626; stroke-linecap: square"/>
   </g>
   <g id="line2d_84">
    <path d="M 462.881477 250.182938 
L 471.353398 250.182938 
" clip-path="url(#p8279957765)" style="fill: none; stroke: #262626; stroke-linecap: square"/>
   </g>
   <g id="line2d_85"/>
   <g id="line2d_86">
    <path d="M 484.407071 261.166221 
L 484.407071 277.235359 
" clip-path="url(#p8279957765)" style="fill: none; stroke: #262626; stroke-linecap: square"/>
   </g>
   <g id="line2d_87">
    <path d="M 484.407071 250.291148 
L 484.407071 242.472999 
" clip-path="url(#p8279957765)" style="fill: none; stroke: #262626; stroke-linecap: square"/>
   </g>
   <g id="line2d_88">
    <path d="M 480.171111 277.235359 
L 488.643031 277.235359 
" clip-path="url(#p8279957765)" style="fill: none; stroke: #262626; stroke-linecap: square"/>
   </g>
   <g id="line2d_89">
    <path d="M 480.171111 242.472999 
L 488.643031 242.472999 
" clip-path="url(#p8279957765)" style="fill: none; stroke: #262626; stroke-linecap: square"/>
   </g>
   <g id="line2d_90">
    <g clip-path="url(#p8279957765)">
     <use xlink:href="#m223be0f012" x="484.407071" y="303.367997" style="fill: #262626; stroke: #262626; stroke-linejoin: miter"/>
     <use xlink:href="#m223be0f012" x="484.407071" y="281.198538" style="fill: #262626; stroke: #262626; stroke-linejoin: miter"/>
     <use xlink:href="#m223be0f012" x="484.407071" y="300.338126" style="fill: #262626; stroke: #262626; stroke-linejoin: miter"/>
     <use xlink:href="#m223be0f012" x="484.407071" y="301.339065" style="fill: #262626; stroke: #262626; stroke-linejoin: miter"/>
     <use xlink:href="#m223be0f012" x="484.407071" y="226.133337" style="fill: #262626; stroke: #262626; stroke-linejoin: miter"/>
     <use xlink:href="#m223be0f012" x="484.407071" y="233.572752" style="fill: #262626; stroke: #262626; stroke-linejoin: miter"/>
     <use xlink:href="#m223be0f012" x="484.407071" y="229.311996" style="fill: #262626; stroke: #262626; stroke-linejoin: miter"/>
    </g>
   </g>
   <g id="line2d_91">
    <path d="M 514.663929 455.182183 
L 514.663929 459.908671 
" clip-path="url(#p8279957765)" style="fill: none; stroke: #262626; stroke-linecap: square"/>
   </g>
   <g id="line2d_92">
    <path d="M 514.663929 438.113028 
L 514.663929 433.517191 
" clip-path="url(#p8279957765)" style="fill: none; stroke: #262626; stroke-linecap: square"/>
   </g>
   <g id="line2d_93">
    <path d="M 510.427969 459.908671 
L 518.899889 459.908671 
" clip-path="url(#p8279957765)" style="fill: none; stroke: #262626; stroke-linecap: square"/>
   </g>
   <g id="line2d_94">
    <path d="M 510.427969 433.517191 
L 518.899889 433.517191 
" clip-path="url(#p8279957765)" style="fill: none; stroke: #262626; stroke-linecap: square"/>
   </g>
   <g id="line2d_95">
    <g clip-path="url(#p8279957765)">
     <use xlink:href="#m223be0f012" x="514.663929" y="356.863543" style="fill: #262626; stroke: #262626; stroke-linejoin: miter"/>
    </g>
   </g>
   <g id="line2d_96">
    <path d="M 531.953563 452.980331 
L 531.953563 455.543395 
" clip-path="url(#p8279957765)" style="fill: none; stroke: #262626; stroke-linecap: square"/>
   </g>
   <g id="line2d_97">
    <path d="M 531.953563 439.630884 
L 531.953563 436.545218 
" clip-path="url(#p8279957765)" style="fill: none; stroke: #262626; stroke-linecap: square"/>
   </g>
   <g id="line2d_98">
    <path d="M 527.717602 455.543395 
L 536.189523 455.543395 
" clip-path="url(#p8279957765)" style="fill: none; stroke: #262626; stroke-linecap: square"/>
   </g>
   <g id="line2d_99">
    <path d="M 527.717602 436.545218 
L 536.189523 436.545218 
" clip-path="url(#p8279957765)" style="fill: none; stroke: #262626; stroke-linecap: square"/>
   </g>
   <g id="line2d_100">
    <g clip-path="url(#p8279957765)">
     <use xlink:href="#m223be0f012" x="531.953563" y="408.462961" style="fill: #262626; stroke: #262626; stroke-linejoin: miter"/>
    </g>
   </g>
   <g id="line2d_101">
    <path d="M 549.243196 449.471971 
L 549.243196 455.113015 
" clip-path="url(#p8279957765)" style="fill: none; stroke: #262626; stroke-linecap: square"/>
   </g>
   <g id="line2d_102">
    <path d="M 549.243196 442.278486 
L 549.243196 434.470174 
" clip-path="url(#p8279957765)" style="fill: none; stroke: #262626; stroke-linecap: square"/>
   </g>
   <g id="line2d_103">
    <path d="M 545.007236 455.113015 
L 553.479156 455.113015 
" clip-path="url(#p8279957765)" style="fill: none; stroke: #262626; stroke-linecap: square"/>
   </g>
   <g id="line2d_104">
    <path d="M 545.007236 434.470174 
L 553.479156 434.470174 
" clip-path="url(#p8279957765)" style="fill: none; stroke: #262626; stroke-linecap: square"/>
   </g>
   <g id="line2d_105">
    <g clip-path="url(#p8279957765)">
     <use xlink:href="#m223be0f012" x="549.243196" y="430.243233" style="fill: #262626; stroke: #262626; stroke-linejoin: miter"/>
     <use xlink:href="#m223be0f012" x="549.243196" y="341.631186" style="fill: #262626; stroke: #262626; stroke-linejoin: miter"/>
    </g>
   </g>
   <g id="line2d_106">
    <path d="M 579.500054 410.096404 
L 579.500054 491.705103 
" clip-path="url(#p8279957765)" style="fill: none; stroke: #262626; stroke-linecap: square"/>
   </g>
   <g id="line2d_107">
    <path d="M 579.500054 263.589565 
L 579.500054 101.887411 
" clip-path="url(#p8279957765)" style="fill: none; stroke: #262626; stroke-linecap: square"/>
   </g>
   <g id="line2d_108">
    <path d="M 575.264094 491.705103 
L 583.736014 491.705103 
" clip-path="url(#p8279957765)" style="fill: none; stroke: #262626; stroke-linecap: square"/>
   </g>
   <g id="line2d_109">
    <path d="M 575.264094 101.887411 
L 583.736014 101.887411 
" clip-path="url(#p8279957765)" style="fill: none; stroke: #262626; stroke-linecap: square"/>
   </g>
   <g id="line2d_110"/>
   <g id="line2d_111">
    <path d="M 596.789688 462.593855 
L 596.789688 488.588848 
" clip-path="url(#p8279957765)" style="fill: none; stroke: #262626; stroke-linecap: square"/>
   </g>
   <g id="line2d_112">
    <path d="M 596.789688 286.454009 
L 596.789688 210.498882 
" clip-path="url(#p8279957765)" style="fill: none; stroke: #262626; stroke-linecap: square"/>
   </g>
   <g id="line2d_113">
    <path d="M 592.553727 488.588848 
L 601.025648 488.588848 
" clip-path="url(#p8279957765)" style="fill: none; stroke: #262626; stroke-linecap: square"/>
   </g>
   <g id="line2d_114">
    <path d="M 592.553727 210.498882 
L 601.025648 210.498882 
" clip-path="url(#p8279957765)" style="fill: none; stroke: #262626; stroke-linecap: square"/>
   </g>
   <g id="line2d_115"/>
   <g id="line2d_116">
    <path d="M 614.079321 361.051135 
L 614.079321 465.602898 
" clip-path="url(#p8279957765)" style="fill: none; stroke: #262626; stroke-linecap: square"/>
   </g>
   <g id="line2d_117">
    <path d="M 614.079321 284.57425 
L 614.079321 200.235256 
" clip-path="url(#p8279957765)" style="fill: none; stroke: #262626; stroke-linecap: square"/>
   </g>
   <g id="line2d_118">
    <path d="M 609.843361 465.602898 
L 618.315281 465.602898 
" clip-path="url(#p8279957765)" style="fill: none; stroke: #262626; stroke-linecap: square"/>
   </g>
   <g id="line2d_119">
    <path d="M 609.843361 200.235256 
L 618.315281 200.235256 
" clip-path="url(#p8279957765)" style="fill: none; stroke: #262626; stroke-linecap: square"/>
   </g>
   <g id="line2d_120">
    <g clip-path="url(#p8279957765)">
     <use xlink:href="#m223be0f012" x="614.079321" y="482.041855" style="fill: #262626; stroke: #262626; stroke-linejoin: miter"/>
    </g>
   </g>
   <g id="line2d_121">
    <path d="M 644.336179 178.5635 
L 644.336179 203.909774 
" clip-path="url(#p8279957765)" style="fill: none; stroke: #262626; stroke-linecap: square"/>
   </g>
   <g id="line2d_122">
    <path d="M 644.336179 122.222224 
L 644.336179 66.249844 
" clip-path="url(#p8279957765)" style="fill: none; stroke: #262626; stroke-linecap: square"/>
   </g>
   <g id="line2d_123">
    <path d="M 640.100219 203.909774 
L 648.572139 203.909774 
" clip-path="url(#p8279957765)" style="fill: none; stroke: #262626; stroke-linecap: square"/>
   </g>
   <g id="line2d_124">
    <path d="M 640.100219 66.249844 
L 648.572139 66.249844 
" clip-path="url(#p8279957765)" style="fill: none; stroke: #262626; stroke-linecap: square"/>
   </g>
   <g id="line2d_125"/>
   <g id="line2d_126">
    <path d="M 661.625813 184.300611 
L 661.625813 198.94504 
" clip-path="url(#p8279957765)" style="fill: none; stroke: #262626; stroke-linecap: square"/>
   </g>
   <g id="line2d_127">
    <path d="M 661.625813 122.529638 
L 661.625813 97.851989 
" clip-path="url(#p8279957765)" style="fill: none; stroke: #262626; stroke-linecap: square"/>
   </g>
   <g id="line2d_128">
    <path d="M 657.389852 198.94504 
L 665.861773 198.94504 
" clip-path="url(#p8279957765)" style="fill: none; stroke: #262626; stroke-linecap: square"/>
   </g>
   <g id="line2d_129">
    <path d="M 657.389852 97.851989 
L 665.861773 97.851989 
" clip-path="url(#p8279957765)" style="fill: none; stroke: #262626; stroke-linecap: square"/>
   </g>
   <g id="line2d_130"/>
   <g id="line2d_131">
    <path d="M 678.915446 142.611448 
L 678.915446 148.206381 
" clip-path="url(#p8279957765)" style="fill: none; stroke: #262626; stroke-linecap: square"/>
   </g>
   <g id="line2d_132">
    <path d="M 678.915446 121.907124 
L 678.915446 96.130472 
" clip-path="url(#p8279957765)" style="fill: none; stroke: #262626; stroke-linecap: square"/>
   </g>
   <g id="line2d_133">
    <path d="M 674.679486 148.206381 
L 683.151406 148.206381 
" clip-path="url(#p8279957765)" style="fill: none; stroke: #262626; stroke-linecap: square"/>
   </g>
   <g id="line2d_134">
    <path d="M 674.679486 96.130472 
L 683.151406 96.130472 
" clip-path="url(#p8279957765)" style="fill: none; stroke: #262626; stroke-linecap: square"/>
   </g>
   <g id="line2d_135">
    <g clip-path="url(#p8279957765)">
     <use xlink:href="#m223be0f012" x="678.915446" y="182.944148" style="fill: #262626; stroke: #262626; stroke-linejoin: miter"/>
     <use xlink:href="#m223be0f012" x="678.915446" y="185.188269" style="fill: #262626; stroke: #262626; stroke-linejoin: miter"/>
     <use xlink:href="#m223be0f012" x="678.915446" y="175.965853" style="fill: #262626; stroke: #262626; stroke-linejoin: miter"/>
     <use xlink:href="#m223be0f012" x="678.915446" y="174.582491" style="fill: #262626; stroke: #262626; stroke-linejoin: miter"/>
     <use xlink:href="#m223be0f012" x="678.915446" y="188.108701" style="fill: #262626; stroke: #262626; stroke-linejoin: miter"/>
    </g>
   </g>
   <g id="line2d_136">
    <path d="M 709.172304 270.249686 
L 709.172304 297.086917 
" clip-path="url(#p8279957765)" style="fill: none; stroke: #262626; stroke-linecap: square"/>
   </g>
   <g id="line2d_137">
    <path d="M 709.172304 209.881288 
L 709.172304 154.370029 
" clip-path="url(#p8279957765)" style="fill: none; stroke: #262626; stroke-linecap: square"/>
   </g>
   <g id="line2d_138">
    <path d="M 704.936344 297.086917 
L 713.408264 297.086917 
" clip-path="url(#p8279957765)" style="fill: none; stroke: #262626; stroke-linecap: square"/>
   </g>
   <g id="line2d_139">
    <path d="M 704.936344 154.370029 
L 713.408264 154.370029 
" clip-path="url(#p8279957765)" style="fill: none; stroke: #262626; stroke-linecap: square"/>
   </g>
   <g id="line2d_140">
    <g clip-path="url(#p8279957765)">
     <use xlink:href="#m223be0f012" x="709.172304" y="93.163928" style="fill: #262626; stroke: #262626; stroke-linejoin: miter"/>
    </g>
   </g>
   <g id="line2d_141">
    <path d="M 726.461938 278.88033 
L 726.461938 295.534477 
" clip-path="url(#p8279957765)" style="fill: none; stroke: #262626; stroke-linecap: square"/>
   </g>
   <g id="line2d_142">
    <path d="M 726.461938 194.103271 
L 726.461938 159.918849 
" clip-path="url(#p8279957765)" style="fill: none; stroke: #262626; stroke-linecap: square"/>
   </g>
   <g id="line2d_143">
    <path d="M 722.225977 295.534477 
L 730.697898 295.534477 
" clip-path="url(#p8279957765)" style="fill: none; stroke: #262626; stroke-linecap: square"/>
   </g>
   <g id="line2d_144">
    <path d="M 722.225977 159.918849 
L 730.697898 159.918849 
" clip-path="url(#p8279957765)" style="fill: none; stroke: #262626; stroke-linecap: square"/>
   </g>
   <g id="line2d_145"/>
   <g id="line2d_146">
    <path d="M 743.751571 229.99384 
L 743.751571 279.856369 
" clip-path="url(#p8279957765)" style="fill: none; stroke: #262626; stroke-linecap: square"/>
   </g>
   <g id="line2d_147">
    <path d="M 743.751571 196.055349 
L 743.751571 164.238014 
" clip-path="url(#p8279957765)" style="fill: none; stroke: #262626; stroke-linecap: square"/>
   </g>
   <g id="line2d_148">
    <path d="M 739.515611 279.856369 
L 747.987531 279.856369 
" clip-path="url(#p8279957765)" style="fill: none; stroke: #262626; stroke-linecap: square"/>
   </g>
   <g id="line2d_149">
    <path d="M 739.515611 164.238014 
L 747.987531 164.238014 
" clip-path="url(#p8279957765)" style="fill: none; stroke: #262626; stroke-linecap: square"/>
   </g>
   <g id="line2d_150">
    <g clip-path="url(#p8279957765)">
     <use xlink:href="#m223be0f012" x="743.751571" y="282.423275" style="fill: #262626; stroke: #262626; stroke-linejoin: miter"/>
     <use xlink:href="#m223be0f012" x="743.751571" y="290.569743" style="fill: #262626; stroke: #262626; stroke-linejoin: miter"/>
     <use xlink:href="#m223be0f012" x="743.751571" y="284.482948" style="fill: #262626; stroke: #262626; stroke-linejoin: miter"/>
    </g>
   </g>
   <g id="line2d_151">
    <path d="M 117.175259 363.460952 
L 134.1191 363.460952 
" clip-path="url(#p8279957765)" style="fill: none; stroke: #262626; stroke-linecap: square"/>
   </g>
   <g id="line2d_152">
    <path d="M 134.464892 393.622018 
L 151.408733 393.622018 
" clip-path="url(#p8279957765)" style="fill: none; stroke: #262626; stroke-linecap: square"/>
   </g>
   <g id="line2d_153">
    <path d="M 151.754526 347.62053 
L 168.698366 347.62053 
" clip-path="url(#p8279957765)" style="fill: none; stroke: #262626; stroke-linecap: square"/>
   </g>
   <g id="line2d_154">
    <path d="M 182.011384 180.257351 
L 198.955225 180.257351 
" clip-path="url(#p8279957765)" style="fill: none; stroke: #262626; stroke-linecap: square"/>
   </g>
   <g id="line2d_155">
    <path d="M 199.301017 212.550793 
L 216.244858 212.550793 
" clip-path="url(#p8279957765)" style="fill: none; stroke: #262626; stroke-linecap: square"/>
   </g>
   <g id="line2d_156">
    <path d="M 216.590651 157.656129 
L 233.534491 157.656129 
" clip-path="url(#p8279957765)" style="fill: none; stroke: #262626; stroke-linecap: square"/>
   </g>
   <g id="line2d_157">
    <path d="M 246.847509 365.901511 
L 263.79135 365.901511 
" clip-path="url(#p8279957765)" style="fill: none; stroke: #262626; stroke-linecap: square"/>
   </g>
   <g id="line2d_158">
    <path d="M 264.137142 365.601782 
L 281.080983 365.601782 
" clip-path="url(#p8279957765)" style="fill: none; stroke: #262626; stroke-linecap: square"/>
   </g>
   <g id="line2d_159">
    <path d="M 281.426776 361.290303 
L 298.370616 361.290303 
" clip-path="url(#p8279957765)" style="fill: none; stroke: #262626; stroke-linecap: square"/>
   </g>
   <g id="line2d_160">
    <path d="M 311.683634 404.594772 
L 328.627475 404.594772 
" clip-path="url(#p8279957765)" style="fill: none; stroke: #262626; stroke-linecap: square"/>
   </g>
   <g id="line2d_161">
    <path d="M 328.973267 411.5454 
L 345.917108 411.5454 
" clip-path="url(#p8279957765)" style="fill: none; stroke: #262626; stroke-linecap: square"/>
   </g>
   <g id="line2d_162">
    <path d="M 346.262901 390.492315 
L 363.206741 390.492315 
" clip-path="url(#p8279957765)" style="fill: none; stroke: #262626; stroke-linecap: square"/>
   </g>
   <g id="line2d_163">
    <path d="M 376.519759 271.962596 
L 393.4636 271.962596 
" clip-path="url(#p8279957765)" style="fill: none; stroke: #262626; stroke-linecap: square"/>
   </g>
   <g id="line2d_164">
    <path d="M 393.809392 275.891269 
L 410.753233 275.891269 
" clip-path="url(#p8279957765)" style="fill: none; stroke: #262626; stroke-linecap: square"/>
   </g>
   <g id="line2d_165">
    <path d="M 411.099026 271.440761 
L 428.042866 271.440761 
" clip-path="url(#p8279957765)" style="fill: none; stroke: #262626; stroke-linecap: square"/>
   </g>
   <g id="line2d_166">
    <path d="M 441.355884 271.459667 
L 458.299725 271.459667 
" clip-path="url(#p8279957765)" style="fill: none; stroke: #262626; stroke-linecap: square"/>
   </g>
   <g id="line2d_167">
    <path d="M 458.645517 272.129214 
L 475.589358 272.129214 
" clip-path="url(#p8279957765)" style="fill: none; stroke: #262626; stroke-linecap: square"/>
   </g>
   <g id="line2d_168">
    <path d="M 475.935151 255.647527 
L 492.878991 255.647527 
" clip-path="url(#p8279957765)" style="fill: none; stroke: #262626; stroke-linecap: square"/>
   </g>
   <g id="line2d_169">
    <path d="M 506.192009 448.13472 
L 523.13585 448.13472 
" clip-path="url(#p8279957765)" style="fill: none; stroke: #262626; stroke-linecap: square"/>
   </g>
   <g id="line2d_170">
    <path d="M 523.481642 450.570975 
L 540.425483 450.570975 
" clip-path="url(#p8279957765)" style="fill: none; stroke: #262626; stroke-linecap: square"/>
   </g>
   <g id="line2d_171">
    <path d="M 540.771276 446.459315 
L 557.715116 446.459315 
" clip-path="url(#p8279957765)" style="fill: none; stroke: #262626; stroke-linecap: square"/>
   </g>
   <g id="line2d_172">
    <path d="M 571.028134 295.438256 
L 587.971975 295.438256 
" clip-path="url(#p8279957765)" style="fill: none; stroke: #262626; stroke-linecap: square"/>
   </g>
   <g id="line2d_173">
    <path d="M 588.317767 412.026195 
L 605.261608 412.026195 
" clip-path="url(#p8279957765)" style="fill: none; stroke: #262626; stroke-linecap: square"/>
   </g>
   <g id="line2d_174">
    <path d="M 605.607401 316.594478 
L 622.551241 316.594478 
" clip-path="url(#p8279957765)" style="fill: none; stroke: #262626; stroke-linecap: square"/>
   </g>
   <g id="line2d_175">
    <path d="M 635.864259 132.482161 
L 652.8081 132.482161 
" clip-path="url(#p8279957765)" style="fill: none; stroke: #262626; stroke-linecap: square"/>
   </g>
   <g id="line2d_176">
    <path d="M 653.153892 164.522372 
L 670.097733 164.522372 
" clip-path="url(#p8279957765)" style="fill: none; stroke: #262626; stroke-linecap: square"/>
   </g>
   <g id="line2d_177">
    <path d="M 670.443526 129.423394 
L 687.387366 129.423394 
" clip-path="url(#p8279957765)" style="fill: none; stroke: #262626; stroke-linecap: square"/>
   </g>
   <g id="line2d_178">
    <path d="M 700.700384 229.947728 
L 717.644225 229.947728 
" clip-path="url(#p8279957765)" style="fill: none; stroke: #262626; stroke-linecap: square"/>
   </g>
   <g id="line2d_179">
    <path d="M 717.990017 269.265962 
L 734.933858 269.265962 
" clip-path="url(#p8279957765)" style="fill: none; stroke: #262626; stroke-linecap: square"/>
   </g>
   <g id="line2d_180">
    <path d="M 735.279651 204.739791 
L 752.223491 204.739791 
" clip-path="url(#p8279957765)" style="fill: none; stroke: #262626; stroke-linecap: square"/>
   </g>
   <g id="patch_36">
    <path d="M 110.51875 517.625625 
L 110.51875 25.763437 
" style="fill: none; stroke: #000000; stroke-linejoin: miter; stroke-linecap: square"/>
   </g>
   <g id="patch_37">
    <path d="M 758.88 517.625625 
L 758.88 25.763437 
" style="fill: none; stroke: #000000; stroke-linejoin: miter; stroke-linecap: square"/>
   </g>
   <g id="patch_38">
    <path d="M 110.51875 517.625625 
L 758.88 517.625625 
" style="fill: none; stroke: #000000; stroke-linejoin: miter; stroke-linecap: square"/>
   </g>
   <g id="patch_39">
    <path d="M 110.51875 25.763437 
L 758.88 25.763437 
" style="fill: none; stroke: #000000; stroke-linejoin: miter; stroke-linecap: square"/>
   </g>
   <g id="matplotlib.axis_1">
    <g id="xtick_1">
     <g id="line2d_181">
      <defs>
       <path id="m36ffb4087b" d="M 0 0 
L 0 -4 
" style="stroke: #000000; stroke-width: 0.5"/>
      </defs>
      <g>
       <use xlink:href="#m36ffb4087b" x="142.936813" y="517.625625" style="stroke: #000000; stroke-width: 0.5"/>
      </g>
     </g>
     <g id="line2d_182">
      <defs>
       <path id="mb7bba5e473" d="M 0 0 
L 0 4 
" style="stroke: #000000; stroke-width: 0.5"/>
      </defs>
      <g>
       <use xlink:href="#mb7bba5e473" x="142.936813" y="25.763437" style="stroke: #000000; stroke-width: 0.5"/>
      </g>
     </g>
     <g id="text_1">
      <!-- S1 -->
      <g transform="translate(125.813063 541.6675)scale(0.28 -0.28)">
       <defs>
        <path id="ArialMT-53" d="M 288 1472 
L 859 1522 
Q 900 1178 1048 958 
Q 1197 738 1509 602 
Q 1822 466 2213 466 
Q 2559 466 2825 569 
Q 3091 672 3220 851 
Q 3350 1031 3350 1244 
Q 3350 1459 3225 1620 
Q 3100 1781 2813 1891 
Q 2628 1963 1997 2114 
Q 1366 2266 1113 2400 
Q 784 2572 623 2826 
Q 463 3081 463 3397 
Q 463 3744 659 4045 
Q 856 4347 1234 4503 
Q 1613 4659 2075 4659 
Q 2584 4659 2973 4495 
Q 3363 4331 3572 4012 
Q 3781 3694 3797 3291 
L 3216 3247 
Q 3169 3681 2898 3903 
Q 2628 4125 2100 4125 
Q 1550 4125 1298 3923 
Q 1047 3722 1047 3438 
Q 1047 3191 1225 3031 
Q 1400 2872 2139 2705 
Q 2878 2538 3153 2413 
Q 3553 2228 3743 1945 
Q 3934 1663 3934 1294 
Q 3934 928 3725 604 
Q 3516 281 3123 101 
Q 2731 -78 2241 -78 
Q 1619 -78 1198 103 
Q 778 284 539 648 
Q 300 1013 288 1472 
z
" transform="scale(0.015625)"/>
        <path id="ArialMT-31" d="M 2384 0 
L 1822 0 
L 1822 3584 
Q 1619 3391 1289 3197 
Q 959 3003 697 2906 
L 697 3450 
Q 1169 3672 1522 3987 
Q 1875 4303 2022 4600 
L 2384 4600 
L 2384 0 
z
" transform="scale(0.015625)"/>
       </defs>
       <use xlink:href="#ArialMT-53"/>
       <use xlink:href="#ArialMT-31" x="66.699219"/>
      </g>
     </g>
    </g>
    <g id="xtick_2">
     <g id="line2d_183">
      <g>
       <use xlink:href="#m36ffb4087b" x="207.772938" y="517.625625" style="stroke: #000000; stroke-width: 0.5"/>
      </g>
     </g>
     <g id="line2d_184">
      <g>
       <use xlink:href="#mb7bba5e473" x="207.772938" y="25.763437" style="stroke: #000000; stroke-width: 0.5"/>
      </g>
     </g>
     <g id="text_2">
      <!-- S2 -->
      <g transform="translate(190.649188 541.6675)scale(0.28 -0.28)">
       <defs>
        <path id="ArialMT-32" d="M 3222 541 
L 3222 0 
L 194 0 
Q 188 203 259 391 
Q 375 700 629 1000 
Q 884 1300 1366 1694 
Q 2113 2306 2375 2664 
Q 2638 3022 2638 3341 
Q 2638 3675 2398 3904 
Q 2159 4134 1775 4134 
Q 1369 4134 1125 3890 
Q 881 3647 878 3216 
L 300 3275 
Q 359 3922 746 4261 
Q 1134 4600 1788 4600 
Q 2447 4600 2831 4234 
Q 3216 3869 3216 3328 
Q 3216 3053 3103 2787 
Q 2991 2522 2730 2228 
Q 2469 1934 1863 1422 
Q 1356 997 1212 845 
Q 1069 694 975 541 
L 3222 541 
z
" transform="scale(0.015625)"/>
       </defs>
       <use xlink:href="#ArialMT-53"/>
       <use xlink:href="#ArialMT-32" x="66.699219"/>
      </g>
     </g>
    </g>
    <g id="xtick_3">
     <g id="line2d_185">
      <g>
       <use xlink:href="#m36ffb4087b" x="272.609063" y="517.625625" style="stroke: #000000; stroke-width: 0.5"/>
      </g>
     </g>
     <g id="line2d_186">
      <g>
       <use xlink:href="#mb7bba5e473" x="272.609063" y="25.763437" style="stroke: #000000; stroke-width: 0.5"/>
      </g>
     </g>
     <g id="text_3">
      <!-- S3 -->
      <g transform="translate(255.485313 541.6675)scale(0.28 -0.28)">
       <defs>
        <path id="ArialMT-33" d="M 269 1209 
L 831 1284 
Q 928 806 1161 595 
Q 1394 384 1728 384 
Q 2125 384 2398 659 
Q 2672 934 2672 1341 
Q 2672 1728 2419 1979 
Q 2166 2231 1775 2231 
Q 1616 2231 1378 2169 
L 1441 2663 
Q 1497 2656 1531 2656 
Q 1891 2656 2178 2843 
Q 2466 3031 2466 3422 
Q 2466 3731 2256 3934 
Q 2047 4138 1716 4138 
Q 1388 4138 1169 3931 
Q 950 3725 888 3313 
L 325 3413 
Q 428 3978 793 4289 
Q 1159 4600 1703 4600 
Q 2078 4600 2393 4439 
Q 2709 4278 2876 4000 
Q 3044 3722 3044 3409 
Q 3044 3113 2884 2869 
Q 2725 2625 2413 2481 
Q 2819 2388 3044 2092 
Q 3269 1797 3269 1353 
Q 3269 753 2831 336 
Q 2394 -81 1725 -81 
Q 1122 -81 723 278 
Q 325 638 269 1209 
z
" transform="scale(0.015625)"/>
       </defs>
       <use xlink:href="#ArialMT-53"/>
       <use xlink:href="#ArialMT-33" x="66.699219"/>
      </g>
     </g>
    </g>
    <g id="xtick_4">
     <g id="line2d_187">
      <g>
       <use xlink:href="#m36ffb4087b" x="337.445188" y="517.625625" style="stroke: #000000; stroke-width: 0.5"/>
      </g>
     </g>
     <g id="line2d_188">
      <g>
       <use xlink:href="#mb7bba5e473" x="337.445188" y="25.763437" style="stroke: #000000; stroke-width: 0.5"/>
      </g>
     </g>
     <g id="text_4">
      <!-- S4 -->
      <g transform="translate(320.321438 541.6675)scale(0.28 -0.28)">
       <defs>
        <path id="ArialMT-34" d="M 2069 0 
L 2069 1097 
L 81 1097 
L 81 1613 
L 2172 4581 
L 2631 4581 
L 2631 1613 
L 3250 1613 
L 3250 1097 
L 2631 1097 
L 2631 0 
L 2069 0 
z
M 2069 1613 
L 2069 3678 
L 634 1613 
L 2069 1613 
z
" transform="scale(0.015625)"/>
       </defs>
       <use xlink:href="#ArialMT-53"/>
       <use xlink:href="#ArialMT-34" x="66.699219"/>
      </g>
     </g>
    </g>
    <g id="xtick_5">
     <g id="line2d_189">
      <g>
       <use xlink:href="#m36ffb4087b" x="402.281313" y="517.625625" style="stroke: #000000; stroke-width: 0.5"/>
      </g>
     </g>
     <g id="line2d_190">
      <g>
       <use xlink:href="#mb7bba5e473" x="402.281313" y="25.763437" style="stroke: #000000; stroke-width: 0.5"/>
      </g>
     </g>
     <g id="text_5">
      <!-- S5 -->
      <g transform="translate(385.157563 541.6675)scale(0.28 -0.28)">
       <defs>
        <path id="ArialMT-35" d="M 266 1200 
L 856 1250 
Q 922 819 1161 601 
Q 1400 384 1738 384 
Q 2144 384 2425 690 
Q 2706 997 2706 1503 
Q 2706 1984 2436 2262 
Q 2166 2541 1728 2541 
Q 1456 2541 1237 2417 
Q 1019 2294 894 2097 
L 366 2166 
L 809 4519 
L 3088 4519 
L 3088 3981 
L 1259 3981 
L 1013 2750 
Q 1425 3038 1878 3038 
Q 2478 3038 2890 2622 
Q 3303 2206 3303 1553 
Q 3303 931 2941 478 
Q 2500 -78 1738 -78 
Q 1113 -78 717 272 
Q 322 622 266 1200 
z
" transform="scale(0.015625)"/>
       </defs>
       <use xlink:href="#ArialMT-53"/>
       <use xlink:href="#ArialMT-35" x="66.699219"/>
      </g>
     </g>
    </g>
    <g id="xtick_6">
     <g id="line2d_191">
      <g>
       <use xlink:href="#m36ffb4087b" x="467.117438" y="517.625625" style="stroke: #000000; stroke-width: 0.5"/>
      </g>
     </g>
     <g id="line2d_192">
      <g>
       <use xlink:href="#mb7bba5e473" x="467.117438" y="25.763437" style="stroke: #000000; stroke-width: 0.5"/>
      </g>
     </g>
     <g id="text_6">
      <!-- S6 -->
      <g transform="translate(449.993688 541.6675)scale(0.28 -0.28)">
       <defs>
        <path id="ArialMT-36" d="M 3184 3459 
L 2625 3416 
Q 2550 3747 2413 3897 
Q 2184 4138 1850 4138 
Q 1581 4138 1378 3988 
Q 1113 3794 959 3422 
Q 806 3050 800 2363 
Q 1003 2672 1297 2822 
Q 1591 2972 1913 2972 
Q 2475 2972 2870 2558 
Q 3266 2144 3266 1488 
Q 3266 1056 3080 686 
Q 2894 316 2569 119 
Q 2244 -78 1831 -78 
Q 1128 -78 684 439 
Q 241 956 241 2144 
Q 241 3472 731 4075 
Q 1159 4600 1884 4600 
Q 2425 4600 2770 4297 
Q 3116 3994 3184 3459 
z
M 888 1484 
Q 888 1194 1011 928 
Q 1134 663 1356 523 
Q 1578 384 1822 384 
Q 2178 384 2434 671 
Q 2691 959 2691 1453 
Q 2691 1928 2437 2201 
Q 2184 2475 1800 2475 
Q 1419 2475 1153 2201 
Q 888 1928 888 1484 
z
" transform="scale(0.015625)"/>
       </defs>
       <use xlink:href="#ArialMT-53"/>
       <use xlink:href="#ArialMT-36" x="66.699219"/>
      </g>
     </g>
    </g>
    <g id="xtick_7">
     <g id="line2d_193">
      <g>
       <use xlink:href="#m36ffb4087b" x="531.953563" y="517.625625" style="stroke: #000000; stroke-width: 0.5"/>
      </g>
     </g>
     <g id="line2d_194">
      <g>
       <use xlink:href="#mb7bba5e473" x="531.953563" y="25.763437" style="stroke: #000000; stroke-width: 0.5"/>
      </g>
     </g>
     <g id="text_7">
      <!-- S7 -->
      <g transform="translate(514.829813 541.6675)scale(0.28 -0.28)">
       <defs>
        <path id="ArialMT-37" d="M 303 3981 
L 303 4522 
L 3269 4522 
L 3269 4084 
Q 2831 3619 2401 2847 
Q 1972 2075 1738 1259 
Q 1569 684 1522 0 
L 944 0 
Q 953 541 1156 1306 
Q 1359 2072 1739 2783 
Q 2119 3494 2547 3981 
L 303 3981 
z
" transform="scale(0.015625)"/>
       </defs>
       <use xlink:href="#ArialMT-53"/>
       <use xlink:href="#ArialMT-37" x="66.699219"/>
      </g>
     </g>
    </g>
    <g id="xtick_8">
     <g id="line2d_195">
      <g>
       <use xlink:href="#m36ffb4087b" x="596.789688" y="517.625625" style="stroke: #000000; stroke-width: 0.5"/>
      </g>
     </g>
     <g id="line2d_196">
      <g>
       <use xlink:href="#mb7bba5e473" x="596.789688" y="25.763437" style="stroke: #000000; stroke-width: 0.5"/>
      </g>
     </g>
     <g id="text_8">
      <!-- S8 -->
      <g transform="translate(579.665938 541.6675)scale(0.28 -0.28)">
       <defs>
        <path id="ArialMT-38" d="M 1131 2484 
Q 781 2613 612 2850 
Q 444 3088 444 3419 
Q 444 3919 803 4259 
Q 1163 4600 1759 4600 
Q 2359 4600 2725 4251 
Q 3091 3903 3091 3403 
Q 3091 3084 2923 2848 
Q 2756 2613 2416 2484 
Q 2838 2347 3058 2040 
Q 3278 1734 3278 1309 
Q 3278 722 2862 322 
Q 2447 -78 1769 -78 
Q 1091 -78 675 323 
Q 259 725 259 1325 
Q 259 1772 486 2073 
Q 713 2375 1131 2484 
z
M 1019 3438 
Q 1019 3113 1228 2906 
Q 1438 2700 1772 2700 
Q 2097 2700 2305 2904 
Q 2513 3109 2513 3406 
Q 2513 3716 2298 3927 
Q 2084 4138 1766 4138 
Q 1444 4138 1231 3931 
Q 1019 3725 1019 3438 
z
M 838 1322 
Q 838 1081 952 856 
Q 1066 631 1291 507 
Q 1516 384 1775 384 
Q 2178 384 2440 643 
Q 2703 903 2703 1303 
Q 2703 1709 2433 1975 
Q 2163 2241 1756 2241 
Q 1359 2241 1098 1978 
Q 838 1716 838 1322 
z
" transform="scale(0.015625)"/>
       </defs>
       <use xlink:href="#ArialMT-53"/>
       <use xlink:href="#ArialMT-38" x="66.699219"/>
      </g>
     </g>
    </g>
    <g id="xtick_9">
     <g id="line2d_197">
      <g>
       <use xlink:href="#m36ffb4087b" x="661.625813" y="517.625625" style="stroke: #000000; stroke-width: 0.5"/>
      </g>
     </g>
     <g id="line2d_198">
      <g>
       <use xlink:href="#mb7bba5e473" x="661.625813" y="25.763437" style="stroke: #000000; stroke-width: 0.5"/>
      </g>
     </g>
     <g id="text_9">
      <!-- S9 -->
      <g transform="translate(644.502063 541.6675)scale(0.28 -0.28)">
       <defs>
        <path id="ArialMT-39" d="M 350 1059 
L 891 1109 
Q 959 728 1153 556 
Q 1347 384 1650 384 
Q 1909 384 2104 503 
Q 2300 622 2425 820 
Q 2550 1019 2634 1356 
Q 2719 1694 2719 2044 
Q 2719 2081 2716 2156 
Q 2547 1888 2255 1720 
Q 1963 1553 1622 1553 
Q 1053 1553 659 1965 
Q 266 2378 266 3053 
Q 266 3750 677 4175 
Q 1088 4600 1706 4600 
Q 2153 4600 2523 4359 
Q 2894 4119 3086 3673 
Q 3278 3228 3278 2384 
Q 3278 1506 3087 986 
Q 2897 466 2520 194 
Q 2144 -78 1638 -78 
Q 1100 -78 759 220 
Q 419 519 350 1059 
z
M 2653 3081 
Q 2653 3566 2395 3850 
Q 2138 4134 1775 4134 
Q 1400 4134 1122 3828 
Q 844 3522 844 3034 
Q 844 2597 1108 2323 
Q 1372 2050 1759 2050 
Q 2150 2050 2401 2323 
Q 2653 2597 2653 3081 
z
" transform="scale(0.015625)"/>
       </defs>
       <use xlink:href="#ArialMT-53"/>
       <use xlink:href="#ArialMT-39" x="66.699219"/>
      </g>
     </g>
    </g>
    <g id="xtick_10">
     <g id="line2d_199">
      <g>
       <use xlink:href="#m36ffb4087b" x="726.461938" y="517.625625" style="stroke: #000000; stroke-width: 0.5"/>
      </g>
     </g>
     <g id="line2d_200">
      <g>
       <use xlink:href="#mb7bba5e473" x="726.461938" y="25.763437" style="stroke: #000000; stroke-width: 0.5"/>
      </g>
     </g>
     <g id="text_10">
      <!-- S10 -->
      <g transform="translate(701.552875 541.6675)scale(0.28 -0.28)">
       <defs>
        <path id="ArialMT-30" d="M 266 2259 
Q 266 3072 433 3567 
Q 600 4063 929 4331 
Q 1259 4600 1759 4600 
Q 2128 4600 2406 4451 
Q 2684 4303 2865 4023 
Q 3047 3744 3150 3342 
Q 3253 2941 3253 2259 
Q 3253 1453 3087 958 
Q 2922 463 2592 192 
Q 2263 -78 1759 -78 
Q 1097 -78 719 397 
Q 266 969 266 2259 
z
M 844 2259 
Q 844 1131 1108 757 
Q 1372 384 1759 384 
Q 2147 384 2411 759 
Q 2675 1134 2675 2259 
Q 2675 3391 2411 3762 
Q 2147 4134 1753 4134 
Q 1366 4134 1134 3806 
Q 844 3388 844 2259 
z
" transform="scale(0.015625)"/>
       </defs>
       <use xlink:href="#ArialMT-53"/>
       <use xlink:href="#ArialMT-31" x="66.699219"/>
       <use xlink:href="#ArialMT-30" x="122.314453"/>
      </g>
     </g>
    </g>
    <g id="text_11">
     <!-- Sensor -->
     <g transform="translate(387.239375 572.274375)scale(0.28 -0.28)">
      <defs>
       <path id="Arial-BoldMT-53" d="M 231 1491 
L 1131 1578 
Q 1213 1125 1461 912 
Q 1709 700 2131 700 
Q 2578 700 2804 889 
Q 3031 1078 3031 1331 
Q 3031 1494 2936 1608 
Q 2841 1722 2603 1806 
Q 2441 1863 1863 2006 
Q 1119 2191 819 2459 
Q 397 2838 397 3381 
Q 397 3731 595 4036 
Q 794 4341 1167 4500 
Q 1541 4659 2069 4659 
Q 2931 4659 3367 4281 
Q 3803 3903 3825 3272 
L 2900 3231 
Q 2841 3584 2645 3739 
Q 2450 3894 2059 3894 
Q 1656 3894 1428 3728 
Q 1281 3622 1281 3444 
Q 1281 3281 1419 3166 
Q 1594 3019 2269 2859 
Q 2944 2700 3267 2529 
Q 3591 2359 3773 2064 
Q 3956 1769 3956 1334 
Q 3956 941 3737 597 
Q 3519 253 3119 86 
Q 2719 -81 2122 -81 
Q 1253 -81 787 320 
Q 322 722 231 1491 
z
" transform="scale(0.015625)"/>
       <path id="Arial-BoldMT-65" d="M 2381 1056 
L 3256 909 
Q 3088 428 2723 176 
Q 2359 -75 1813 -75 
Q 947 -75 531 491 
Q 203 944 203 1634 
Q 203 2459 634 2926 
Q 1066 3394 1725 3394 
Q 2466 3394 2894 2905 
Q 3322 2416 3303 1406 
L 1103 1406 
Q 1113 1016 1316 798 
Q 1519 581 1822 581 
Q 2028 581 2168 693 
Q 2309 806 2381 1056 
z
M 2431 1944 
Q 2422 2325 2234 2523 
Q 2047 2722 1778 2722 
Q 1491 2722 1303 2513 
Q 1116 2303 1119 1944 
L 2431 1944 
z
" transform="scale(0.015625)"/>
       <path id="Arial-BoldMT-6e" d="M 3478 0 
L 2600 0 
L 2600 1694 
Q 2600 2231 2544 2389 
Q 2488 2547 2361 2634 
Q 2234 2722 2056 2722 
Q 1828 2722 1647 2597 
Q 1466 2472 1398 2265 
Q 1331 2059 1331 1503 
L 1331 0 
L 453 0 
L 453 3319 
L 1269 3319 
L 1269 2831 
Q 1703 3394 2363 3394 
Q 2653 3394 2893 3289 
Q 3134 3184 3257 3021 
Q 3381 2859 3429 2653 
Q 3478 2447 3478 2063 
L 3478 0 
z
" transform="scale(0.015625)"/>
       <path id="Arial-BoldMT-73" d="M 150 947 
L 1031 1081 
Q 1088 825 1259 692 
Q 1431 559 1741 559 
Q 2081 559 2253 684 
Q 2369 772 2369 919 
Q 2369 1019 2306 1084 
Q 2241 1147 2013 1200 
Q 950 1434 666 1628 
Q 272 1897 272 2375 
Q 272 2806 612 3100 
Q 953 3394 1669 3394 
Q 2350 3394 2681 3172 
Q 3013 2950 3138 2516 
L 2309 2363 
Q 2256 2556 2107 2659 
Q 1959 2763 1684 2763 
Q 1338 2763 1188 2666 
Q 1088 2597 1088 2488 
Q 1088 2394 1175 2328 
Q 1294 2241 1995 2081 
Q 2697 1922 2975 1691 
Q 3250 1456 3250 1038 
Q 3250 581 2869 253 
Q 2488 -75 1741 -75 
Q 1063 -75 667 200 
Q 272 475 150 947 
z
" transform="scale(0.015625)"/>
       <path id="Arial-BoldMT-6f" d="M 256 1706 
Q 256 2144 472 2553 
Q 688 2963 1083 3178 
Q 1478 3394 1966 3394 
Q 2719 3394 3200 2905 
Q 3681 2416 3681 1669 
Q 3681 916 3195 420 
Q 2709 -75 1972 -75 
Q 1516 -75 1102 131 
Q 688 338 472 736 
Q 256 1134 256 1706 
z
M 1156 1659 
Q 1156 1166 1390 903 
Q 1625 641 1969 641 
Q 2313 641 2545 903 
Q 2778 1166 2778 1666 
Q 2778 2153 2545 2415 
Q 2313 2678 1969 2678 
Q 1625 2678 1390 2415 
Q 1156 2153 1156 1659 
z
" transform="scale(0.015625)"/>
       <path id="Arial-BoldMT-72" d="M 1300 0 
L 422 0 
L 422 3319 
L 1238 3319 
L 1238 2847 
Q 1447 3181 1614 3287 
Q 1781 3394 1994 3394 
Q 2294 3394 2572 3228 
L 2300 2463 
Q 2078 2606 1888 2606 
Q 1703 2606 1575 2504 
Q 1447 2403 1373 2137 
Q 1300 1872 1300 1025 
L 1300 0 
z
" transform="scale(0.015625)"/>
      </defs>
      <use xlink:href="#Arial-BoldMT-53"/>
      <use xlink:href="#Arial-BoldMT-65" x="66.699219"/>
      <use xlink:href="#Arial-BoldMT-6e" x="122.314453"/>
      <use xlink:href="#Arial-BoldMT-73" x="183.398438"/>
      <use xlink:href="#Arial-BoldMT-6f" x="239.013672"/>
      <use xlink:href="#Arial-BoldMT-72" x="300.097656"/>
     </g>
    </g>
   </g>
   <g id="matplotlib.axis_2">
    <g id="ytick_1">
     <g id="line2d_201">
      <defs>
       <path id="m8bdf3a9eef" d="M 0 0 
L 4 0 
" style="stroke: #000000; stroke-width: 0.5"/>
      </defs>
      <g>
       <use xlink:href="#m8bdf3a9eef" x="110.51875" y="517.625625" style="stroke: #000000; stroke-width: 0.5"/>
      </g>
     </g>
     <g id="line2d_202">
      <defs>
       <path id="m33a65a57e6" d="M 0 0 
L -4 0 
" style="stroke: #000000; stroke-width: 0.5"/>
      </defs>
      <g>
       <use xlink:href="#m33a65a57e6" x="758.88" y="517.625625" style="stroke: #000000; stroke-width: 0.5"/>
      </g>
     </g>
     <g id="text_12">
      <!-- 0 -->
      <g transform="translate(90.948125 524.864063)scale(0.28 -0.28)">
       <use xlink:href="#ArialMT-30"/>
      </g>
     </g>
    </g>
    <g id="ytick_2">
     <g id="line2d_203">
      <g>
       <use xlink:href="#m8bdf3a9eef" x="110.51875" y="456.142852" style="stroke: #000000; stroke-width: 0.5"/>
      </g>
     </g>
     <g id="line2d_204">
      <g>
       <use xlink:href="#m33a65a57e6" x="758.88" y="456.142852" style="stroke: #000000; stroke-width: 0.5"/>
      </g>
     </g>
     <g id="text_13">
      <!-- 500 -->
      <g transform="translate(59.806875 463.381289)scale(0.28 -0.28)">
       <use xlink:href="#ArialMT-35"/>
       <use xlink:href="#ArialMT-30" x="55.615234"/>
       <use xlink:href="#ArialMT-30" x="111.230469"/>
      </g>
     </g>
    </g>
    <g id="ytick_3">
     <g id="line2d_205">
      <g>
       <use xlink:href="#m8bdf3a9eef" x="110.51875" y="394.660078" style="stroke: #000000; stroke-width: 0.5"/>
      </g>
     </g>
     <g id="line2d_206">
      <g>
       <use xlink:href="#m33a65a57e6" x="758.88" y="394.660078" style="stroke: #000000; stroke-width: 0.5"/>
      </g>
     </g>
     <g id="text_14">
      <!-- 1000 -->
      <g transform="translate(44.23625 401.898516)scale(0.28 -0.28)">
       <use xlink:href="#ArialMT-31"/>
       <use xlink:href="#ArialMT-30" x="55.615234"/>
       <use xlink:href="#ArialMT-30" x="111.230469"/>
       <use xlink:href="#ArialMT-30" x="166.845703"/>
      </g>
     </g>
    </g>
    <g id="ytick_4">
     <g id="line2d_207">
      <g>
       <use xlink:href="#m8bdf3a9eef" x="110.51875" y="333.177305" style="stroke: #000000; stroke-width: 0.5"/>
      </g>
     </g>
     <g id="line2d_208">
      <g>
       <use xlink:href="#m33a65a57e6" x="758.88" y="333.177305" style="stroke: #000000; stroke-width: 0.5"/>
      </g>
     </g>
     <g id="text_15">
      <!-- 1500 -->
      <g transform="translate(44.23625 340.415742)scale(0.28 -0.28)">
       <use xlink:href="#ArialMT-31"/>
       <use xlink:href="#ArialMT-35" x="55.615234"/>
       <use xlink:href="#ArialMT-30" x="111.230469"/>
       <use xlink:href="#ArialMT-30" x="166.845703"/>
      </g>
     </g>
    </g>
    <g id="ytick_5">
     <g id="line2d_209">
      <g>
       <use xlink:href="#m8bdf3a9eef" x="110.51875" y="271.694531" style="stroke: #000000; stroke-width: 0.5"/>
      </g>
     </g>
     <g id="line2d_210">
      <g>
       <use xlink:href="#m33a65a57e6" x="758.88" y="271.694531" style="stroke: #000000; stroke-width: 0.5"/>
      </g>
     </g>
     <g id="text_16">
      <!-- 2000 -->
      <g transform="translate(44.23625 278.932969)scale(0.28 -0.28)">
       <use xlink:href="#ArialMT-32"/>
       <use xlink:href="#ArialMT-30" x="55.615234"/>
       <use xlink:href="#ArialMT-30" x="111.230469"/>
       <use xlink:href="#ArialMT-30" x="166.845703"/>
      </g>
     </g>
    </g>
    <g id="ytick_6">
     <g id="line2d_211">
      <g>
       <use xlink:href="#m8bdf3a9eef" x="110.51875" y="210.211758" style="stroke: #000000; stroke-width: 0.5"/>
      </g>
     </g>
     <g id="line2d_212">
      <g>
       <use xlink:href="#m33a65a57e6" x="758.88" y="210.211758" style="stroke: #000000; stroke-width: 0.5"/>
      </g>
     </g>
     <g id="text_17">
      <!-- 2500 -->
      <g transform="translate(44.23625 217.450195)scale(0.28 -0.28)">
       <use xlink:href="#ArialMT-32"/>
       <use xlink:href="#ArialMT-35" x="55.615234"/>
       <use xlink:href="#ArialMT-30" x="111.230469"/>
       <use xlink:href="#ArialMT-30" x="166.845703"/>
      </g>
     </g>
    </g>
    <g id="ytick_7">
     <g id="line2d_213">
      <g>
       <use xlink:href="#m8bdf3a9eef" x="110.51875" y="148.728984" style="stroke: #000000; stroke-width: 0.5"/>
      </g>
     </g>
     <g id="line2d_214">
      <g>
       <use xlink:href="#m33a65a57e6" x="758.88" y="148.728984" style="stroke: #000000; stroke-width: 0.5"/>
      </g>
     </g>
     <g id="text_18">
      <!-- 3000 -->
      <g transform="translate(44.23625 155.967422)scale(0.28 -0.28)">
       <use xlink:href="#ArialMT-33"/>
       <use xlink:href="#ArialMT-30" x="55.615234"/>
       <use xlink:href="#ArialMT-30" x="111.230469"/>
       <use xlink:href="#ArialMT-30" x="166.845703"/>
      </g>
     </g>
    </g>
    <g id="ytick_8">
     <g id="line2d_215">
      <g>
       <use xlink:href="#m8bdf3a9eef" x="110.51875" y="87.246211" style="stroke: #000000; stroke-width: 0.5"/>
      </g>
     </g>
     <g id="line2d_216">
      <g>
       <use xlink:href="#m33a65a57e6" x="758.88" y="87.246211" style="stroke: #000000; stroke-width: 0.5"/>
      </g>
     </g>
     <g id="text_19">
      <!-- 3500 -->
      <g transform="translate(44.23625 94.484648)scale(0.28 -0.28)">
       <use xlink:href="#ArialMT-33"/>
       <use xlink:href="#ArialMT-35" x="55.615234"/>
       <use xlink:href="#ArialMT-30" x="111.230469"/>
       <use xlink:href="#ArialMT-30" x="166.845703"/>
      </g>
     </g>
    </g>
    <g id="ytick_9">
     <g id="line2d_217">
      <g>
       <use xlink:href="#m8bdf3a9eef" x="110.51875" y="25.763437" style="stroke: #000000; stroke-width: 0.5"/>
      </g>
     </g>
     <g id="line2d_218">
      <g>
       <use xlink:href="#m33a65a57e6" x="758.88" y="25.763437" style="stroke: #000000; stroke-width: 0.5"/>
      </g>
     </g>
     <g id="text_20">
      <!-- 4000 -->
      <g transform="translate(44.23625 33.001875)scale(0.28 -0.28)">
       <use xlink:href="#ArialMT-34"/>
       <use xlink:href="#ArialMT-30" x="55.615234"/>
       <use xlink:href="#ArialMT-30" x="111.230469"/>
       <use xlink:href="#ArialMT-30" x="166.845703"/>
      </g>
     </g>
    </g>
    <g id="text_21">
     <!-- Baseline value (Accepted) in mV -->
     <g transform="translate(33.343125 487.196094)rotate(-90)scale(0.28 -0.28)">
      <defs>
       <path id="Arial-BoldMT-42" d="M 469 4581 
L 2300 4581 
Q 2844 4581 3111 4536 
Q 3378 4491 3589 4347 
Q 3800 4203 3940 3964 
Q 4081 3725 4081 3428 
Q 4081 3106 3907 2837 
Q 3734 2569 3438 2434 
Q 3856 2313 4081 2019 
Q 4306 1725 4306 1328 
Q 4306 1016 4161 720 
Q 4016 425 3764 248 
Q 3513 72 3144 31 
Q 2913 6 2028 0 
L 469 0 
L 469 4581 
z
M 1394 3819 
L 1394 2759 
L 2000 2759 
Q 2541 2759 2672 2775 
Q 2909 2803 3045 2939 
Q 3181 3075 3181 3297 
Q 3181 3509 3064 3642 
Q 2947 3775 2716 3803 
Q 2578 3819 1925 3819 
L 1394 3819 
z
M 1394 1997 
L 1394 772 
L 2250 772 
Q 2750 772 2884 800 
Q 3091 838 3220 983 
Q 3350 1128 3350 1372 
Q 3350 1578 3250 1722 
Q 3150 1866 2961 1931 
Q 2772 1997 2141 1997 
L 1394 1997 
z
" transform="scale(0.015625)"/>
       <path id="Arial-BoldMT-61" d="M 1116 2306 
L 319 2450 
Q 453 2931 781 3162 
Q 1109 3394 1756 3394 
Q 2344 3394 2631 3255 
Q 2919 3116 3036 2902 
Q 3153 2688 3153 2116 
L 3144 1091 
Q 3144 653 3186 445 
Q 3228 238 3344 0 
L 2475 0 
Q 2441 88 2391 259 
Q 2369 338 2359 363 
Q 2134 144 1878 34 
Q 1622 -75 1331 -75 
Q 819 -75 523 203 
Q 228 481 228 906 
Q 228 1188 362 1408 
Q 497 1628 739 1745 
Q 981 1863 1438 1950 
Q 2053 2066 2291 2166 
L 2291 2253 
Q 2291 2506 2166 2614 
Q 2041 2722 1694 2722 
Q 1459 2722 1328 2630 
Q 1197 2538 1116 2306 
z
M 2291 1594 
Q 2122 1538 1756 1459 
Q 1391 1381 1278 1306 
Q 1106 1184 1106 997 
Q 1106 813 1243 678 
Q 1381 544 1594 544 
Q 1831 544 2047 700 
Q 2206 819 2256 991 
Q 2291 1103 2291 1419 
L 2291 1594 
z
" transform="scale(0.015625)"/>
       <path id="Arial-BoldMT-6c" d="M 459 0 
L 459 4581 
L 1338 4581 
L 1338 0 
L 459 0 
z
" transform="scale(0.015625)"/>
       <path id="Arial-BoldMT-69" d="M 459 3769 
L 459 4581 
L 1338 4581 
L 1338 3769 
L 459 3769 
z
M 459 0 
L 459 3319 
L 1338 3319 
L 1338 0 
L 459 0 
z
" transform="scale(0.015625)"/>
       <path id="Arial-BoldMT-20" transform="scale(0.015625)"/>
       <path id="Arial-BoldMT-76" d="M 1372 0 
L 34 3319 
L 956 3319 
L 1581 1625 
L 1763 1059 
Q 1834 1275 1853 1344 
Q 1897 1484 1947 1625 
L 2578 3319 
L 3481 3319 
L 2163 0 
L 1372 0 
z
" transform="scale(0.015625)"/>
       <path id="Arial-BoldMT-75" d="M 2644 0 
L 2644 497 
Q 2463 231 2167 78 
Q 1872 -75 1544 -75 
Q 1209 -75 943 72 
Q 678 219 559 484 
Q 441 750 441 1219 
L 441 3319 
L 1319 3319 
L 1319 1794 
Q 1319 1094 1367 936 
Q 1416 778 1544 686 
Q 1672 594 1869 594 
Q 2094 594 2272 717 
Q 2450 841 2515 1023 
Q 2581 1206 2581 1919 
L 2581 3319 
L 3459 3319 
L 3459 0 
L 2644 0 
z
" transform="scale(0.015625)"/>
       <path id="Arial-BoldMT-28" d="M 1916 -1347 
L 1313 -1347 
Q 834 -625 584 153 
Q 334 931 334 1659 
Q 334 2563 644 3369 
Q 913 4069 1325 4659 
L 1925 4659 
Q 1497 3713 1336 3048 
Q 1175 2384 1175 1641 
Q 1175 1128 1270 590 
Q 1366 53 1531 -431 
Q 1641 -750 1916 -1347 
z
" transform="scale(0.015625)"/>
       <path id="Arial-BoldMT-41" d="M 4597 0 
L 3591 0 
L 3191 1041 
L 1359 1041 
L 981 0 
L 0 0 
L 1784 4581 
L 2763 4581 
L 4597 0 
z
M 2894 1813 
L 2263 3513 
L 1644 1813 
L 2894 1813 
z
" transform="scale(0.015625)"/>
       <path id="Arial-BoldMT-63" d="M 3353 2338 
L 2488 2181 
Q 2444 2441 2289 2572 
Q 2134 2703 1888 2703 
Q 1559 2703 1364 2476 
Q 1169 2250 1169 1719 
Q 1169 1128 1367 884 
Q 1566 641 1900 641 
Q 2150 641 2309 783 
Q 2469 925 2534 1272 
L 3397 1125 
Q 3263 531 2881 228 
Q 2500 -75 1859 -75 
Q 1131 -75 698 384 
Q 266 844 266 1656 
Q 266 2478 700 2936 
Q 1134 3394 1875 3394 
Q 2481 3394 2839 3133 
Q 3197 2872 3353 2338 
z
" transform="scale(0.015625)"/>
       <path id="Arial-BoldMT-70" d="M 434 3319 
L 1253 3319 
L 1253 2831 
Q 1413 3081 1684 3237 
Q 1956 3394 2288 3394 
Q 2866 3394 3269 2941 
Q 3672 2488 3672 1678 
Q 3672 847 3265 386 
Q 2859 -75 2281 -75 
Q 2006 -75 1782 34 
Q 1559 144 1313 409 
L 1313 -1263 
L 434 -1263 
L 434 3319 
z
M 1303 1716 
Q 1303 1156 1525 889 
Q 1747 622 2066 622 
Q 2372 622 2575 867 
Q 2778 1113 2778 1672 
Q 2778 2194 2568 2447 
Q 2359 2700 2050 2700 
Q 1728 2700 1515 2451 
Q 1303 2203 1303 1716 
z
" transform="scale(0.015625)"/>
       <path id="Arial-BoldMT-74" d="M 1981 3319 
L 1981 2619 
L 1381 2619 
L 1381 1281 
Q 1381 875 1398 808 
Q 1416 741 1477 697 
Q 1538 653 1625 653 
Q 1747 653 1978 738 
L 2053 56 
Q 1747 -75 1359 -75 
Q 1122 -75 931 4 
Q 741 84 652 211 
Q 563 338 528 553 
Q 500 706 500 1172 
L 500 2619 
L 97 2619 
L 97 3319 
L 500 3319 
L 500 3978 
L 1381 4491 
L 1381 3319 
L 1981 3319 
z
" transform="scale(0.015625)"/>
       <path id="Arial-BoldMT-64" d="M 3503 0 
L 2688 0 
L 2688 488 
Q 2484 203 2207 64 
Q 1931 -75 1650 -75 
Q 1078 -75 670 386 
Q 263 847 263 1672 
Q 263 2516 659 2955 
Q 1056 3394 1663 3394 
Q 2219 3394 2625 2931 
L 2625 4581 
L 3503 4581 
L 3503 0 
z
M 1159 1731 
Q 1159 1200 1306 963 
Q 1519 619 1900 619 
Q 2203 619 2415 876 
Q 2628 1134 2628 1647 
Q 2628 2219 2422 2470 
Q 2216 2722 1894 2722 
Q 1581 2722 1370 2473 
Q 1159 2225 1159 1731 
z
" transform="scale(0.015625)"/>
       <path id="Arial-BoldMT-29" d="M 216 -1347 
Q 475 -791 581 -494 
Q 688 -197 778 190 
Q 869 578 912 926 
Q 956 1275 956 1641 
Q 956 2384 797 3048 
Q 638 3713 209 4659 
L 806 4659 
Q 1278 3988 1539 3234 
Q 1800 2481 1800 1706 
Q 1800 1053 1594 306 
Q 1359 -531 822 -1347 
L 216 -1347 
z
" transform="scale(0.015625)"/>
       <path id="Arial-BoldMT-6d" d="M 394 3319 
L 1203 3319 
L 1203 2866 
Q 1638 3394 2238 3394 
Q 2556 3394 2790 3262 
Q 3025 3131 3175 2866 
Q 3394 3131 3647 3262 
Q 3900 3394 4188 3394 
Q 4553 3394 4806 3245 
Q 5059 3097 5184 2809 
Q 5275 2597 5275 2122 
L 5275 0 
L 4397 0 
L 4397 1897 
Q 4397 2391 4306 2534 
Q 4184 2722 3931 2722 
Q 3747 2722 3584 2609 
Q 3422 2497 3350 2280 
Q 3278 2063 3278 1594 
L 3278 0 
L 2400 0 
L 2400 1819 
Q 2400 2303 2353 2443 
Q 2306 2584 2207 2653 
Q 2109 2722 1941 2722 
Q 1738 2722 1575 2612 
Q 1413 2503 1342 2297 
Q 1272 2091 1272 1613 
L 1272 0 
L 394 0 
L 394 3319 
z
" transform="scale(0.015625)"/>
       <path id="Arial-BoldMT-56" d="M 1634 0 
L -3 4581 
L 1000 4581 
L 2159 1191 
L 3281 4581 
L 4263 4581 
L 2622 0 
L 1634 0 
z
" transform="scale(0.015625)"/>
      </defs>
      <use xlink:href="#Arial-BoldMT-42"/>
      <use xlink:href="#Arial-BoldMT-61" x="72.216797"/>
      <use xlink:href="#Arial-BoldMT-73" x="127.832031"/>
      <use xlink:href="#Arial-BoldMT-65" x="183.447266"/>
      <use xlink:href="#Arial-BoldMT-6c" x="239.0625"/>
      <use xlink:href="#Arial-BoldMT-69" x="266.845703"/>
      <use xlink:href="#Arial-BoldMT-6e" x="294.628906"/>
      <use xlink:href="#Arial-BoldMT-65" x="355.712891"/>
      <use xlink:href="#Arial-BoldMT-20" x="411.328125"/>
      <use xlink:href="#Arial-BoldMT-76" x="439.111328"/>
      <use xlink:href="#Arial-BoldMT-61" x="494.726562"/>
      <use xlink:href="#Arial-BoldMT-6c" x="550.341797"/>
      <use xlink:href="#Arial-BoldMT-75" x="578.125"/>
      <use xlink:href="#Arial-BoldMT-65" x="639.208984"/>
      <use xlink:href="#Arial-BoldMT-20" x="694.824219"/>
      <use xlink:href="#Arial-BoldMT-28" x="722.607422"/>
      <use xlink:href="#Arial-BoldMT-41" x="755.908203"/>
      <use xlink:href="#Arial-BoldMT-63" x="828.125"/>
      <use xlink:href="#Arial-BoldMT-63" x="883.740234"/>
      <use xlink:href="#Arial-BoldMT-65" x="939.355469"/>
      <use xlink:href="#Arial-BoldMT-70" x="994.970703"/>
      <use xlink:href="#Arial-BoldMT-74" x="1056.054688"/>
      <use xlink:href="#Arial-BoldMT-65" x="1089.355469"/>
      <use xlink:href="#Arial-BoldMT-64" x="1144.970703"/>
      <use xlink:href="#Arial-BoldMT-29" x="1206.054688"/>
      <use xlink:href="#Arial-BoldMT-20" x="1239.355469"/>
      <use xlink:href="#Arial-BoldMT-69" x="1267.138672"/>
      <use xlink:href="#Arial-BoldMT-6e" x="1294.921875"/>
      <use xlink:href="#Arial-BoldMT-20" x="1356.005859"/>
      <use xlink:href="#Arial-BoldMT-6d" x="1383.789062"/>
      <use xlink:href="#Arial-BoldMT-56" x="1472.705078"/>
     </g>
    </g>
   </g>
   <g id="legend_1">
    <g id="patch_40">
     <path d="M 647.9475 505.625625 
L 742.08 505.625625 
Q 746.88 505.625625 746.88 500.825625 
L 746.88 378.264375 
Q 746.88 373.464375 742.08 373.464375 
L 647.9475 373.464375 
Q 643.1475 373.464375 643.1475 378.264375 
L 643.1475 500.825625 
Q 643.1475 505.625625 647.9475 505.625625 
z
" style="fill: #ffffff; stroke: #000000; stroke-linejoin: miter"/>
    </g>
    <g id="text_22">
     <!-- group -->
     <g transform="translate(679.669688 391.65375)scale(0.12 -0.12)">
      <defs>
       <path id="ArialMT-67" d="M 319 -275 
L 866 -356 
Q 900 -609 1056 -725 
Q 1266 -881 1628 -881 
Q 2019 -881 2231 -725 
Q 2444 -569 2519 -288 
Q 2563 -116 2559 434 
Q 2191 0 1641 0 
Q 956 0 581 494 
Q 206 988 206 1678 
Q 206 2153 378 2554 
Q 550 2956 876 3175 
Q 1203 3394 1644 3394 
Q 2231 3394 2613 2919 
L 2613 3319 
L 3131 3319 
L 3131 450 
Q 3131 -325 2973 -648 
Q 2816 -972 2473 -1159 
Q 2131 -1347 1631 -1347 
Q 1038 -1347 672 -1080 
Q 306 -813 319 -275 
z
M 784 1719 
Q 784 1066 1043 766 
Q 1303 466 1694 466 
Q 2081 466 2343 764 
Q 2606 1063 2606 1700 
Q 2606 2309 2336 2618 
Q 2066 2928 1684 2928 
Q 1309 2928 1046 2623 
Q 784 2319 784 1719 
z
" transform="scale(0.015625)"/>
       <path id="ArialMT-72" d="M 416 0 
L 416 3319 
L 922 3319 
L 922 2816 
Q 1116 3169 1280 3281 
Q 1444 3394 1641 3394 
Q 1925 3394 2219 3213 
L 2025 2691 
Q 1819 2813 1613 2813 
Q 1428 2813 1281 2702 
Q 1134 2591 1072 2394 
Q 978 2094 978 1738 
L 978 0 
L 416 0 
z
" transform="scale(0.015625)"/>
       <path id="ArialMT-6f" d="M 213 1659 
Q 213 2581 725 3025 
Q 1153 3394 1769 3394 
Q 2453 3394 2887 2945 
Q 3322 2497 3322 1706 
Q 3322 1066 3130 698 
Q 2938 331 2570 128 
Q 2203 -75 1769 -75 
Q 1072 -75 642 372 
Q 213 819 213 1659 
z
M 791 1659 
Q 791 1022 1069 705 
Q 1347 388 1769 388 
Q 2188 388 2466 706 
Q 2744 1025 2744 1678 
Q 2744 2294 2464 2611 
Q 2184 2928 1769 2928 
Q 1347 2928 1069 2612 
Q 791 2297 791 1659 
z
" transform="scale(0.015625)"/>
       <path id="ArialMT-75" d="M 2597 0 
L 2597 488 
Q 2209 -75 1544 -75 
Q 1250 -75 995 37 
Q 741 150 617 320 
Q 494 491 444 738 
Q 409 903 409 1263 
L 409 3319 
L 972 3319 
L 972 1478 
Q 972 1038 1006 884 
Q 1059 663 1231 536 
Q 1403 409 1656 409 
Q 1909 409 2131 539 
Q 2353 669 2445 892 
Q 2538 1116 2538 1541 
L 2538 3319 
L 3100 3319 
L 3100 0 
L 2597 0 
z
" transform="scale(0.015625)"/>
       <path id="ArialMT-70" d="M 422 -1272 
L 422 3319 
L 934 3319 
L 934 2888 
Q 1116 3141 1344 3267 
Q 1572 3394 1897 3394 
Q 2322 3394 2647 3175 
Q 2972 2956 3137 2557 
Q 3303 2159 3303 1684 
Q 3303 1175 3120 767 
Q 2938 359 2589 142 
Q 2241 -75 1856 -75 
Q 1575 -75 1351 44 
Q 1128 163 984 344 
L 984 -1272 
L 422 -1272 
z
M 931 1641 
Q 931 1000 1190 694 
Q 1450 388 1819 388 
Q 2194 388 2461 705 
Q 2728 1022 2728 1688 
Q 2728 2322 2467 2637 
Q 2206 2953 1844 2953 
Q 1484 2953 1207 2617 
Q 931 2281 931 1641 
z
" transform="scale(0.015625)"/>
      </defs>
      <use xlink:href="#ArialMT-67"/>
      <use xlink:href="#ArialMT-72" x="55.615234"/>
      <use xlink:href="#ArialMT-6f" x="88.916016"/>
      <use xlink:href="#ArialMT-75" x="144.53125"/>
      <use xlink:href="#ArialMT-70" x="200.146484"/>
     </g>
    </g>
    <g id="patch_41">
     <path d="M 652.7475 423.358125 
L 700.7475 423.358125 
L 700.7475 406.558125 
L 652.7475 406.558125 
z
" style="fill: #2020df; stroke: #262626; stroke-width: 0.5; stroke-linejoin: miter"/>
    </g>
    <g id="text_23">
     <!-- A -->
     <g transform="translate(719.9475 423.358125)scale(0.24 -0.24)">
      <defs>
       <path id="ArialMT-41" d="M -9 0 
L 1750 4581 
L 2403 4581 
L 4278 0 
L 3588 0 
L 3053 1388 
L 1138 1388 
L 634 0 
L -9 0 
z
M 1313 1881 
L 2866 1881 
L 2388 3150 
Q 2169 3728 2063 4100 
Q 1975 3659 1816 3225 
L 1313 1881 
z
" transform="scale(0.015625)"/>
      </defs>
      <use xlink:href="#ArialMT-41"/>
     </g>
    </g>
    <g id="patch_42">
     <path d="M 652.7475 457.306875 
L 700.7475 457.306875 
L 700.7475 440.506875 
L 652.7475 440.506875 
z
" style="fill: #107010; stroke: #262626; stroke-width: 0.5; stroke-linejoin: miter"/>
    </g>
    <g id="text_24">
     <!-- B -->
     <g transform="translate(719.9475 457.306875)scale(0.24 -0.24)">
      <defs>
       <path id="ArialMT-42" d="M 469 0 
L 469 4581 
L 2188 4581 
Q 2713 4581 3030 4442 
Q 3347 4303 3526 4014 
Q 3706 3725 3706 3409 
Q 3706 3116 3547 2856 
Q 3388 2597 3066 2438 
Q 3481 2316 3704 2022 
Q 3928 1728 3928 1328 
Q 3928 1006 3792 729 
Q 3656 453 3456 303 
Q 3256 153 2954 76 
Q 2653 0 2216 0 
L 469 0 
z
M 1075 2656 
L 2066 2656 
Q 2469 2656 2644 2709 
Q 2875 2778 2992 2937 
Q 3109 3097 3109 3338 
Q 3109 3566 3000 3739 
Q 2891 3913 2687 3977 
Q 2484 4041 1991 4041 
L 1075 4041 
L 1075 2656 
z
M 1075 541 
L 2216 541 
Q 2509 541 2628 563 
Q 2838 600 2978 687 
Q 3119 775 3209 942 
Q 3300 1109 3300 1328 
Q 3300 1584 3169 1773 
Q 3038 1963 2805 2039 
Q 2572 2116 2134 2116 
L 1075 2116 
L 1075 541 
z
" transform="scale(0.015625)"/>
      </defs>
      <use xlink:href="#ArialMT-42"/>
     </g>
    </g>
    <g id="patch_43">
     <path d="M 652.7475 491.255625 
L 700.7475 491.255625 
L 700.7475 474.455625 
L 652.7475 474.455625 
z
" style="fill: #df2020; stroke: #262626; stroke-width: 0.5; stroke-linejoin: miter"/>
    </g>
    <g id="text_25">
     <!-- C -->
     <g transform="translate(719.9475 491.255625)scale(0.24 -0.24)">
      <defs>
       <path id="ArialMT-43" d="M 3763 1606 
L 4369 1453 
Q 4178 706 3683 314 
Q 3188 -78 2472 -78 
Q 1731 -78 1267 223 
Q 803 525 561 1097 
Q 319 1669 319 2325 
Q 319 3041 592 3573 
Q 866 4106 1370 4382 
Q 1875 4659 2481 4659 
Q 3169 4659 3637 4309 
Q 4106 3959 4291 3325 
L 3694 3184 
Q 3534 3684 3231 3912 
Q 2928 4141 2469 4141 
Q 1941 4141 1586 3887 
Q 1231 3634 1087 3207 
Q 944 2781 944 2328 
Q 944 1744 1114 1308 
Q 1284 872 1643 656 
Q 2003 441 2422 441 
Q 2931 441 3284 734 
Q 3638 1028 3763 1606 
z
" transform="scale(0.015625)"/>
      </defs>
      <use xlink:href="#ArialMT-43"/>
     </g>
    </g>
   </g>
  </g>
 </g>
 <defs>
  <clipPath id="p8279957765">
   <rect x="110.51875" y="25.763437" width="648.36125" height="491.862188"/>
  </clipPath>
 </defs>
</svg>
