<?xml version="1.0" encoding="utf-8" standalone="no"?>
<!DOCTYPE svg PUBLIC "-//W3C//DTD SVG 1.1//EN"
  "http://www.w3.org/Graphics/SVG/1.1/DTD/svg11.dtd">
<svg xmlns:xlink="http://www.w3.org/1999/xlink" width="771.84pt" height="590.76pt" viewBox="0 0 771.84 590.76" xmlns="http://www.w3.org/2000/svg" version="1.1">
 <metadata>
  <rdf:RDF xmlns:dc="http://purl.org/dc/elements/1.1/" xmlns:cc="http://creativecommons.org/ns#" xmlns:rdf="http://www.w3.org/1999/02/22-rdf-syntax-ns#">
   <cc:Work>
    <dc:type rdf:resource="http://purl.org/dc/dcmitype/StillImage"/>
    <dc:date>2022-06-02T21:34:12.276062</dc:date>
    <dc:format>image/svg+xml</dc:format>
    <dc:creator>
     <cc:Agent>
      <dc:title>Matplotlib v3.5.2, https://matplotlib.org/</dc:title>
     </cc:Agent>
    </dc:creator>
   </cc:Work>
  </rdf:RDF>
 </metadata>
 <defs>
  <style type="text/css">*{stroke-linejoin: round; stroke-linecap: butt}</style>
 </defs>
 <g id="figure_1">
  <g id="patch_1">
   <path d="M 0 590.76 
L 771.84 590.76 
L 771.84 0 
L 0 0 
z
" style="fill: #ffffff"/>
  </g>
  <g id="axes_1">
   <g id="patch_2">
    <path d="M 110.51875 517.625625 
L 758.88 517.625625 
L 758.88 25.763437 
L 110.51875 25.763437 
z
" style="fill: #ffffff"/>
   </g>
   <g id="patch_3">
    <path d="M 117.175259 465.393154 
L 134.1191 465.393154 
L 134.1191 386.498723 
L 117.175259 386.498723 
L 117.175259 465.393154 
z
" clip-path="url(#p217cc1b84b)" style="fill: #2020df; stroke: #262626; stroke-linejoin: miter"/>
   </g>
   <g id="patch_4">
    <path d="M 134.464892 353.458144 
L 151.408733 353.458144 
L 151.408733 295.6545 
L 134.464892 295.6545 
L 134.464892 353.458144 
z
" clip-path="url(#p217cc1b84b)" style="fill: #107010; stroke: #262626; stroke-linejoin: miter"/>
   </g>
   <g id="patch_5">
    <path d="M 151.754526 344.490838 
L 168.698366 344.490838 
L 168.698366 306.894649 
L 151.754526 306.894649 
L 151.754526 344.490838 
z
" clip-path="url(#p217cc1b84b)" style="fill: #df2020; stroke: #262626; stroke-linejoin: miter"/>
   </g>
   <g id="patch_6">
    <path d="M 182.011384 220.024979 
L 198.955225 220.024979 
L 198.955225 194.44393 
L 182.011384 194.44393 
L 182.011384 220.024979 
z
" clip-path="url(#p217cc1b84b)" style="fill: #2020df; stroke: #262626; stroke-linejoin: miter"/>
   </g>
   <g id="patch_7">
    <path d="M 199.301017 109.18972 
L 216.244858 109.18972 
L 216.244858 75.107184 
L 199.301017 75.107184 
L 199.301017 109.18972 
z
" clip-path="url(#p217cc1b84b)" style="fill: #107010; stroke: #262626; stroke-linejoin: miter"/>
   </g>
   <g id="patch_8">
    <path d="M 216.590651 85.355879 
L 233.534491 85.355879 
L 233.534491 65.490356 
L 216.590651 65.490356 
L 216.590651 85.355879 
z
" clip-path="url(#p217cc1b84b)" style="fill: #df2020; stroke: #262626; stroke-linejoin: miter"/>
   </g>
   <g id="patch_9">
    <path d="M 246.847509 421.831072 
L 263.79135 421.831072 
L 263.79135 392.464265 
L 246.847509 392.464265 
L 246.847509 421.831072 
z
" clip-path="url(#p217cc1b84b)" style="fill: #2020df; stroke: #262626; stroke-linejoin: miter"/>
   </g>
   <g id="patch_10">
    <path d="M 264.137142 400.351626 
L 281.080983 400.351626 
L 281.080983 396.47382 
L 264.137142 396.47382 
L 264.137142 400.351626 
z
" clip-path="url(#p217cc1b84b)" style="fill: #107010; stroke: #262626; stroke-linejoin: miter"/>
   </g>
   <g id="patch_11">
    <path d="M 281.426776 416.038517 
L 298.370616 416.038517 
L 298.370616 394.642512 
L 281.426776 394.642512 
L 281.426776 416.038517 
z
" clip-path="url(#p217cc1b84b)" style="fill: #df2020; stroke: #262626; stroke-linejoin: miter"/>
   </g>
   <g id="patch_12">
    <path d="M 311.683634 480.736049 
L 328.627475 480.736049 
L 328.627475 438.708269 
L 311.683634 438.708269 
L 311.683634 480.736049 
z
" clip-path="url(#p217cc1b84b)" style="fill: #2020df; stroke: #262626; stroke-linejoin: miter"/>
   </g>
   <g id="patch_13">
    <path d="M 328.973267 262.951461 
L 345.917108 262.951461 
L 345.917108 202.752756 
L 328.973267 202.752756 
L 328.973267 262.951461 
z
" clip-path="url(#p217cc1b84b)" style="fill: #107010; stroke: #262626; stroke-linejoin: miter"/>
   </g>
   <g id="patch_14">
    <path d="M 346.262901 250.675503 
L 363.206741 250.675503 
L 363.206741 212.21188 
L 346.262901 212.21188 
L 346.262901 250.675503 
z
" clip-path="url(#p217cc1b84b)" style="fill: #df2020; stroke: #262626; stroke-linejoin: miter"/>
   </g>
   <g id="patch_15">
    <path d="M 376.519759 319.057303 
L 393.4636 319.057303 
L 393.4636 281.617236 
L 376.519759 281.617236 
L 376.519759 319.057303 
z
" clip-path="url(#p217cc1b84b)" style="fill: #2020df; stroke: #262626; stroke-linejoin: miter"/>
   </g>
   <g id="patch_16">
    <path d="M 393.809392 283.623639 
L 410.753233 283.623639 
L 410.753233 261.672488 
L 393.809392 261.672488 
L 393.809392 283.623639 
z
" clip-path="url(#p217cc1b84b)" style="fill: #107010; stroke: #262626; stroke-linejoin: miter"/>
   </g>
   <g id="patch_17">
    <path d="M 411.099026 284.888822 
L 428.042866 284.888822 
L 428.042866 266.017563 
L 411.099026 266.017563 
L 411.099026 284.888822 
z
" clip-path="url(#p217cc1b84b)" style="fill: #df2020; stroke: #262626; stroke-linejoin: miter"/>
   </g>
   <g id="patch_18">
    <path d="M 441.355884 312.738674 
L 458.299725 312.738674 
L 458.299725 282.621601 
L 441.355884 282.621601 
L 441.355884 312.738674 
z
" clip-path="url(#p217cc1b84b)" style="fill: #2020df; stroke: #262626; stroke-linejoin: miter"/>
   </g>
   <g id="patch_19">
    <path d="M 458.645517 268.492508 
L 475.589358 268.492508 
L 475.589358 251.750925 
L 458.645517 251.750925 
L 458.645517 268.492508 
z
" clip-path="url(#p217cc1b84b)" style="fill: #107010; stroke: #262626; stroke-linejoin: miter"/>
   </g>
   <g id="patch_20">
    <path d="M 475.935151 267.765958 
L 492.878991 267.765958 
L 492.878991 255.345032 
L 475.935151 255.345032 
L 475.935151 267.765958 
z
" clip-path="url(#p217cc1b84b)" style="fill: #df2020; stroke: #262626; stroke-linejoin: miter"/>
   </g>
   <g id="patch_21">
    <path d="M 506.192009 514.121107 
L 523.13585 514.121107 
L 523.13585 495.210762 
L 506.192009 495.210762 
L 506.192009 514.121107 
z
" clip-path="url(#p217cc1b84b)" style="fill: #2020df; stroke: #262626; stroke-linejoin: miter"/>
   </g>
   <g id="patch_22">
    <path d="M 523.481642 401.756947 
L 540.425483 401.756947 
L 540.425483 387.014256 
L 523.481642 387.014256 
L 523.481642 401.756947 
z
" clip-path="url(#p217cc1b84b)" style="fill: #107010; stroke: #262626; stroke-linejoin: miter"/>
   </g>
   <g id="patch_23">
    <path d="M 540.771276 399.824631 
L 557.715116 399.824631 
L 557.715116 384.462721 
L 540.771276 384.462721 
L 540.771276 399.824631 
z
" clip-path="url(#p217cc1b84b)" style="fill: #df2020; stroke: #262626; stroke-linejoin: miter"/>
   </g>
   <g id="patch_24">
    <path d="M 571.028134 492.022266 
L 587.971975 492.022266 
L 587.971975 322.323224 
L 571.028134 322.323224 
L 571.028134 492.022266 
z
" clip-path="url(#p217cc1b84b)" style="fill: #2020df; stroke: #262626; stroke-linejoin: miter"/>
   </g>
   <g id="patch_25">
    <path d="M 588.317767 256.03645 
L 605.261608 256.03645 
L 605.261608 147.911 
L 588.317767 147.911 
L 588.317767 256.03645 
z
" clip-path="url(#p217cc1b84b)" style="fill: #107010; stroke: #262626; stroke-linejoin: miter"/>
   </g>
   <g id="patch_26">
    <path d="M 605.607401 195.345048 
L 622.551241 195.345048 
L 622.551241 146.92262 
L 605.607401 146.92262 
L 605.607401 195.345048 
z
" clip-path="url(#p217cc1b84b)" style="fill: #df2020; stroke: #262626; stroke-linejoin: miter"/>
   </g>
   <g id="patch_27">
    <path d="M 635.864259 200.198849 
L 652.8081 200.198849 
L 652.8081 145.461614 
L 635.864259 145.461614 
L 635.864259 200.198849 
z
" clip-path="url(#p217cc1b84b)" style="fill: #2020df; stroke: #262626; stroke-linejoin: miter"/>
   </g>
   <g id="patch_28">
    <path d="M 653.153892 115.181348 
L 670.097733 115.181348 
L 670.097733 80.368924 
L 653.153892 80.368924 
L 653.153892 115.181348 
z
" clip-path="url(#p217cc1b84b)" style="fill: #107010; stroke: #262626; stroke-linejoin: miter"/>
   </g>
   <g id="patch_29">
    <path d="M 670.443526 102.76622 
L 687.387366 102.76622 
L 687.387366 86.921231 
L 670.443526 86.921231 
L 670.443526 102.76622 
z
" clip-path="url(#p217cc1b84b)" style="fill: #df2020; stroke: #262626; stroke-linejoin: miter"/>
   </g>
   <g id="patch_30">
    <path d="M 700.700384 318.535621 
L 717.644225 318.535621 
L 717.644225 257.658892 
L 700.700384 257.658892 
L 700.700384 318.535621 
z
" clip-path="url(#p217cc1b84b)" style="fill: #2020df; stroke: #262626; stroke-linejoin: miter"/>
   </g>
   <g id="patch_31">
    <path d="M 717.990017 168.341989 
L 734.933858 168.341989 
L 734.933858 120.174628 
L 717.990017 120.174628 
L 717.990017 168.341989 
z
" clip-path="url(#p217cc1b84b)" style="fill: #107010; stroke: #262626; stroke-linejoin: miter"/>
   </g>
   <g id="patch_32">
    <path d="M 735.279651 153.445591 
L 752.223491 153.445591 
L 752.223491 118.268662 
L 735.279651 118.268662 
L 735.279651 153.445591 
z
" clip-path="url(#p217cc1b84b)" style="fill: #df2020; stroke: #262626; stroke-linejoin: miter"/>
   </g>
   <g id="patch_33">
    <path d="M 142.936813 587.891652 
L 142.936813 587.891652 
L 142.936813 587.891652 
L 142.936813 587.891652 
z
" clip-path="url(#p217cc1b84b)" style="fill: #2020df; stroke: #262626; stroke-width: 0.5; stroke-linejoin: miter"/>
   </g>
   <g id="patch_34">
    <path d="M 142.936813 587.891652 
L 142.936813 587.891652 
L 142.936813 587.891652 
L 142.936813 587.891652 
z
" clip-path="url(#p217cc1b84b)" style="fill: #107010; stroke: #262626; stroke-width: 0.5; stroke-linejoin: miter"/>
   </g>
   <g id="patch_35">
    <path d="M 142.936813 587.891652 
L 142.936813 587.891652 
L 142.936813 587.891652 
L 142.936813 587.891652 
z
" clip-path="url(#p217cc1b84b)" style="fill: #df2020; stroke: #262626; stroke-width: 0.5; stroke-linejoin: miter"/>
   </g>
   <g id="line2d_1">
    <path d="M 125.647179 465.393154 
L 125.647179 472.544172 
" clip-path="url(#p217cc1b84b)" style="fill: none; stroke: #262626; stroke-linecap: square"/>
   </g>
   <g id="line2d_2">
    <path d="M 125.647179 386.498723 
L 125.647179 290.518273 
" clip-path="url(#p217cc1b84b)" style="fill: none; stroke: #262626; stroke-linecap: square"/>
   </g>
   <g id="line2d_3">
    <path d="M 121.411219 472.544172 
L 129.883139 472.544172 
" clip-path="url(#p217cc1b84b)" style="fill: none; stroke: #262626; stroke-linecap: square"/>
   </g>
   <g id="line2d_4">
    <path d="M 121.411219 290.518273 
L 129.883139 290.518273 
" clip-path="url(#p217cc1b84b)" style="fill: none; stroke: #262626; stroke-linecap: square"/>
   </g>
   <g id="line2d_5"/>
   <g id="line2d_6">
    <path d="M 142.936813 353.458144 
L 142.936813 378.61325 
" clip-path="url(#p217cc1b84b)" style="fill: none; stroke: #262626; stroke-linecap: square"/>
   </g>
   <g id="line2d_7">
    <path d="M 142.936813 295.6545 
L 142.936813 274.916053 
" clip-path="url(#p217cc1b84b)" style="fill: none; stroke: #262626; stroke-linecap: square"/>
   </g>
   <g id="line2d_8">
    <path d="M 138.700852 378.61325 
L 147.172773 378.61325 
" clip-path="url(#p217cc1b84b)" style="fill: none; stroke: #262626; stroke-linecap: square"/>
   </g>
   <g id="line2d_9">
    <path d="M 138.700852 274.916053 
L 147.172773 274.916053 
" clip-path="url(#p217cc1b84b)" style="fill: none; stroke: #262626; stroke-linecap: square"/>
   </g>
   <g id="line2d_10"/>
   <g id="line2d_11">
    <path d="M 160.226446 344.490838 
L 160.226446 374.305767 
" clip-path="url(#p217cc1b84b)" style="fill: none; stroke: #262626; stroke-linecap: square"/>
   </g>
   <g id="line2d_12">
    <path d="M 160.226446 306.894649 
L 160.226446 253.358787 
" clip-path="url(#p217cc1b84b)" style="fill: none; stroke: #262626; stroke-linecap: square"/>
   </g>
   <g id="line2d_13">
    <path d="M 155.990486 374.305767 
L 164.462406 374.305767 
" clip-path="url(#p217cc1b84b)" style="fill: none; stroke: #262626; stroke-linecap: square"/>
   </g>
   <g id="line2d_14">
    <path d="M 155.990486 253.358787 
L 164.462406 253.358787 
" clip-path="url(#p217cc1b84b)" style="fill: none; stroke: #262626; stroke-linecap: square"/>
   </g>
   <g id="line2d_15">
    <defs>
     <path id="mf42f678221" d="M -0 3.535534 
L 2.12132 0 
L -0 -3.535534 
L -2.12132 -0 
z
" style="stroke: #262626; stroke-linejoin: miter"/>
    </defs>
    <g clip-path="url(#p217cc1b84b)">
     <use xlink:href="#mf42f678221" x="160.226446" y="243.453561" style="fill: #262626; stroke: #262626; stroke-linejoin: miter"/>
     <use xlink:href="#mf42f678221" x="160.226446" y="233.091781" style="fill: #262626; stroke: #262626; stroke-linejoin: miter"/>
    </g>
   </g>
   <g id="line2d_16">
    <path d="M 190.483304 220.024979 
L 190.483304 222.528514 
" clip-path="url(#p217cc1b84b)" style="fill: none; stroke: #262626; stroke-linecap: square"/>
   </g>
   <g id="line2d_17">
    <path d="M 190.483304 194.44393 
L 190.483304 192.371214 
" clip-path="url(#p217cc1b84b)" style="fill: none; stroke: #262626; stroke-linecap: square"/>
   </g>
   <g id="line2d_18">
    <path d="M 186.247344 222.528514 
L 194.719264 222.528514 
" clip-path="url(#p217cc1b84b)" style="fill: none; stroke: #262626; stroke-linecap: square"/>
   </g>
   <g id="line2d_19">
    <path d="M 186.247344 192.371214 
L 194.719264 192.371214 
" clip-path="url(#p217cc1b84b)" style="fill: none; stroke: #262626; stroke-linecap: square"/>
   </g>
   <g id="line2d_20">
    <g clip-path="url(#p217cc1b84b)">
     <use xlink:href="#mf42f678221" x="190.483304" y="81.028546" style="fill: #262626; stroke: #262626; stroke-linejoin: miter"/>
     <use xlink:href="#mf42f678221" x="190.483304" y="77.02672" style="fill: #262626; stroke: #262626; stroke-linejoin: miter"/>
    </g>
   </g>
   <g id="line2d_21">
    <path d="M 207.772938 109.18972 
L 207.772938 148.331981 
" clip-path="url(#p217cc1b84b)" style="fill: none; stroke: #262626; stroke-linecap: square"/>
   </g>
   <g id="line2d_22">
    <path d="M 207.772938 75.107184 
L 207.772938 63.489443 
" clip-path="url(#p217cc1b84b)" style="fill: none; stroke: #262626; stroke-linecap: square"/>
   </g>
   <g id="line2d_23">
    <path d="M 203.536977 148.331981 
L 212.008898 148.331981 
" clip-path="url(#p217cc1b84b)" style="fill: none; stroke: #262626; stroke-linecap: square"/>
   </g>
   <g id="line2d_24">
    <path d="M 203.536977 63.489443 
L 212.008898 63.489443 
" clip-path="url(#p217cc1b84b)" style="fill: none; stroke: #262626; stroke-linecap: square"/>
   </g>
   <g id="line2d_25"/>
   <g id="line2d_26">
    <path d="M 225.062571 85.355879 
L 225.062571 109.864669 
" clip-path="url(#p217cc1b84b)" style="fill: none; stroke: #262626; stroke-linecap: square"/>
   </g>
   <g id="line2d_27">
    <path d="M 225.062571 65.490356 
L 225.062571 54.317794 
" clip-path="url(#p217cc1b84b)" style="fill: none; stroke: #262626; stroke-linecap: square"/>
   </g>
   <g id="line2d_28">
    <path d="M 220.826611 109.864669 
L 229.298531 109.864669 
" clip-path="url(#p217cc1b84b)" style="fill: none; stroke: #262626; stroke-linecap: square"/>
   </g>
   <g id="line2d_29">
    <path d="M 220.826611 54.317794 
L 229.298531 54.317794 
" clip-path="url(#p217cc1b84b)" style="fill: none; stroke: #262626; stroke-linecap: square"/>
   </g>
   <g id="line2d_30">
    <g clip-path="url(#p217cc1b84b)">
     <use xlink:href="#mf42f678221" x="225.062571" y="129.605734" style="fill: #262626; stroke: #262626; stroke-linejoin: miter"/>
     <use xlink:href="#mf42f678221" x="225.062571" y="117.102421" style="fill: #262626; stroke: #262626; stroke-linejoin: miter"/>
    </g>
   </g>
   <g id="line2d_31">
    <path d="M 255.319429 421.831072 
L 255.319429 426.490588 
" clip-path="url(#p217cc1b84b)" style="fill: none; stroke: #262626; stroke-linecap: square"/>
   </g>
   <g id="line2d_32">
    <path d="M 255.319429 392.464265 
L 255.319429 389.214461 
" clip-path="url(#p217cc1b84b)" style="fill: none; stroke: #262626; stroke-linecap: square"/>
   </g>
   <g id="line2d_33">
    <path d="M 251.083469 426.490588 
L 259.555389 426.490588 
" clip-path="url(#p217cc1b84b)" style="fill: none; stroke: #262626; stroke-linecap: square"/>
   </g>
   <g id="line2d_34">
    <path d="M 251.083469 389.214461 
L 259.555389 389.214461 
" clip-path="url(#p217cc1b84b)" style="fill: none; stroke: #262626; stroke-linecap: square"/>
   </g>
   <g id="line2d_35"/>
   <g id="line2d_36">
    <path d="M 272.609063 400.351626 
L 272.609063 405.46348 
" clip-path="url(#p217cc1b84b)" style="fill: none; stroke: #262626; stroke-linecap: square"/>
   </g>
   <g id="line2d_37">
    <path d="M 272.609063 396.47382 
L 272.609063 393.412856 
" clip-path="url(#p217cc1b84b)" style="fill: none; stroke: #262626; stroke-linecap: square"/>
   </g>
   <g id="line2d_38">
    <path d="M 268.373102 405.46348 
L 276.845023 405.46348 
" clip-path="url(#p217cc1b84b)" style="fill: none; stroke: #262626; stroke-linecap: square"/>
   </g>
   <g id="line2d_39">
    <path d="M 268.373102 393.412856 
L 276.845023 393.412856 
" clip-path="url(#p217cc1b84b)" style="fill: none; stroke: #262626; stroke-linecap: square"/>
   </g>
   <g id="line2d_40">
    <g clip-path="url(#p217cc1b84b)">
     <use xlink:href="#mf42f678221" x="272.609063" y="407.149864" style="fill: #262626; stroke: #262626; stroke-linejoin: miter"/>
     <use xlink:href="#mf42f678221" x="272.609063" y="371.472289" style="fill: #262626; stroke: #262626; stroke-linejoin: miter"/>
     <use xlink:href="#mf42f678221" x="272.609063" y="389.653624" style="fill: #262626; stroke: #262626; stroke-linejoin: miter"/>
    </g>
   </g>
   <g id="line2d_41">
    <path d="M 289.898696 416.038517 
L 289.898696 421.361168 
" clip-path="url(#p217cc1b84b)" style="fill: none; stroke: #262626; stroke-linecap: square"/>
   </g>
   <g id="line2d_42">
    <path d="M 289.898696 394.642512 
L 289.898696 368.029254 
" clip-path="url(#p217cc1b84b)" style="fill: none; stroke: #262626; stroke-linecap: square"/>
   </g>
   <g id="line2d_43">
    <path d="M 285.662736 421.361168 
L 294.134656 421.361168 
" clip-path="url(#p217cc1b84b)" style="fill: none; stroke: #262626; stroke-linecap: square"/>
   </g>
   <g id="line2d_44">
    <path d="M 285.662736 368.029254 
L 294.134656 368.029254 
" clip-path="url(#p217cc1b84b)" style="fill: none; stroke: #262626; stroke-linecap: square"/>
   </g>
   <g id="line2d_45"/>
   <g id="line2d_46">
    <path d="M 320.155554 480.736049 
L 320.155554 484.990042 
" clip-path="url(#p217cc1b84b)" style="fill: none; stroke: #262626; stroke-linecap: square"/>
   </g>
   <g id="line2d_47">
    <path d="M 320.155554 438.708269 
L 320.155554 437.893008 
" clip-path="url(#p217cc1b84b)" style="fill: none; stroke: #262626; stroke-linecap: square"/>
   </g>
   <g id="line2d_48">
    <path d="M 315.919594 484.990042 
L 324.391514 484.990042 
" clip-path="url(#p217cc1b84b)" style="fill: none; stroke: #262626; stroke-linecap: square"/>
   </g>
   <g id="line2d_49">
    <path d="M 315.919594 437.893008 
L 324.391514 437.893008 
" clip-path="url(#p217cc1b84b)" style="fill: none; stroke: #262626; stroke-linecap: square"/>
   </g>
   <g id="line2d_50">
    <g clip-path="url(#p217cc1b84b)">
     <use xlink:href="#mf42f678221" x="320.155554" y="200.045669" style="fill: #262626; stroke: #262626; stroke-linejoin: miter"/>
     <use xlink:href="#mf42f678221" x="320.155554" y="212.274593" style="fill: #262626; stroke: #262626; stroke-linejoin: miter"/>
    </g>
   </g>
   <g id="line2d_51">
    <path d="M 337.445188 262.951461 
L 337.445188 286.776958 
" clip-path="url(#p217cc1b84b)" style="fill: none; stroke: #262626; stroke-linecap: square"/>
   </g>
   <g id="line2d_52">
    <path d="M 337.445188 202.752756 
L 337.445188 184.91107 
" clip-path="url(#p217cc1b84b)" style="fill: none; stroke: #262626; stroke-linecap: square"/>
   </g>
   <g id="line2d_53">
    <path d="M 333.209227 286.776958 
L 341.681148 286.776958 
" clip-path="url(#p217cc1b84b)" style="fill: none; stroke: #262626; stroke-linecap: square"/>
   </g>
   <g id="line2d_54">
    <path d="M 333.209227 184.91107 
L 341.681148 184.91107 
" clip-path="url(#p217cc1b84b)" style="fill: none; stroke: #262626; stroke-linecap: square"/>
   </g>
   <g id="line2d_55"/>
   <g id="line2d_56">
    <path d="M 354.734821 250.675503 
L 354.734821 280.902894 
" clip-path="url(#p217cc1b84b)" style="fill: none; stroke: #262626; stroke-linecap: square"/>
   </g>
   <g id="line2d_57">
    <path d="M 354.734821 212.21188 
L 354.734821 162.125554 
" clip-path="url(#p217cc1b84b)" style="fill: none; stroke: #262626; stroke-linecap: square"/>
   </g>
   <g id="line2d_58">
    <path d="M 350.498861 280.902894 
L 358.970781 280.902894 
" clip-path="url(#p217cc1b84b)" style="fill: none; stroke: #262626; stroke-linecap: square"/>
   </g>
   <g id="line2d_59">
    <path d="M 350.498861 162.125554 
L 358.970781 162.125554 
" clip-path="url(#p217cc1b84b)" style="fill: none; stroke: #262626; stroke-linecap: square"/>
   </g>
   <g id="line2d_60">
    <g clip-path="url(#p217cc1b84b)">
     <use xlink:href="#mf42f678221" x="354.734821" y="150.084767" style="fill: #262626; stroke: #262626; stroke-linejoin: miter"/>
     <use xlink:href="#mf42f678221" x="354.734821" y="130.246736" style="fill: #262626; stroke: #262626; stroke-linejoin: miter"/>
    </g>
   </g>
   <g id="line2d_61">
    <path d="M 384.991679 319.057303 
L 384.991679 322.316109 
" clip-path="url(#p217cc1b84b)" style="fill: none; stroke: #262626; stroke-linecap: square"/>
   </g>
   <g id="line2d_62">
    <path d="M 384.991679 281.617236 
L 384.991679 258.571297 
" clip-path="url(#p217cc1b84b)" style="fill: none; stroke: #262626; stroke-linecap: square"/>
   </g>
   <g id="line2d_63">
    <path d="M 380.755719 322.316109 
L 389.227639 322.316109 
" clip-path="url(#p217cc1b84b)" style="fill: none; stroke: #262626; stroke-linecap: square"/>
   </g>
   <g id="line2d_64">
    <path d="M 380.755719 258.571297 
L 389.227639 258.571297 
" clip-path="url(#p217cc1b84b)" style="fill: none; stroke: #262626; stroke-linecap: square"/>
   </g>
   <g id="line2d_65"/>
   <g id="line2d_66">
    <path d="M 402.281313 283.623639 
L 402.281313 304.288306 
" clip-path="url(#p217cc1b84b)" style="fill: none; stroke: #262626; stroke-linecap: square"/>
   </g>
   <g id="line2d_67">
    <path d="M 402.281313 261.672488 
L 402.281313 245.587189 
" clip-path="url(#p217cc1b84b)" style="fill: none; stroke: #262626; stroke-linecap: square"/>
   </g>
   <g id="line2d_68">
    <path d="M 398.045352 304.288306 
L 406.517273 304.288306 
" clip-path="url(#p217cc1b84b)" style="fill: none; stroke: #262626; stroke-linecap: square"/>
   </g>
   <g id="line2d_69">
    <path d="M 398.045352 245.587189 
L 406.517273 245.587189 
" clip-path="url(#p217cc1b84b)" style="fill: none; stroke: #262626; stroke-linecap: square"/>
   </g>
   <g id="line2d_70"/>
   <g id="line2d_71">
    <path d="M 419.570946 284.888822 
L 419.570946 299.432045 
" clip-path="url(#p217cc1b84b)" style="fill: none; stroke: #262626; stroke-linecap: square"/>
   </g>
   <g id="line2d_72">
    <path d="M 419.570946 266.017563 
L 419.570946 238.379476 
" clip-path="url(#p217cc1b84b)" style="fill: none; stroke: #262626; stroke-linecap: square"/>
   </g>
   <g id="line2d_73">
    <path d="M 415.334986 299.432045 
L 423.806906 299.432045 
" clip-path="url(#p217cc1b84b)" style="fill: none; stroke: #262626; stroke-linecap: square"/>
   </g>
   <g id="line2d_74">
    <path d="M 415.334986 238.379476 
L 423.806906 238.379476 
" clip-path="url(#p217cc1b84b)" style="fill: none; stroke: #262626; stroke-linecap: square"/>
   </g>
   <g id="line2d_75">
    <g clip-path="url(#p217cc1b84b)">
     <use xlink:href="#mf42f678221" x="419.570946" y="226.264383" style="fill: #262626; stroke: #262626; stroke-linejoin: miter"/>
     <use xlink:href="#mf42f678221" x="419.570946" y="211.610403" style="fill: #262626; stroke: #262626; stroke-linejoin: miter"/>
    </g>
   </g>
   <g id="line2d_76">
    <path d="M 449.827804 312.738674 
L 449.827804 314.566645 
" clip-path="url(#p217cc1b84b)" style="fill: none; stroke: #262626; stroke-linecap: square"/>
   </g>
   <g id="line2d_77">
    <path d="M 449.827804 282.621601 
L 449.827804 249.996382 
" clip-path="url(#p217cc1b84b)" style="fill: none; stroke: #262626; stroke-linecap: square"/>
   </g>
   <g id="line2d_78">
    <path d="M 445.591844 314.566645 
L 454.063764 314.566645 
" clip-path="url(#p217cc1b84b)" style="fill: none; stroke: #262626; stroke-linecap: square"/>
   </g>
   <g id="line2d_79">
    <path d="M 445.591844 249.996382 
L 454.063764 249.996382 
" clip-path="url(#p217cc1b84b)" style="fill: none; stroke: #262626; stroke-linecap: square"/>
   </g>
   <g id="line2d_80"/>
   <g id="line2d_81">
    <path d="M 467.117438 268.492508 
L 467.117438 289.415623 
" clip-path="url(#p217cc1b84b)" style="fill: none; stroke: #262626; stroke-linecap: square"/>
   </g>
   <g id="line2d_82">
    <path d="M 467.117438 251.750925 
L 467.117438 241.200481 
" clip-path="url(#p217cc1b84b)" style="fill: none; stroke: #262626; stroke-linecap: square"/>
   </g>
   <g id="line2d_83">
    <path d="M 462.881477 289.415623 
L 471.353398 289.415623 
" clip-path="url(#p217cc1b84b)" style="fill: none; stroke: #262626; stroke-linecap: square"/>
   </g>
   <g id="line2d_84">
    <path d="M 462.881477 241.200481 
L 471.353398 241.200481 
" clip-path="url(#p217cc1b84b)" style="fill: none; stroke: #262626; stroke-linecap: square"/>
   </g>
   <g id="line2d_85"/>
   <g id="line2d_86">
    <path d="M 484.407071 267.765958 
L 484.407071 281.037102 
" clip-path="url(#p217cc1b84b)" style="fill: none; stroke: #262626; stroke-linecap: square"/>
   </g>
   <g id="line2d_87">
    <path d="M 484.407071 255.345032 
L 484.407071 236.841177 
" clip-path="url(#p217cc1b84b)" style="fill: none; stroke: #262626; stroke-linecap: square"/>
   </g>
   <g id="line2d_88">
    <path d="M 480.171111 281.037102 
L 488.643031 281.037102 
" clip-path="url(#p217cc1b84b)" style="fill: none; stroke: #262626; stroke-linecap: square"/>
   </g>
   <g id="line2d_89">
    <path d="M 480.171111 236.841177 
L 488.643031 236.841177 
" clip-path="url(#p217cc1b84b)" style="fill: none; stroke: #262626; stroke-linecap: square"/>
   </g>
   <g id="line2d_90">
    <g clip-path="url(#p217cc1b84b)">
     <use xlink:href="#mf42f678221" x="484.407071" y="286.401211" style="fill: #262626; stroke: #262626; stroke-linejoin: miter"/>
     <use xlink:href="#mf42f678221" x="484.407071" y="227.767022" style="fill: #262626; stroke: #262626; stroke-linejoin: miter"/>
     <use xlink:href="#mf42f678221" x="484.407071" y="234.615149" style="fill: #262626; stroke: #262626; stroke-linejoin: miter"/>
     <use xlink:href="#mf42f678221" x="484.407071" y="216.698717" style="fill: #262626; stroke: #262626; stroke-linejoin: miter"/>
    </g>
   </g>
   <g id="line2d_91">
    <path d="M 514.663929 514.121107 
L 514.663929 516.782433 
" clip-path="url(#p217cc1b84b)" style="fill: none; stroke: #262626; stroke-linecap: square"/>
   </g>
   <g id="line2d_92">
    <path d="M 514.663929 495.210762 
L 514.663929 495.07023 
" clip-path="url(#p217cc1b84b)" style="fill: none; stroke: #262626; stroke-linecap: square"/>
   </g>
   <g id="line2d_93">
    <path d="M 510.427969 516.782433 
L 518.899889 516.782433 
" clip-path="url(#p217cc1b84b)" style="fill: none; stroke: #262626; stroke-linecap: square"/>
   </g>
   <g id="line2d_94">
    <path d="M 510.427969 495.07023 
L 518.899889 495.07023 
" clip-path="url(#p217cc1b84b)" style="fill: none; stroke: #262626; stroke-linecap: square"/>
   </g>
   <g id="line2d_95">
    <g clip-path="url(#p217cc1b84b)">
     <use xlink:href="#mf42f678221" x="514.663929" y="388.178037" style="fill: #262626; stroke: #262626; stroke-linejoin: miter"/>
     <use xlink:href="#mf42f678221" x="514.663929" y="385.490362" style="fill: #262626; stroke: #262626; stroke-linejoin: miter"/>
    </g>
   </g>
   <g id="line2d_96">
    <path d="M 531.953563 401.756947 
L 531.953563 415.862852 
" clip-path="url(#p217cc1b84b)" style="fill: none; stroke: #262626; stroke-linecap: square"/>
   </g>
   <g id="line2d_97">
    <path d="M 531.953563 387.014256 
L 531.953563 376.162547 
" clip-path="url(#p217cc1b84b)" style="fill: none; stroke: #262626; stroke-linecap: square"/>
   </g>
   <g id="line2d_98">
    <path d="M 527.717602 415.862852 
L 536.189523 415.862852 
" clip-path="url(#p217cc1b84b)" style="fill: none; stroke: #262626; stroke-linecap: square"/>
   </g>
   <g id="line2d_99">
    <path d="M 527.717602 376.162547 
L 536.189523 376.162547 
" clip-path="url(#p217cc1b84b)" style="fill: none; stroke: #262626; stroke-linecap: square"/>
   </g>
   <g id="line2d_100"/>
   <g id="line2d_101">
    <path d="M 549.243196 399.824631 
L 549.243196 413.140043 
" clip-path="url(#p217cc1b84b)" style="fill: none; stroke: #262626; stroke-linecap: square"/>
   </g>
   <g id="line2d_102">
    <path d="M 549.243196 384.462721 
L 549.243196 367.133362 
" clip-path="url(#p217cc1b84b)" style="fill: none; stroke: #262626; stroke-linecap: square"/>
   </g>
   <g id="line2d_103">
    <path d="M 545.007236 413.140043 
L 553.479156 413.140043 
" clip-path="url(#p217cc1b84b)" style="fill: none; stroke: #262626; stroke-linecap: square"/>
   </g>
   <g id="line2d_104">
    <path d="M 545.007236 367.133362 
L 553.479156 367.133362 
" clip-path="url(#p217cc1b84b)" style="fill: none; stroke: #262626; stroke-linecap: square"/>
   </g>
   <g id="line2d_105">
    <g clip-path="url(#p217cc1b84b)">
     <use xlink:href="#mf42f678221" x="549.243196" y="348.354766" style="fill: #262626; stroke: #262626; stroke-linejoin: miter"/>
     <use xlink:href="#mf42f678221" x="549.243196" y="361.406681" style="fill: #262626; stroke: #262626; stroke-linejoin: miter"/>
     <use xlink:href="#mf42f678221" x="549.243196" y="348.653397" style="fill: #262626; stroke: #262626; stroke-linejoin: miter"/>
     <use xlink:href="#mf42f678221" x="549.243196" y="361.353981" style="fill: #262626; stroke: #262626; stroke-linejoin: miter"/>
     <use xlink:href="#mf42f678221" x="549.243196" y="353.923349" style="fill: #262626; stroke: #262626; stroke-linejoin: miter"/>
     <use xlink:href="#mf42f678221" x="549.243196" y="361.002651" style="fill: #262626; stroke: #262626; stroke-linejoin: miter"/>
     <use xlink:href="#mf42f678221" x="549.243196" y="356.206995" style="fill: #262626; stroke: #262626; stroke-linejoin: miter"/>
    </g>
   </g>
   <g id="line2d_106">
    <path d="M 579.500054 492.022266 
L 579.500054 513.047793 
" clip-path="url(#p217cc1b84b)" style="fill: none; stroke: #262626; stroke-linecap: square"/>
   </g>
   <g id="line2d_107">
    <path d="M 579.500054 322.323224 
L 579.500054 147.657779 
" clip-path="url(#p217cc1b84b)" style="fill: none; stroke: #262626; stroke-linecap: square"/>
   </g>
   <g id="line2d_108">
    <path d="M 575.264094 513.047793 
L 583.736014 513.047793 
" clip-path="url(#p217cc1b84b)" style="fill: none; stroke: #262626; stroke-linecap: square"/>
   </g>
   <g id="line2d_109">
    <path d="M 575.264094 147.657779 
L 583.736014 147.657779 
" clip-path="url(#p217cc1b84b)" style="fill: none; stroke: #262626; stroke-linecap: square"/>
   </g>
   <g id="line2d_110"/>
   <g id="line2d_111">
    <path d="M 596.789688 256.03645 
L 596.789688 323.050214 
" clip-path="url(#p217cc1b84b)" style="fill: none; stroke: #262626; stroke-linecap: square"/>
   </g>
   <g id="line2d_112">
    <path d="M 596.789688 147.911 
L 596.789688 138.999248 
" clip-path="url(#p217cc1b84b)" style="fill: none; stroke: #262626; stroke-linecap: square"/>
   </g>
   <g id="line2d_113">
    <path d="M 592.553727 323.050214 
L 601.025648 323.050214 
" clip-path="url(#p217cc1b84b)" style="fill: none; stroke: #262626; stroke-linecap: square"/>
   </g>
   <g id="line2d_114">
    <path d="M 592.553727 138.999248 
L 601.025648 138.999248 
" clip-path="url(#p217cc1b84b)" style="fill: none; stroke: #262626; stroke-linecap: square"/>
   </g>
   <g id="line2d_115"/>
   <g id="line2d_116">
    <path d="M 614.079321 195.345048 
L 614.079321 263.878138 
" clip-path="url(#p217cc1b84b)" style="fill: none; stroke: #262626; stroke-linecap: square"/>
   </g>
   <g id="line2d_117">
    <path d="M 614.079321 146.92262 
L 614.079321 75.74296 
" clip-path="url(#p217cc1b84b)" style="fill: none; stroke: #262626; stroke-linecap: square"/>
   </g>
   <g id="line2d_118">
    <path d="M 609.843361 263.878138 
L 618.315281 263.878138 
" clip-path="url(#p217cc1b84b)" style="fill: none; stroke: #262626; stroke-linecap: square"/>
   </g>
   <g id="line2d_119">
    <path d="M 609.843361 75.74296 
L 618.315281 75.74296 
" clip-path="url(#p217cc1b84b)" style="fill: none; stroke: #262626; stroke-linecap: square"/>
   </g>
   <g id="line2d_120">
    <g clip-path="url(#p217cc1b84b)">
     <use xlink:href="#mf42f678221" x="614.079321" y="301.126159" style="fill: #262626; stroke: #262626; stroke-linejoin: miter"/>
    </g>
   </g>
   <g id="line2d_121">
    <path d="M 644.336179 200.198849 
L 644.336179 205.855264 
" clip-path="url(#p217cc1b84b)" style="fill: none; stroke: #262626; stroke-linecap: square"/>
   </g>
   <g id="line2d_122">
    <path d="M 644.336179 145.461614 
L 644.336179 78.691322 
" clip-path="url(#p217cc1b84b)" style="fill: none; stroke: #262626; stroke-linecap: square"/>
   </g>
   <g id="line2d_123">
    <path d="M 640.100219 205.855264 
L 648.572139 205.855264 
" clip-path="url(#p217cc1b84b)" style="fill: none; stroke: #262626; stroke-linecap: square"/>
   </g>
   <g id="line2d_124">
    <path d="M 640.100219 78.691322 
L 648.572139 78.691322 
" clip-path="url(#p217cc1b84b)" style="fill: none; stroke: #262626; stroke-linecap: square"/>
   </g>
   <g id="line2d_125"/>
   <g id="line2d_126">
    <path d="M 661.625813 115.181348 
L 661.625813 130.723315 
" clip-path="url(#p217cc1b84b)" style="fill: none; stroke: #262626; stroke-linecap: square"/>
   </g>
   <g id="line2d_127">
    <path d="M 661.625813 80.368924 
L 661.625813 77.057637 
" clip-path="url(#p217cc1b84b)" style="fill: none; stroke: #262626; stroke-linecap: square"/>
   </g>
   <g id="line2d_128">
    <path d="M 657.389852 130.723315 
L 665.861773 130.723315 
" clip-path="url(#p217cc1b84b)" style="fill: none; stroke: #262626; stroke-linecap: square"/>
   </g>
   <g id="line2d_129">
    <path d="M 657.389852 77.057637 
L 665.861773 77.057637 
" clip-path="url(#p217cc1b84b)" style="fill: none; stroke: #262626; stroke-linecap: square"/>
   </g>
   <g id="line2d_130"/>
   <g id="line2d_131">
    <path d="M 678.915446 102.76622 
L 678.915446 119.269953 
" clip-path="url(#p217cc1b84b)" style="fill: none; stroke: #262626; stroke-linecap: square"/>
   </g>
   <g id="line2d_132">
    <path d="M 678.915446 86.921231 
L 678.915446 70.768828 
" clip-path="url(#p217cc1b84b)" style="fill: none; stroke: #262626; stroke-linecap: square"/>
   </g>
   <g id="line2d_133">
    <path d="M 674.679486 119.269953 
L 683.151406 119.269953 
" clip-path="url(#p217cc1b84b)" style="fill: none; stroke: #262626; stroke-linecap: square"/>
   </g>
   <g id="line2d_134">
    <path d="M 674.679486 70.768828 
L 683.151406 70.768828 
" clip-path="url(#p217cc1b84b)" style="fill: none; stroke: #262626; stroke-linecap: square"/>
   </g>
   <g id="line2d_135">
    <g clip-path="url(#p217cc1b84b)">
     <use xlink:href="#mf42f678221" x="678.915446" y="127.297846" style="fill: #262626; stroke: #262626; stroke-linejoin: miter"/>
     <use xlink:href="#mf42f678221" x="678.915446" y="59.473564" style="fill: #262626; stroke: #262626; stroke-linejoin: miter"/>
    </g>
   </g>
   <g id="line2d_136">
    <path d="M 709.172304 318.535621 
L 709.172304 325.904771 
" clip-path="url(#p217cc1b84b)" style="fill: none; stroke: #262626; stroke-linecap: square"/>
   </g>
   <g id="line2d_137">
    <path d="M 709.172304 257.658892 
L 709.172304 257.272429 
" clip-path="url(#p217cc1b84b)" style="fill: none; stroke: #262626; stroke-linecap: square"/>
   </g>
   <g id="line2d_138">
    <path d="M 704.936344 325.904771 
L 713.408264 325.904771 
" clip-path="url(#p217cc1b84b)" style="fill: none; stroke: #262626; stroke-linecap: square"/>
   </g>
   <g id="line2d_139">
    <path d="M 704.936344 257.272429 
L 713.408264 257.272429 
" clip-path="url(#p217cc1b84b)" style="fill: none; stroke: #262626; stroke-linecap: square"/>
   </g>
   <g id="line2d_140">
    <g clip-path="url(#p217cc1b84b)">
     <use xlink:href="#mf42f678221" x="709.172304" y="126.647885" style="fill: #262626; stroke: #262626; stroke-linejoin: miter"/>
     <use xlink:href="#mf42f678221" x="709.172304" y="122.168426" style="fill: #262626; stroke: #262626; stroke-linejoin: miter"/>
    </g>
   </g>
   <g id="line2d_141">
    <path d="M 726.461938 168.341989 
L 726.461938 200.49748 
" clip-path="url(#p217cc1b84b)" style="fill: none; stroke: #262626; stroke-linecap: square"/>
   </g>
   <g id="line2d_142">
    <path d="M 726.461938 120.174628 
L 726.461938 107.570659 
" clip-path="url(#p217cc1b84b)" style="fill: none; stroke: #262626; stroke-linecap: square"/>
   </g>
   <g id="line2d_143">
    <path d="M 722.225977 200.49748 
L 730.697898 200.49748 
" clip-path="url(#p217cc1b84b)" style="fill: none; stroke: #262626; stroke-linecap: square"/>
   </g>
   <g id="line2d_144">
    <path d="M 722.225977 107.570659 
L 730.697898 107.570659 
" clip-path="url(#p217cc1b84b)" style="fill: none; stroke: #262626; stroke-linecap: square"/>
   </g>
   <g id="line2d_145"/>
   <g id="line2d_146">
    <path d="M 743.751571 153.445591 
L 743.751571 185.934846 
" clip-path="url(#p217cc1b84b)" style="fill: none; stroke: #262626; stroke-linecap: square"/>
   </g>
   <g id="line2d_147">
    <path d="M 743.751571 118.268662 
L 743.751571 72.964641 
" clip-path="url(#p217cc1b84b)" style="fill: none; stroke: #262626; stroke-linecap: square"/>
   </g>
   <g id="line2d_148">
    <path d="M 739.515611 185.934846 
L 747.987531 185.934846 
" clip-path="url(#p217cc1b84b)" style="fill: none; stroke: #262626; stroke-linecap: square"/>
   </g>
   <g id="line2d_149">
    <path d="M 739.515611 72.964641 
L 747.987531 72.964641 
" clip-path="url(#p217cc1b84b)" style="fill: none; stroke: #262626; stroke-linecap: square"/>
   </g>
   <g id="line2d_150"/>
   <g id="line2d_151">
    <path d="M 117.175259 441.994787 
L 134.1191 441.994787 
" clip-path="url(#p217cc1b84b)" style="fill: none; stroke: #262626; stroke-linecap: square"/>
   </g>
   <g id="line2d_152">
    <path d="M 134.464892 317.325904 
L 151.408733 317.325904 
" clip-path="url(#p217cc1b84b)" style="fill: none; stroke: #262626; stroke-linecap: square"/>
   </g>
   <g id="line2d_153">
    <path d="M 151.754526 325.23619 
L 168.698366 325.23619 
" clip-path="url(#p217cc1b84b)" style="fill: none; stroke: #262626; stroke-linecap: square"/>
   </g>
   <g id="line2d_154">
    <path d="M 182.011384 205.965933 
L 198.955225 205.965933 
" clip-path="url(#p217cc1b84b)" style="fill: none; stroke: #262626; stroke-linecap: square"/>
   </g>
   <g id="line2d_155">
    <path d="M 199.301017 86.112205 
L 216.244858 86.112205 
" clip-path="url(#p217cc1b84b)" style="fill: none; stroke: #262626; stroke-linecap: square"/>
   </g>
   <g id="line2d_156">
    <path d="M 216.590651 71.493095 
L 233.534491 71.493095 
" clip-path="url(#p217cc1b84b)" style="fill: none; stroke: #262626; stroke-linecap: square"/>
   </g>
   <g id="line2d_157">
    <path d="M 246.847509 415.151408 
L 263.79135 415.151408 
" clip-path="url(#p217cc1b84b)" style="fill: none; stroke: #262626; stroke-linecap: square"/>
   </g>
   <g id="line2d_158">
    <path d="M 264.137142 398.586192 
L 281.080983 398.586192 
" clip-path="url(#p217cc1b84b)" style="fill: none; stroke: #262626; stroke-linecap: square"/>
   </g>
   <g id="line2d_159">
    <path d="M 281.426776 407.360662 
L 298.370616 407.360662 
" clip-path="url(#p217cc1b84b)" style="fill: none; stroke: #262626; stroke-linecap: square"/>
   </g>
   <g id="line2d_160">
    <path d="M 311.683634 469.771826 
L 328.627475 469.771826 
" clip-path="url(#p217cc1b84b)" style="fill: none; stroke: #262626; stroke-linecap: square"/>
   </g>
   <g id="line2d_161">
    <path d="M 328.973267 226.656643 
L 345.917108 226.656643 
" clip-path="url(#p217cc1b84b)" style="fill: none; stroke: #262626; stroke-linecap: square"/>
   </g>
   <g id="line2d_162">
    <path d="M 346.262901 232.363474 
L 363.206741 232.363474 
" clip-path="url(#p217cc1b84b)" style="fill: none; stroke: #262626; stroke-linecap: square"/>
   </g>
   <g id="line2d_163">
    <path d="M 376.519759 308.105157 
L 393.4636 308.105157 
" clip-path="url(#p217cc1b84b)" style="fill: none; stroke: #262626; stroke-linecap: square"/>
   </g>
   <g id="line2d_164">
    <path d="M 393.809392 274.281726 
L 410.753233 274.281726 
" clip-path="url(#p217cc1b84b)" style="fill: none; stroke: #262626; stroke-linecap: square"/>
   </g>
   <g id="line2d_165">
    <path d="M 411.099026 273.106 
L 428.042866 273.106 
" clip-path="url(#p217cc1b84b)" style="fill: none; stroke: #262626; stroke-linecap: square"/>
   </g>
   <g id="line2d_166">
    <path d="M 441.355884 301.419169 
L 458.299725 301.419169 
" clip-path="url(#p217cc1b84b)" style="fill: none; stroke: #262626; stroke-linecap: square"/>
   </g>
   <g id="line2d_167">
    <path d="M 458.645517 261.683028 
L 475.589358 261.683028 
" clip-path="url(#p217cc1b84b)" style="fill: none; stroke: #262626; stroke-linecap: square"/>
   </g>
   <g id="line2d_168">
    <path d="M 475.935151 261.265648 
L 492.878991 261.265648 
" clip-path="url(#p217cc1b84b)" style="fill: none; stroke: #262626; stroke-linecap: square"/>
   </g>
   <g id="line2d_169">
    <path d="M 506.192009 509.4045 
L 523.13585 509.4045 
" clip-path="url(#p217cc1b84b)" style="fill: none; stroke: #262626; stroke-linecap: square"/>
   </g>
   <g id="line2d_170">
    <path d="M 523.481642 390.663698 
L 540.425483 390.663698 
" clip-path="url(#p217cc1b84b)" style="fill: none; stroke: #262626; stroke-linecap: square"/>
   </g>
   <g id="line2d_171">
    <path d="M 540.771276 392.692629 
L 557.715116 392.692629 
" clip-path="url(#p217cc1b84b)" style="fill: none; stroke: #262626; stroke-linecap: square"/>
   </g>
   <g id="line2d_172">
    <path d="M 571.028134 421.496079 
L 587.971975 421.496079 
" clip-path="url(#p217cc1b84b)" style="fill: none; stroke: #262626; stroke-linecap: square"/>
   </g>
   <g id="line2d_173">
    <path d="M 588.317767 177.309164 
L 605.261608 177.309164 
" clip-path="url(#p217cc1b84b)" style="fill: none; stroke: #262626; stroke-linecap: square"/>
   </g>
   <g id="line2d_174">
    <path d="M 605.607401 175.593794 
L 622.551241 175.593794 
" clip-path="url(#p217cc1b84b)" style="fill: none; stroke: #262626; stroke-linecap: square"/>
   </g>
   <g id="line2d_175">
    <path d="M 635.864259 182.676259 
L 652.8081 182.676259 
" clip-path="url(#p217cc1b84b)" style="fill: none; stroke: #262626; stroke-linecap: square"/>
   </g>
   <g id="line2d_176">
    <path d="M 653.153892 91.383123 
L 670.097733 91.383123 
" clip-path="url(#p217cc1b84b)" style="fill: none; stroke: #262626; stroke-linecap: square"/>
   </g>
   <g id="line2d_177">
    <path d="M 670.443526 97.118588 
L 687.387366 97.118588 
" clip-path="url(#p217cc1b84b)" style="fill: none; stroke: #262626; stroke-linecap: square"/>
   </g>
   <g id="line2d_178">
    <path d="M 700.700384 293.318901 
L 717.644225 293.318901 
" clip-path="url(#p217cc1b84b)" style="fill: none; stroke: #262626; stroke-linecap: square"/>
   </g>
   <g id="line2d_179">
    <path d="M 717.990017 136.625661 
L 734.933858 136.625661 
" clip-path="url(#p217cc1b84b)" style="fill: none; stroke: #262626; stroke-linecap: square"/>
   </g>
   <g id="line2d_180">
    <path d="M 735.279651 132.655631 
L 752.223491 132.655631 
" clip-path="url(#p217cc1b84b)" style="fill: none; stroke: #262626; stroke-linecap: square"/>
   </g>
   <g id="patch_36">
    <path d="M 110.51875 517.625625 
L 110.51875 25.763437 
" style="fill: none; stroke: #000000; stroke-linejoin: miter; stroke-linecap: square"/>
   </g>
   <g id="patch_37">
    <path d="M 758.88 517.625625 
L 758.88 25.763437 
" style="fill: none; stroke: #000000; stroke-linejoin: miter; stroke-linecap: square"/>
   </g>
   <g id="patch_38">
    <path d="M 110.51875 517.625625 
L 758.88 517.625625 
" style="fill: none; stroke: #000000; stroke-linejoin: miter; stroke-linecap: square"/>
   </g>
   <g id="patch_39">
    <path d="M 110.51875 25.763437 
L 758.88 25.763437 
" style="fill: none; stroke: #000000; stroke-linejoin: miter; stroke-linecap: square"/>
   </g>
   <g id="matplotlib.axis_1">
    <g id="xtick_1">
     <g id="line2d_181">
      <defs>
       <path id="m6162140239" d="M 0 0 
L 0 -4 
" style="stroke: #000000; stroke-width: 0.5"/>
      </defs>
      <g>
       <use xlink:href="#m6162140239" x="142.936813" y="517.625625" style="stroke: #000000; stroke-width: 0.5"/>
      </g>
     </g>
     <g id="line2d_182">
      <defs>
       <path id="md57a179910" d="M 0 0 
L 0 4 
" style="stroke: #000000; stroke-width: 0.5"/>
      </defs>
      <g>
       <use xlink:href="#md57a179910" x="142.936813" y="25.763437" style="stroke: #000000; stroke-width: 0.5"/>
      </g>
     </g>
     <g id="text_1">
      <!-- S1 -->
      <g transform="translate(125.813063 541.6675)scale(0.28 -0.28)">
       <defs>
        <path id="ArialMT-53" d="M 288 1472 
L 859 1522 
Q 900 1178 1048 958 
Q 1197 738 1509 602 
Q 1822 466 2213 466 
Q 2559 466 2825 569 
Q 3091 672 3220 851 
Q 3350 1031 3350 1244 
Q 3350 1459 3225 1620 
Q 3100 1781 2813 1891 
Q 2628 1963 1997 2114 
Q 1366 2266 1113 2400 
Q 784 2572 623 2826 
Q 463 3081 463 3397 
Q 463 3744 659 4045 
Q 856 4347 1234 4503 
Q 1613 4659 2075 4659 
Q 2584 4659 2973 4495 
Q 3363 4331 3572 4012 
Q 3781 3694 3797 3291 
L 3216 3247 
Q 3169 3681 2898 3903 
Q 2628 4125 2100 4125 
Q 1550 4125 1298 3923 
Q 1047 3722 1047 3438 
Q 1047 3191 1225 3031 
Q 1400 2872 2139 2705 
Q 2878 2538 3153 2413 
Q 3553 2228 3743 1945 
Q 3934 1663 3934 1294 
Q 3934 928 3725 604 
Q 3516 281 3123 101 
Q 2731 -78 2241 -78 
Q 1619 -78 1198 103 
Q 778 284 539 648 
Q 300 1013 288 1472 
z
" transform="scale(0.015625)"/>
        <path id="ArialMT-31" d="M 2384 0 
L 1822 0 
L 1822 3584 
Q 1619 3391 1289 3197 
Q 959 3003 697 2906 
L 697 3450 
Q 1169 3672 1522 3987 
Q 1875 4303 2022 4600 
L 2384 4600 
L 2384 0 
z
" transform="scale(0.015625)"/>
       </defs>
       <use xlink:href="#ArialMT-53"/>
       <use xlink:href="#ArialMT-31" x="66.699219"/>
      </g>
     </g>
    </g>
    <g id="xtick_2">
     <g id="line2d_183">
      <g>
       <use xlink:href="#m6162140239" x="207.772938" y="517.625625" style="stroke: #000000; stroke-width: 0.5"/>
      </g>
     </g>
     <g id="line2d_184">
      <g>
       <use xlink:href="#md57a179910" x="207.772938" y="25.763437" style="stroke: #000000; stroke-width: 0.5"/>
      </g>
     </g>
     <g id="text_2">
      <!-- S2 -->
      <g transform="translate(190.649188 541.6675)scale(0.28 -0.28)">
       <defs>
        <path id="ArialMT-32" d="M 3222 541 
L 3222 0 
L 194 0 
Q 188 203 259 391 
Q 375 700 629 1000 
Q 884 1300 1366 1694 
Q 2113 2306 2375 2664 
Q 2638 3022 2638 3341 
Q 2638 3675 2398 3904 
Q 2159 4134 1775 4134 
Q 1369 4134 1125 3890 
Q 881 3647 878 3216 
L 300 3275 
Q 359 3922 746 4261 
Q 1134 4600 1788 4600 
Q 2447 4600 2831 4234 
Q 3216 3869 3216 3328 
Q 3216 3053 3103 2787 
Q 2991 2522 2730 2228 
Q 2469 1934 1863 1422 
Q 1356 997 1212 845 
Q 1069 694 975 541 
L 3222 541 
z
" transform="scale(0.015625)"/>
       </defs>
       <use xlink:href="#ArialMT-53"/>
       <use xlink:href="#ArialMT-32" x="66.699219"/>
      </g>
     </g>
    </g>
    <g id="xtick_3">
     <g id="line2d_185">
      <g>
       <use xlink:href="#m6162140239" x="272.609063" y="517.625625" style="stroke: #000000; stroke-width: 0.5"/>
      </g>
     </g>
     <g id="line2d_186">
      <g>
       <use xlink:href="#md57a179910" x="272.609063" y="25.763437" style="stroke: #000000; stroke-width: 0.5"/>
      </g>
     </g>
     <g id="text_3">
      <!-- S3 -->
      <g transform="translate(255.485313 541.6675)scale(0.28 -0.28)">
       <defs>
        <path id="ArialMT-33" d="M 269 1209 
L 831 1284 
Q 928 806 1161 595 
Q 1394 384 1728 384 
Q 2125 384 2398 659 
Q 2672 934 2672 1341 
Q 2672 1728 2419 1979 
Q 2166 2231 1775 2231 
Q 1616 2231 1378 2169 
L 1441 2663 
Q 1497 2656 1531 2656 
Q 1891 2656 2178 2843 
Q 2466 3031 2466 3422 
Q 2466 3731 2256 3934 
Q 2047 4138 1716 4138 
Q 1388 4138 1169 3931 
Q 950 3725 888 3313 
L 325 3413 
Q 428 3978 793 4289 
Q 1159 4600 1703 4600 
Q 2078 4600 2393 4439 
Q 2709 4278 2876 4000 
Q 3044 3722 3044 3409 
Q 3044 3113 2884 2869 
Q 2725 2625 2413 2481 
Q 2819 2388 3044 2092 
Q 3269 1797 3269 1353 
Q 3269 753 2831 336 
Q 2394 -81 1725 -81 
Q 1122 -81 723 278 
Q 325 638 269 1209 
z
" transform="scale(0.015625)"/>
       </defs>
       <use xlink:href="#ArialMT-53"/>
       <use xlink:href="#ArialMT-33" x="66.699219"/>
      </g>
     </g>
    </g>
    <g id="xtick_4">
     <g id="line2d_187">
      <g>
       <use xlink:href="#m6162140239" x="337.445188" y="517.625625" style="stroke: #000000; stroke-width: 0.5"/>
      </g>
     </g>
     <g id="line2d_188">
      <g>
       <use xlink:href="#md57a179910" x="337.445188" y="25.763437" style="stroke: #000000; stroke-width: 0.5"/>
      </g>
     </g>
     <g id="text_4">
      <!-- S4 -->
      <g transform="translate(320.321438 541.6675)scale(0.28 -0.28)">
       <defs>
        <path id="ArialMT-34" d="M 2069 0 
L 2069 1097 
L 81 1097 
L 81 1613 
L 2172 4581 
L 2631 4581 
L 2631 1613 
L 3250 1613 
L 3250 1097 
L 2631 1097 
L 2631 0 
L 2069 0 
z
M 2069 1613 
L 2069 3678 
L 634 1613 
L 2069 1613 
z
" transform="scale(0.015625)"/>
       </defs>
       <use xlink:href="#ArialMT-53"/>
       <use xlink:href="#ArialMT-34" x="66.699219"/>
      </g>
     </g>
    </g>
    <g id="xtick_5">
     <g id="line2d_189">
      <g>
       <use xlink:href="#m6162140239" x="402.281313" y="517.625625" style="stroke: #000000; stroke-width: 0.5"/>
      </g>
     </g>
     <g id="line2d_190">
      <g>
       <use xlink:href="#md57a179910" x="402.281313" y="25.763437" style="stroke: #000000; stroke-width: 0.5"/>
      </g>
     </g>
     <g id="text_5">
      <!-- S5 -->
      <g transform="translate(385.157563 541.6675)scale(0.28 -0.28)">
       <defs>
        <path id="ArialMT-35" d="M 266 1200 
L 856 1250 
Q 922 819 1161 601 
Q 1400 384 1738 384 
Q 2144 384 2425 690 
Q 2706 997 2706 1503 
Q 2706 1984 2436 2262 
Q 2166 2541 1728 2541 
Q 1456 2541 1237 2417 
Q 1019 2294 894 2097 
L 366 2166 
L 809 4519 
L 3088 4519 
L 3088 3981 
L 1259 3981 
L 1013 2750 
Q 1425 3038 1878 3038 
Q 2478 3038 2890 2622 
Q 3303 2206 3303 1553 
Q 3303 931 2941 478 
Q 2500 -78 1738 -78 
Q 1113 -78 717 272 
Q 322 622 266 1200 
z
" transform="scale(0.015625)"/>
       </defs>
       <use xlink:href="#ArialMT-53"/>
       <use xlink:href="#ArialMT-35" x="66.699219"/>
      </g>
     </g>
    </g>
    <g id="xtick_6">
     <g id="line2d_191">
      <g>
       <use xlink:href="#m6162140239" x="467.117438" y="517.625625" style="stroke: #000000; stroke-width: 0.5"/>
      </g>
     </g>
     <g id="line2d_192">
      <g>
       <use xlink:href="#md57a179910" x="467.117438" y="25.763437" style="stroke: #000000; stroke-width: 0.5"/>
      </g>
     </g>
     <g id="text_6">
      <!-- S6 -->
      <g transform="translate(449.993688 541.6675)scale(0.28 -0.28)">
       <defs>
        <path id="ArialMT-36" d="M 3184 3459 
L 2625 3416 
Q 2550 3747 2413 3897 
Q 2184 4138 1850 4138 
Q 1581 4138 1378 3988 
Q 1113 3794 959 3422 
Q 806 3050 800 2363 
Q 1003 2672 1297 2822 
Q 1591 2972 1913 2972 
Q 2475 2972 2870 2558 
Q 3266 2144 3266 1488 
Q 3266 1056 3080 686 
Q 2894 316 2569 119 
Q 2244 -78 1831 -78 
Q 1128 -78 684 439 
Q 241 956 241 2144 
Q 241 3472 731 4075 
Q 1159 4600 1884 4600 
Q 2425 4600 2770 4297 
Q 3116 3994 3184 3459 
z
M 888 1484 
Q 888 1194 1011 928 
Q 1134 663 1356 523 
Q 1578 384 1822 384 
Q 2178 384 2434 671 
Q 2691 959 2691 1453 
Q 2691 1928 2437 2201 
Q 2184 2475 1800 2475 
Q 1419 2475 1153 2201 
Q 888 1928 888 1484 
z
" transform="scale(0.015625)"/>
       </defs>
       <use xlink:href="#ArialMT-53"/>
       <use xlink:href="#ArialMT-36" x="66.699219"/>
      </g>
     </g>
    </g>
    <g id="xtick_7">
     <g id="line2d_193">
      <g>
       <use xlink:href="#m6162140239" x="531.953563" y="517.625625" style="stroke: #000000; stroke-width: 0.5"/>
      </g>
     </g>
     <g id="line2d_194">
      <g>
       <use xlink:href="#md57a179910" x="531.953563" y="25.763437" style="stroke: #000000; stroke-width: 0.5"/>
      </g>
     </g>
     <g id="text_7">
      <!-- S7 -->
      <g transform="translate(514.829813 541.6675)scale(0.28 -0.28)">
       <defs>
        <path id="ArialMT-37" d="M 303 3981 
L 303 4522 
L 3269 4522 
L 3269 4084 
Q 2831 3619 2401 2847 
Q 1972 2075 1738 1259 
Q 1569 684 1522 0 
L 944 0 
Q 953 541 1156 1306 
Q 1359 2072 1739 2783 
Q 2119 3494 2547 3981 
L 303 3981 
z
" transform="scale(0.015625)"/>
       </defs>
       <use xlink:href="#ArialMT-53"/>
       <use xlink:href="#ArialMT-37" x="66.699219"/>
      </g>
     </g>
    </g>
    <g id="xtick_8">
     <g id="line2d_195">
      <g>
       <use xlink:href="#m6162140239" x="596.789688" y="517.625625" style="stroke: #000000; stroke-width: 0.5"/>
      </g>
     </g>
     <g id="line2d_196">
      <g>
       <use xlink:href="#md57a179910" x="596.789688" y="25.763437" style="stroke: #000000; stroke-width: 0.5"/>
      </g>
     </g>
     <g id="text_8">
      <!-- S8 -->
      <g transform="translate(579.665938 541.6675)scale(0.28 -0.28)">
       <defs>
        <path id="ArialMT-38" d="M 1131 2484 
Q 781 2613 612 2850 
Q 444 3088 444 3419 
Q 444 3919 803 4259 
Q 1163 4600 1759 4600 
Q 2359 4600 2725 4251 
Q 3091 3903 3091 3403 
Q 3091 3084 2923 2848 
Q 2756 2613 2416 2484 
Q 2838 2347 3058 2040 
Q 3278 1734 3278 1309 
Q 3278 722 2862 322 
Q 2447 -78 1769 -78 
Q 1091 -78 675 323 
Q 259 725 259 1325 
Q 259 1772 486 2073 
Q 713 2375 1131 2484 
z
M 1019 3438 
Q 1019 3113 1228 2906 
Q 1438 2700 1772 2700 
Q 2097 2700 2305 2904 
Q 2513 3109 2513 3406 
Q 2513 3716 2298 3927 
Q 2084 4138 1766 4138 
Q 1444 4138 1231 3931 
Q 1019 3725 1019 3438 
z
M 838 1322 
Q 838 1081 952 856 
Q 1066 631 1291 507 
Q 1516 384 1775 384 
Q 2178 384 2440 643 
Q 2703 903 2703 1303 
Q 2703 1709 2433 1975 
Q 2163 2241 1756 2241 
Q 1359 2241 1098 1978 
Q 838 1716 838 1322 
z
" transform="scale(0.015625)"/>
       </defs>
       <use xlink:href="#ArialMT-53"/>
       <use xlink:href="#ArialMT-38" x="66.699219"/>
      </g>
     </g>
    </g>
    <g id="xtick_9">
     <g id="line2d_197">
      <g>
       <use xlink:href="#m6162140239" x="661.625813" y="517.625625" style="stroke: #000000; stroke-width: 0.5"/>
      </g>
     </g>
     <g id="line2d_198">
      <g>
       <use xlink:href="#md57a179910" x="661.625813" y="25.763437" style="stroke: #000000; stroke-width: 0.5"/>
      </g>
     </g>
     <g id="text_9">
      <!-- S9 -->
      <g transform="translate(644.502063 541.6675)scale(0.28 -0.28)">
       <defs>
        <path id="ArialMT-39" d="M 350 1059 
L 891 1109 
Q 959 728 1153 556 
Q 1347 384 1650 384 
Q 1909 384 2104 503 
Q 2300 622 2425 820 
Q 2550 1019 2634 1356 
Q 2719 1694 2719 2044 
Q 2719 2081 2716 2156 
Q 2547 1888 2255 1720 
Q 1963 1553 1622 1553 
Q 1053 1553 659 1965 
Q 266 2378 266 3053 
Q 266 3750 677 4175 
Q 1088 4600 1706 4600 
Q 2153 4600 2523 4359 
Q 2894 4119 3086 3673 
Q 3278 3228 3278 2384 
Q 3278 1506 3087 986 
Q 2897 466 2520 194 
Q 2144 -78 1638 -78 
Q 1100 -78 759 220 
Q 419 519 350 1059 
z
M 2653 3081 
Q 2653 3566 2395 3850 
Q 2138 4134 1775 4134 
Q 1400 4134 1122 3828 
Q 844 3522 844 3034 
Q 844 2597 1108 2323 
Q 1372 2050 1759 2050 
Q 2150 2050 2401 2323 
Q 2653 2597 2653 3081 
z
" transform="scale(0.015625)"/>
       </defs>
       <use xlink:href="#ArialMT-53"/>
       <use xlink:href="#ArialMT-39" x="66.699219"/>
      </g>
     </g>
    </g>
    <g id="xtick_10">
     <g id="line2d_199">
      <g>
       <use xlink:href="#m6162140239" x="726.461938" y="517.625625" style="stroke: #000000; stroke-width: 0.5"/>
      </g>
     </g>
     <g id="line2d_200">
      <g>
       <use xlink:href="#md57a179910" x="726.461938" y="25.763437" style="stroke: #000000; stroke-width: 0.5"/>
      </g>
     </g>
     <g id="text_10">
      <!-- S10 -->
      <g transform="translate(701.552875 541.6675)scale(0.28 -0.28)">
       <defs>
        <path id="ArialMT-30" d="M 266 2259 
Q 266 3072 433 3567 
Q 600 4063 929 4331 
Q 1259 4600 1759 4600 
Q 2128 4600 2406 4451 
Q 2684 4303 2865 4023 
Q 3047 3744 3150 3342 
Q 3253 2941 3253 2259 
Q 3253 1453 3087 958 
Q 2922 463 2592 192 
Q 2263 -78 1759 -78 
Q 1097 -78 719 397 
Q 266 969 266 2259 
z
M 844 2259 
Q 844 1131 1108 757 
Q 1372 384 1759 384 
Q 2147 384 2411 759 
Q 2675 1134 2675 2259 
Q 2675 3391 2411 3762 
Q 2147 4134 1753 4134 
Q 1366 4134 1134 3806 
Q 844 3388 844 2259 
z
" transform="scale(0.015625)"/>
       </defs>
       <use xlink:href="#ArialMT-53"/>
       <use xlink:href="#ArialMT-31" x="66.699219"/>
       <use xlink:href="#ArialMT-30" x="122.314453"/>
      </g>
     </g>
    </g>
    <g id="text_11">
     <!-- Sensor -->
     <g transform="translate(387.239375 572.274375)scale(0.28 -0.28)">
      <defs>
       <path id="Arial-BoldMT-53" d="M 231 1491 
L 1131 1578 
Q 1213 1125 1461 912 
Q 1709 700 2131 700 
Q 2578 700 2804 889 
Q 3031 1078 3031 1331 
Q 3031 1494 2936 1608 
Q 2841 1722 2603 1806 
Q 2441 1863 1863 2006 
Q 1119 2191 819 2459 
Q 397 2838 397 3381 
Q 397 3731 595 4036 
Q 794 4341 1167 4500 
Q 1541 4659 2069 4659 
Q 2931 4659 3367 4281 
Q 3803 3903 3825 3272 
L 2900 3231 
Q 2841 3584 2645 3739 
Q 2450 3894 2059 3894 
Q 1656 3894 1428 3728 
Q 1281 3622 1281 3444 
Q 1281 3281 1419 3166 
Q 1594 3019 2269 2859 
Q 2944 2700 3267 2529 
Q 3591 2359 3773 2064 
Q 3956 1769 3956 1334 
Q 3956 941 3737 597 
Q 3519 253 3119 86 
Q 2719 -81 2122 -81 
Q 1253 -81 787 320 
Q 322 722 231 1491 
z
" transform="scale(0.015625)"/>
       <path id="Arial-BoldMT-65" d="M 2381 1056 
L 3256 909 
Q 3088 428 2723 176 
Q 2359 -75 1813 -75 
Q 947 -75 531 491 
Q 203 944 203 1634 
Q 203 2459 634 2926 
Q 1066 3394 1725 3394 
Q 2466 3394 2894 2905 
Q 3322 2416 3303 1406 
L 1103 1406 
Q 1113 1016 1316 798 
Q 1519 581 1822 581 
Q 2028 581 2168 693 
Q 2309 806 2381 1056 
z
M 2431 1944 
Q 2422 2325 2234 2523 
Q 2047 2722 1778 2722 
Q 1491 2722 1303 2513 
Q 1116 2303 1119 1944 
L 2431 1944 
z
" transform="scale(0.015625)"/>
       <path id="Arial-BoldMT-6e" d="M 3478 0 
L 2600 0 
L 2600 1694 
Q 2600 2231 2544 2389 
Q 2488 2547 2361 2634 
Q 2234 2722 2056 2722 
Q 1828 2722 1647 2597 
Q 1466 2472 1398 2265 
Q 1331 2059 1331 1503 
L 1331 0 
L 453 0 
L 453 3319 
L 1269 3319 
L 1269 2831 
Q 1703 3394 2363 3394 
Q 2653 3394 2893 3289 
Q 3134 3184 3257 3021 
Q 3381 2859 3429 2653 
Q 3478 2447 3478 2063 
L 3478 0 
z
" transform="scale(0.015625)"/>
       <path id="Arial-BoldMT-73" d="M 150 947 
L 1031 1081 
Q 1088 825 1259 692 
Q 1431 559 1741 559 
Q 2081 559 2253 684 
Q 2369 772 2369 919 
Q 2369 1019 2306 1084 
Q 2241 1147 2013 1200 
Q 950 1434 666 1628 
Q 272 1897 272 2375 
Q 272 2806 612 3100 
Q 953 3394 1669 3394 
Q 2350 3394 2681 3172 
Q 3013 2950 3138 2516 
L 2309 2363 
Q 2256 2556 2107 2659 
Q 1959 2763 1684 2763 
Q 1338 2763 1188 2666 
Q 1088 2597 1088 2488 
Q 1088 2394 1175 2328 
Q 1294 2241 1995 2081 
Q 2697 1922 2975 1691 
Q 3250 1456 3250 1038 
Q 3250 581 2869 253 
Q 2488 -75 1741 -75 
Q 1063 -75 667 200 
Q 272 475 150 947 
z
" transform="scale(0.015625)"/>
       <path id="Arial-BoldMT-6f" d="M 256 1706 
Q 256 2144 472 2553 
Q 688 2963 1083 3178 
Q 1478 3394 1966 3394 
Q 2719 3394 3200 2905 
Q 3681 2416 3681 1669 
Q 3681 916 3195 420 
Q 2709 -75 1972 -75 
Q 1516 -75 1102 131 
Q 688 338 472 736 
Q 256 1134 256 1706 
z
M 1156 1659 
Q 1156 1166 1390 903 
Q 1625 641 1969 641 
Q 2313 641 2545 903 
Q 2778 1166 2778 1666 
Q 2778 2153 2545 2415 
Q 2313 2678 1969 2678 
Q 1625 2678 1390 2415 
Q 1156 2153 1156 1659 
z
" transform="scale(0.015625)"/>
       <path id="Arial-BoldMT-72" d="M 1300 0 
L 422 0 
L 422 3319 
L 1238 3319 
L 1238 2847 
Q 1447 3181 1614 3287 
Q 1781 3394 1994 3394 
Q 2294 3394 2572 3228 
L 2300 2463 
Q 2078 2606 1888 2606 
Q 1703 2606 1575 2504 
Q 1447 2403 1373 2137 
Q 1300 1872 1300 1025 
L 1300 0 
z
" transform="scale(0.015625)"/>
      </defs>
      <use xlink:href="#Arial-BoldMT-53"/>
      <use xlink:href="#Arial-BoldMT-65" x="66.699219"/>
      <use xlink:href="#Arial-BoldMT-6e" x="122.314453"/>
      <use xlink:href="#Arial-BoldMT-73" x="183.398438"/>
      <use xlink:href="#Arial-BoldMT-6f" x="239.013672"/>
      <use xlink:href="#Arial-BoldMT-72" x="300.097656"/>
     </g>
    </g>
   </g>
   <g id="matplotlib.axis_2">
    <g id="ytick_1">
     <g id="line2d_201">
      <defs>
       <path id="mb73f2ccc16" d="M 0 0 
L 4 0 
" style="stroke: #000000; stroke-width: 0.5"/>
      </defs>
      <g>
       <use xlink:href="#mb73f2ccc16" x="110.51875" y="517.625625" style="stroke: #000000; stroke-width: 0.5"/>
      </g>
     </g>
     <g id="line2d_202">
      <defs>
       <path id="m39325287bf" d="M 0 0 
L -4 0 
" style="stroke: #000000; stroke-width: 0.5"/>
      </defs>
      <g>
       <use xlink:href="#m39325287bf" x="758.88" y="517.625625" style="stroke: #000000; stroke-width: 0.5"/>
      </g>
     </g>
     <g id="text_12">
      <!-- 500 -->
      <g transform="translate(59.806875 524.864063)scale(0.28 -0.28)">
       <use xlink:href="#ArialMT-35"/>
       <use xlink:href="#ArialMT-30" x="55.615234"/>
       <use xlink:href="#ArialMT-30" x="111.230469"/>
      </g>
     </g>
    </g>
    <g id="ytick_2">
     <g id="line2d_203">
      <g>
       <use xlink:href="#mb73f2ccc16" x="110.51875" y="447.359598" style="stroke: #000000; stroke-width: 0.5"/>
      </g>
     </g>
     <g id="line2d_204">
      <g>
       <use xlink:href="#m39325287bf" x="758.88" y="447.359598" style="stroke: #000000; stroke-width: 0.5"/>
      </g>
     </g>
     <g id="text_13">
      <!-- 1000 -->
      <g transform="translate(44.23625 454.598036)scale(0.28 -0.28)">
       <use xlink:href="#ArialMT-31"/>
       <use xlink:href="#ArialMT-30" x="55.615234"/>
       <use xlink:href="#ArialMT-30" x="111.230469"/>
       <use xlink:href="#ArialMT-30" x="166.845703"/>
      </g>
     </g>
    </g>
    <g id="ytick_3">
     <g id="line2d_205">
      <g>
       <use xlink:href="#mb73f2ccc16" x="110.51875" y="377.093571" style="stroke: #000000; stroke-width: 0.5"/>
      </g>
     </g>
     <g id="line2d_206">
      <g>
       <use xlink:href="#m39325287bf" x="758.88" y="377.093571" style="stroke: #000000; stroke-width: 0.5"/>
      </g>
     </g>
     <g id="text_14">
      <!-- 1500 -->
      <g transform="translate(44.23625 384.332009)scale(0.28 -0.28)">
       <use xlink:href="#ArialMT-31"/>
       <use xlink:href="#ArialMT-35" x="55.615234"/>
       <use xlink:href="#ArialMT-30" x="111.230469"/>
       <use xlink:href="#ArialMT-30" x="166.845703"/>
      </g>
     </g>
    </g>
    <g id="ytick_4">
     <g id="line2d_207">
      <g>
       <use xlink:href="#mb73f2ccc16" x="110.51875" y="306.827545" style="stroke: #000000; stroke-width: 0.5"/>
      </g>
     </g>
     <g id="line2d_208">
      <g>
       <use xlink:href="#m39325287bf" x="758.88" y="306.827545" style="stroke: #000000; stroke-width: 0.5"/>
      </g>
     </g>
     <g id="text_15">
      <!-- 2000 -->
      <g transform="translate(44.23625 314.065982)scale(0.28 -0.28)">
       <use xlink:href="#ArialMT-32"/>
       <use xlink:href="#ArialMT-30" x="55.615234"/>
       <use xlink:href="#ArialMT-30" x="111.230469"/>
       <use xlink:href="#ArialMT-30" x="166.845703"/>
      </g>
     </g>
    </g>
    <g id="ytick_5">
     <g id="line2d_209">
      <g>
       <use xlink:href="#mb73f2ccc16" x="110.51875" y="236.561518" style="stroke: #000000; stroke-width: 0.5"/>
      </g>
     </g>
     <g id="line2d_210">
      <g>
       <use xlink:href="#m39325287bf" x="758.88" y="236.561518" style="stroke: #000000; stroke-width: 0.5"/>
      </g>
     </g>
     <g id="text_16">
      <!-- 2500 -->
      <g transform="translate(44.23625 243.799955)scale(0.28 -0.28)">
       <use xlink:href="#ArialMT-32"/>
       <use xlink:href="#ArialMT-35" x="55.615234"/>
       <use xlink:href="#ArialMT-30" x="111.230469"/>
       <use xlink:href="#ArialMT-30" x="166.845703"/>
      </g>
     </g>
    </g>
    <g id="ytick_6">
     <g id="line2d_211">
      <g>
       <use xlink:href="#mb73f2ccc16" x="110.51875" y="166.295491" style="stroke: #000000; stroke-width: 0.5"/>
      </g>
     </g>
     <g id="line2d_212">
      <g>
       <use xlink:href="#m39325287bf" x="758.88" y="166.295491" style="stroke: #000000; stroke-width: 0.5"/>
      </g>
     </g>
     <g id="text_17">
      <!-- 3000 -->
      <g transform="translate(44.23625 173.533929)scale(0.28 -0.28)">
       <use xlink:href="#ArialMT-33"/>
       <use xlink:href="#ArialMT-30" x="55.615234"/>
       <use xlink:href="#ArialMT-30" x="111.230469"/>
       <use xlink:href="#ArialMT-30" x="166.845703"/>
      </g>
     </g>
    </g>
    <g id="ytick_7">
     <g id="line2d_213">
      <g>
       <use xlink:href="#mb73f2ccc16" x="110.51875" y="96.029464" style="stroke: #000000; stroke-width: 0.5"/>
      </g>
     </g>
     <g id="line2d_214">
      <g>
       <use xlink:href="#m39325287bf" x="758.88" y="96.029464" style="stroke: #000000; stroke-width: 0.5"/>
      </g>
     </g>
     <g id="text_18">
      <!-- 3500 -->
      <g transform="translate(44.23625 103.267902)scale(0.28 -0.28)">
       <use xlink:href="#ArialMT-33"/>
       <use xlink:href="#ArialMT-35" x="55.615234"/>
       <use xlink:href="#ArialMT-30" x="111.230469"/>
       <use xlink:href="#ArialMT-30" x="166.845703"/>
      </g>
     </g>
    </g>
    <g id="ytick_8">
     <g id="line2d_215">
      <g>
       <use xlink:href="#mb73f2ccc16" x="110.51875" y="25.763437" style="stroke: #000000; stroke-width: 0.5"/>
      </g>
     </g>
     <g id="line2d_216">
      <g>
       <use xlink:href="#m39325287bf" x="758.88" y="25.763437" style="stroke: #000000; stroke-width: 0.5"/>
      </g>
     </g>
     <g id="text_19">
      <!-- 4000 -->
      <g transform="translate(44.23625 33.001875)scale(0.28 -0.28)">
       <use xlink:href="#ArialMT-34"/>
       <use xlink:href="#ArialMT-30" x="55.615234"/>
       <use xlink:href="#ArialMT-30" x="111.230469"/>
       <use xlink:href="#ArialMT-30" x="166.845703"/>
      </g>
     </g>
    </g>
    <g id="text_20">
     <!-- Maximum value (Rejected) in mV -->
     <g transform="translate(33.343125 489.523594)rotate(-90)scale(0.28 -0.28)">
      <defs>
       <path id="Arial-BoldMT-4d" d="M 453 0 
L 453 4581 
L 1838 4581 
L 2669 1456 
L 3491 4581 
L 4878 4581 
L 4878 0 
L 4019 0 
L 4019 3606 
L 3109 0 
L 2219 0 
L 1313 3606 
L 1313 0 
L 453 0 
z
" transform="scale(0.015625)"/>
       <path id="Arial-BoldMT-61" d="M 1116 2306 
L 319 2450 
Q 453 2931 781 3162 
Q 1109 3394 1756 3394 
Q 2344 3394 2631 3255 
Q 2919 3116 3036 2902 
Q 3153 2688 3153 2116 
L 3144 1091 
Q 3144 653 3186 445 
Q 3228 238 3344 0 
L 2475 0 
Q 2441 88 2391 259 
Q 2369 338 2359 363 
Q 2134 144 1878 34 
Q 1622 -75 1331 -75 
Q 819 -75 523 203 
Q 228 481 228 906 
Q 228 1188 362 1408 
Q 497 1628 739 1745 
Q 981 1863 1438 1950 
Q 2053 2066 2291 2166 
L 2291 2253 
Q 2291 2506 2166 2614 
Q 2041 2722 1694 2722 
Q 1459 2722 1328 2630 
Q 1197 2538 1116 2306 
z
M 2291 1594 
Q 2122 1538 1756 1459 
Q 1391 1381 1278 1306 
Q 1106 1184 1106 997 
Q 1106 813 1243 678 
Q 1381 544 1594 544 
Q 1831 544 2047 700 
Q 2206 819 2256 991 
Q 2291 1103 2291 1419 
L 2291 1594 
z
" transform="scale(0.015625)"/>
       <path id="Arial-BoldMT-78" d="M 38 0 
L 1234 1709 
L 88 3319 
L 1159 3319 
L 1747 2406 
L 2366 3319 
L 3397 3319 
L 2272 1747 
L 3500 0 
L 2422 0 
L 1747 1028 
L 1066 0 
L 38 0 
z
" transform="scale(0.015625)"/>
       <path id="Arial-BoldMT-69" d="M 459 3769 
L 459 4581 
L 1338 4581 
L 1338 3769 
L 459 3769 
z
M 459 0 
L 459 3319 
L 1338 3319 
L 1338 0 
L 459 0 
z
" transform="scale(0.015625)"/>
       <path id="Arial-BoldMT-6d" d="M 394 3319 
L 1203 3319 
L 1203 2866 
Q 1638 3394 2238 3394 
Q 2556 3394 2790 3262 
Q 3025 3131 3175 2866 
Q 3394 3131 3647 3262 
Q 3900 3394 4188 3394 
Q 4553 3394 4806 3245 
Q 5059 3097 5184 2809 
Q 5275 2597 5275 2122 
L 5275 0 
L 4397 0 
L 4397 1897 
Q 4397 2391 4306 2534 
Q 4184 2722 3931 2722 
Q 3747 2722 3584 2609 
Q 3422 2497 3350 2280 
Q 3278 2063 3278 1594 
L 3278 0 
L 2400 0 
L 2400 1819 
Q 2400 2303 2353 2443 
Q 2306 2584 2207 2653 
Q 2109 2722 1941 2722 
Q 1738 2722 1575 2612 
Q 1413 2503 1342 2297 
Q 1272 2091 1272 1613 
L 1272 0 
L 394 0 
L 394 3319 
z
" transform="scale(0.015625)"/>
       <path id="Arial-BoldMT-75" d="M 2644 0 
L 2644 497 
Q 2463 231 2167 78 
Q 1872 -75 1544 -75 
Q 1209 -75 943 72 
Q 678 219 559 484 
Q 441 750 441 1219 
L 441 3319 
L 1319 3319 
L 1319 1794 
Q 1319 1094 1367 936 
Q 1416 778 1544 686 
Q 1672 594 1869 594 
Q 2094 594 2272 717 
Q 2450 841 2515 1023 
Q 2581 1206 2581 1919 
L 2581 3319 
L 3459 3319 
L 3459 0 
L 2644 0 
z
" transform="scale(0.015625)"/>
       <path id="Arial-BoldMT-20" transform="scale(0.015625)"/>
       <path id="Arial-BoldMT-76" d="M 1372 0 
L 34 3319 
L 956 3319 
L 1581 1625 
L 1763 1059 
Q 1834 1275 1853 1344 
Q 1897 1484 1947 1625 
L 2578 3319 
L 3481 3319 
L 2163 0 
L 1372 0 
z
" transform="scale(0.015625)"/>
       <path id="Arial-BoldMT-6c" d="M 459 0 
L 459 4581 
L 1338 4581 
L 1338 0 
L 459 0 
z
" transform="scale(0.015625)"/>
       <path id="Arial-BoldMT-28" d="M 1916 -1347 
L 1313 -1347 
Q 834 -625 584 153 
Q 334 931 334 1659 
Q 334 2563 644 3369 
Q 913 4069 1325 4659 
L 1925 4659 
Q 1497 3713 1336 3048 
Q 1175 2384 1175 1641 
Q 1175 1128 1270 590 
Q 1366 53 1531 -431 
Q 1641 -750 1916 -1347 
z
" transform="scale(0.015625)"/>
       <path id="Arial-BoldMT-52" d="M 469 0 
L 469 4581 
L 2416 4581 
Q 3150 4581 3483 4457 
Q 3816 4334 4016 4018 
Q 4216 3703 4216 3297 
Q 4216 2781 3912 2445 
Q 3609 2109 3006 2022 
Q 3306 1847 3501 1637 
Q 3697 1428 4028 894 
L 4588 0 
L 3481 0 
L 2813 997 
Q 2456 1531 2325 1670 
Q 2194 1809 2047 1861 
Q 1900 1913 1581 1913 
L 1394 1913 
L 1394 0 
L 469 0 
z
M 1394 2644 
L 2078 2644 
Q 2744 2644 2909 2700 
Q 3075 2756 3169 2893 
Q 3263 3031 3263 3238 
Q 3263 3469 3139 3611 
Q 3016 3753 2791 3791 
Q 2678 3806 2116 3806 
L 1394 3806 
L 1394 2644 
z
" transform="scale(0.015625)"/>
       <path id="Arial-BoldMT-6a" d="M 441 3769 
L 441 4581 
L 1319 4581 
L 1319 3769 
L 441 3769 
z
M 1319 3319 
L 1319 103 
Q 1319 -531 1236 -792 
Q 1153 -1053 917 -1200 
Q 681 -1347 316 -1347 
Q 184 -1347 32 -1323 
Q -119 -1300 -294 -1253 
L -141 -503 
Q -78 -516 -23 -523 
Q 31 -531 78 -531 
Q 213 -531 298 -473 
Q 384 -416 412 -334 
Q 441 -253 441 153 
L 441 3319 
L 1319 3319 
z
" transform="scale(0.015625)"/>
       <path id="Arial-BoldMT-63" d="M 3353 2338 
L 2488 2181 
Q 2444 2441 2289 2572 
Q 2134 2703 1888 2703 
Q 1559 2703 1364 2476 
Q 1169 2250 1169 1719 
Q 1169 1128 1367 884 
Q 1566 641 1900 641 
Q 2150 641 2309 783 
Q 2469 925 2534 1272 
L 3397 1125 
Q 3263 531 2881 228 
Q 2500 -75 1859 -75 
Q 1131 -75 698 384 
Q 266 844 266 1656 
Q 266 2478 700 2936 
Q 1134 3394 1875 3394 
Q 2481 3394 2839 3133 
Q 3197 2872 3353 2338 
z
" transform="scale(0.015625)"/>
       <path id="Arial-BoldMT-74" d="M 1981 3319 
L 1981 2619 
L 1381 2619 
L 1381 1281 
Q 1381 875 1398 808 
Q 1416 741 1477 697 
Q 1538 653 1625 653 
Q 1747 653 1978 738 
L 2053 56 
Q 1747 -75 1359 -75 
Q 1122 -75 931 4 
Q 741 84 652 211 
Q 563 338 528 553 
Q 500 706 500 1172 
L 500 2619 
L 97 2619 
L 97 3319 
L 500 3319 
L 500 3978 
L 1381 4491 
L 1381 3319 
L 1981 3319 
z
" transform="scale(0.015625)"/>
       <path id="Arial-BoldMT-64" d="M 3503 0 
L 2688 0 
L 2688 488 
Q 2484 203 2207 64 
Q 1931 -75 1650 -75 
Q 1078 -75 670 386 
Q 263 847 263 1672 
Q 263 2516 659 2955 
Q 1056 3394 1663 3394 
Q 2219 3394 2625 2931 
L 2625 4581 
L 3503 4581 
L 3503 0 
z
M 1159 1731 
Q 1159 1200 1306 963 
Q 1519 619 1900 619 
Q 2203 619 2415 876 
Q 2628 1134 2628 1647 
Q 2628 2219 2422 2470 
Q 2216 2722 1894 2722 
Q 1581 2722 1370 2473 
Q 1159 2225 1159 1731 
z
" transform="scale(0.015625)"/>
       <path id="Arial-BoldMT-29" d="M 216 -1347 
Q 475 -791 581 -494 
Q 688 -197 778 190 
Q 869 578 912 926 
Q 956 1275 956 1641 
Q 956 2384 797 3048 
Q 638 3713 209 4659 
L 806 4659 
Q 1278 3988 1539 3234 
Q 1800 2481 1800 1706 
Q 1800 1053 1594 306 
Q 1359 -531 822 -1347 
L 216 -1347 
z
" transform="scale(0.015625)"/>
       <path id="Arial-BoldMT-56" d="M 1634 0 
L -3 4581 
L 1000 4581 
L 2159 1191 
L 3281 4581 
L 4263 4581 
L 2622 0 
L 1634 0 
z
" transform="scale(0.015625)"/>
      </defs>
      <use xlink:href="#Arial-BoldMT-4d"/>
      <use xlink:href="#Arial-BoldMT-61" x="83.300781"/>
      <use xlink:href="#Arial-BoldMT-78" x="138.916016"/>
      <use xlink:href="#Arial-BoldMT-69" x="194.53125"/>
      <use xlink:href="#Arial-BoldMT-6d" x="222.314453"/>
      <use xlink:href="#Arial-BoldMT-75" x="311.230469"/>
      <use xlink:href="#Arial-BoldMT-6d" x="372.314453"/>
      <use xlink:href="#Arial-BoldMT-20" x="461.230469"/>
      <use xlink:href="#Arial-BoldMT-76" x="489.013672"/>
      <use xlink:href="#Arial-BoldMT-61" x="544.628906"/>
      <use xlink:href="#Arial-BoldMT-6c" x="600.244141"/>
      <use xlink:href="#Arial-BoldMT-75" x="628.027344"/>
      <use xlink:href="#Arial-BoldMT-65" x="689.111328"/>
      <use xlink:href="#Arial-BoldMT-20" x="744.726562"/>
      <use xlink:href="#Arial-BoldMT-28" x="772.509766"/>
      <use xlink:href="#Arial-BoldMT-52" x="805.810547"/>
      <use xlink:href="#Arial-BoldMT-65" x="878.027344"/>
      <use xlink:href="#Arial-BoldMT-6a" x="933.642578"/>
      <use xlink:href="#Arial-BoldMT-65" x="961.425781"/>
      <use xlink:href="#Arial-BoldMT-63" x="1017.041016"/>
      <use xlink:href="#Arial-BoldMT-74" x="1072.65625"/>
      <use xlink:href="#Arial-BoldMT-65" x="1105.957031"/>
      <use xlink:href="#Arial-BoldMT-64" x="1161.572266"/>
      <use xlink:href="#Arial-BoldMT-29" x="1222.65625"/>
      <use xlink:href="#Arial-BoldMT-20" x="1255.957031"/>
      <use xlink:href="#Arial-BoldMT-69" x="1283.740234"/>
      <use xlink:href="#Arial-BoldMT-6e" x="1311.523438"/>
      <use xlink:href="#Arial-BoldMT-20" x="1372.607422"/>
      <use xlink:href="#Arial-BoldMT-6d" x="1400.390625"/>
      <use xlink:href="#Arial-BoldMT-56" x="1489.306641"/>
     </g>
    </g>
   </g>
   <g id="legend_1">
    <g id="patch_40">
     <path d="M 647.9475 505.625625 
L 742.08 505.625625 
Q 746.88 505.625625 746.88 500.825625 
L 746.88 378.264375 
Q 746.88 373.464375 742.08 373.464375 
L 647.9475 373.464375 
Q 643.1475 373.464375 643.1475 378.264375 
L 643.1475 500.825625 
Q 643.1475 505.625625 647.9475 505.625625 
z
" style="fill: #ffffff; stroke: #000000; stroke-linejoin: miter"/>
    </g>
    <g id="text_21">
     <!-- group -->
     <g transform="translate(679.669688 391.65375)scale(0.12 -0.12)">
      <defs>
       <path id="ArialMT-67" d="M 319 -275 
L 866 -356 
Q 900 -609 1056 -725 
Q 1266 -881 1628 -881 
Q 2019 -881 2231 -725 
Q 2444 -569 2519 -288 
Q 2563 -116 2559 434 
Q 2191 0 1641 0 
Q 956 0 581 494 
Q 206 988 206 1678 
Q 206 2153 378 2554 
Q 550 2956 876 3175 
Q 1203 3394 1644 3394 
Q 2231 3394 2613 2919 
L 2613 3319 
L 3131 3319 
L 3131 450 
Q 3131 -325 2973 -648 
Q 2816 -972 2473 -1159 
Q 2131 -1347 1631 -1347 
Q 1038 -1347 672 -1080 
Q 306 -813 319 -275 
z
M 784 1719 
Q 784 1066 1043 766 
Q 1303 466 1694 466 
Q 2081 466 2343 764 
Q 2606 1063 2606 1700 
Q 2606 2309 2336 2618 
Q 2066 2928 1684 2928 
Q 1309 2928 1046 2623 
Q 784 2319 784 1719 
z
" transform="scale(0.015625)"/>
       <path id="ArialMT-72" d="M 416 0 
L 416 3319 
L 922 3319 
L 922 2816 
Q 1116 3169 1280 3281 
Q 1444 3394 1641 3394 
Q 1925 3394 2219 3213 
L 2025 2691 
Q 1819 2813 1613 2813 
Q 1428 2813 1281 2702 
Q 1134 2591 1072 2394 
Q 978 2094 978 1738 
L 978 0 
L 416 0 
z
" transform="scale(0.015625)"/>
       <path id="ArialMT-6f" d="M 213 1659 
Q 213 2581 725 3025 
Q 1153 3394 1769 3394 
Q 2453 3394 2887 2945 
Q 3322 2497 3322 1706 
Q 3322 1066 3130 698 
Q 2938 331 2570 128 
Q 2203 -75 1769 -75 
Q 1072 -75 642 372 
Q 213 819 213 1659 
z
M 791 1659 
Q 791 1022 1069 705 
Q 1347 388 1769 388 
Q 2188 388 2466 706 
Q 2744 1025 2744 1678 
Q 2744 2294 2464 2611 
Q 2184 2928 1769 2928 
Q 1347 2928 1069 2612 
Q 791 2297 791 1659 
z
" transform="scale(0.015625)"/>
       <path id="ArialMT-75" d="M 2597 0 
L 2597 488 
Q 2209 -75 1544 -75 
Q 1250 -75 995 37 
Q 741 150 617 320 
Q 494 491 444 738 
Q 409 903 409 1263 
L 409 3319 
L 972 3319 
L 972 1478 
Q 972 1038 1006 884 
Q 1059 663 1231 536 
Q 1403 409 1656 409 
Q 1909 409 2131 539 
Q 2353 669 2445 892 
Q 2538 1116 2538 1541 
L 2538 3319 
L 3100 3319 
L 3100 0 
L 2597 0 
z
" transform="scale(0.015625)"/>
       <path id="ArialMT-70" d="M 422 -1272 
L 422 3319 
L 934 3319 
L 934 2888 
Q 1116 3141 1344 3267 
Q 1572 3394 1897 3394 
Q 2322 3394 2647 3175 
Q 2972 2956 3137 2557 
Q 3303 2159 3303 1684 
Q 3303 1175 3120 767 
Q 2938 359 2589 142 
Q 2241 -75 1856 -75 
Q 1575 -75 1351 44 
Q 1128 163 984 344 
L 984 -1272 
L 422 -1272 
z
M 931 1641 
Q 931 1000 1190 694 
Q 1450 388 1819 388 
Q 2194 388 2461 705 
Q 2728 1022 2728 1688 
Q 2728 2322 2467 2637 
Q 2206 2953 1844 2953 
Q 1484 2953 1207 2617 
Q 931 2281 931 1641 
z
" transform="scale(0.015625)"/>
      </defs>
      <use xlink:href="#ArialMT-67"/>
      <use xlink:href="#ArialMT-72" x="55.615234"/>
      <use xlink:href="#ArialMT-6f" x="88.916016"/>
      <use xlink:href="#ArialMT-75" x="144.53125"/>
      <use xlink:href="#ArialMT-70" x="200.146484"/>
     </g>
    </g>
    <g id="patch_41">
     <path d="M 652.7475 423.358125 
L 700.7475 423.358125 
L 700.7475 406.558125 
L 652.7475 406.558125 
z
" style="fill: #2020df; stroke: #262626; stroke-width: 0.5; stroke-linejoin: miter"/>
    </g>
    <g id="text_22">
     <!-- A -->
     <g transform="translate(719.9475 423.358125)scale(0.24 -0.24)">
      <defs>
       <path id="ArialMT-41" d="M -9 0 
L 1750 4581 
L 2403 4581 
L 4278 0 
L 3588 0 
L 3053 1388 
L 1138 1388 
L 634 0 
L -9 0 
z
M 1313 1881 
L 2866 1881 
L 2388 3150 
Q 2169 3728 2063 4100 
Q 1975 3659 1816 3225 
L 1313 1881 
z
" transform="scale(0.015625)"/>
      </defs>
      <use xlink:href="#ArialMT-41"/>
     </g>
    </g>
    <g id="patch_42">
     <path d="M 652.7475 457.306875 
L 700.7475 457.306875 
L 700.7475 440.506875 
L 652.7475 440.506875 
z
" style="fill: #107010; stroke: #262626; stroke-width: 0.5; stroke-linejoin: miter"/>
    </g>
    <g id="text_23">
     <!-- B -->
     <g transform="translate(719.9475 457.306875)scale(0.24 -0.24)">
      <defs>
       <path id="ArialMT-42" d="M 469 0 
L 469 4581 
L 2188 4581 
Q 2713 4581 3030 4442 
Q 3347 4303 3526 4014 
Q 3706 3725 3706 3409 
Q 3706 3116 3547 2856 
Q 3388 2597 3066 2438 
Q 3481 2316 3704 2022 
Q 3928 1728 3928 1328 
Q 3928 1006 3792 729 
Q 3656 453 3456 303 
Q 3256 153 2954 76 
Q 2653 0 2216 0 
L 469 0 
z
M 1075 2656 
L 2066 2656 
Q 2469 2656 2644 2709 
Q 2875 2778 2992 2937 
Q 3109 3097 3109 3338 
Q 3109 3566 3000 3739 
Q 2891 3913 2687 3977 
Q 2484 4041 1991 4041 
L 1075 4041 
L 1075 2656 
z
M 1075 541 
L 2216 541 
Q 2509 541 2628 563 
Q 2838 600 2978 687 
Q 3119 775 3209 942 
Q 3300 1109 3300 1328 
Q 3300 1584 3169 1773 
Q 3038 1963 2805 2039 
Q 2572 2116 2134 2116 
L 1075 2116 
L 1075 541 
z
" transform="scale(0.015625)"/>
      </defs>
      <use xlink:href="#ArialMT-42"/>
     </g>
    </g>
    <g id="patch_43">
     <path d="M 652.7475 491.255625 
L 700.7475 491.255625 
L 700.7475 474.455625 
L 652.7475 474.455625 
z
" style="fill: #df2020; stroke: #262626; stroke-width: 0.5; stroke-linejoin: miter"/>
    </g>
    <g id="text_24">
     <!-- C -->
     <g transform="translate(719.9475 491.255625)scale(0.24 -0.24)">
      <defs>
       <path id="ArialMT-43" d="M 3763 1606 
L 4369 1453 
Q 4178 706 3683 314 
Q 3188 -78 2472 -78 
Q 1731 -78 1267 223 
Q 803 525 561 1097 
Q 319 1669 319 2325 
Q 319 3041 592 3573 
Q 866 4106 1370 4382 
Q 1875 4659 2481 4659 
Q 3169 4659 3637 4309 
Q 4106 3959 4291 3325 
L 3694 3184 
Q 3534 3684 3231 3912 
Q 2928 4141 2469 4141 
Q 1941 4141 1586 3887 
Q 1231 3634 1087 3207 
Q 944 2781 944 2328 
Q 944 1744 1114 1308 
Q 1284 872 1643 656 
Q 2003 441 2422 441 
Q 2931 441 3284 734 
Q 3638 1028 3763 1606 
z
" transform="scale(0.015625)"/>
      </defs>
      <use xlink:href="#ArialMT-43"/>
     </g>
    </g>
   </g>
  </g>
 </g>
 <defs>
  <clipPath id="p217cc1b84b">
   <rect x="110.51875" y="25.763437" width="648.36125" height="491.862188"/>
  </clipPath>
 </defs>
</svg>
